<svg stroke-linejoin="bevel" xmlns:rdf="http://www.w3.org/1999/02/22-rdf-syntax-ns#" xmlns="http://www.w3.org/2000/svg" fill-rule="evenodd" viewBox="0 0 409.6 409.6"  overflow="visible" >
 <g stroke-miterlimit="79.8403193612775" transform="matrix(1.6253968,0,0,1.6253968,0.15441051,-265.12538)">
  <!-- <path style="marker-end:none;marker-start:none;" fill="#cb9800" d="M44.121,387.95,81.885,409.75,119.65,387.95,119.65,344.34,81.884,322.54,44.12,344.34,44.121,387.95z"/> -->
  <path style="marker-end:none;marker-start:none;" fill="#333" d="M88.238,311.53,126,333.34,163.77,311.53,163.77,267.93,126,246.12,88.238,267.93,88.238,311.53z"/>
  <path style="marker-end:none;marker-start:none;" fill="#333" d="M132.36,387.95,170.12,409.75,207.88,387.95,207.88,344.34,170.12,322.54,132.36,344.34,132.36,387.95z"/>
  <!-- <path style="marker-end:none;marker-start:none;" fill="#cb9800" d="M0,311.53,37.765,333.33,75.532,311.53,75.532,267.92,37.767,246.12,0,267.92,0,311.53z"/>   <path style="marker-end:none;marker-start:none;" fill="#333" d="M43.93,235.23,81.694,257.04,119.46,235.23,119.46,191.62,81.693,169.82,43.929,191.62,43.93,235.23z"/>  -->
  <path style="marker-end:none;marker-start:none;" fill="#333" d="M132.16,235.01,169.92,256.81,207.69,235.01,207.69,191.4,169.92,169.6,132.16,191.4,132.16,235.01z"/>
  <path style="marker-end:none;marker-start:none;" fill="#333" d="M176.47,311.54,214.24,333.34,252,311.54,252,267.93,214.24,246.12,176.47,267.93,176.47,311.54z"/>
 </g>
</svg>
