<svg xmlns="http://www.w3.org/2000/svg" width="1186.396" height="946" viewBox="0 0 1186.396 946">
  <g id="Group_1868" data-name="Group 1868" transform="translate(-191.603 -1558.725)">
    <path id="Polygon_82" data-name="Polygon 82" d="M207.75,0,277,127,207.75,254H69.25L0,127,69.25,0Z" transform="translate(432 1558.725)" fill="#fff" opacity="0.3"/>
    <path id="Polygon_86" data-name="Polygon 86" d="M207.75,0,277,127,207.75,254H69.25L0,127,69.25,0Z" transform="translate(432 1833.725)" fill="#fff" opacity="0.3"/>
    <path id="Polygon_87" data-name="Polygon 87" d="M207.75,0,277,127,207.75,254H69.25L0,127,69.25,0Z" transform="translate(432 2114.725)" fill="#fff" opacity="0.3"/>
    <path id="Polygon_84" data-name="Polygon 84" d="M207.75,0,277,127,207.75,254H69.25L0,127,69.25,0Z" transform="translate(206 1974.725)" fill="#fff" opacity="0.3"/>
    <path id="Polygon_90" data-name="Polygon 90" d="M207.75,0,277,127,207.75,254H69.25L0,127,69.25,0Z" transform="translate(661.5 2250.725)" fill="#fff" opacity="0.3"/>
    <path id="Polygon_91" data-name="Polygon 91" d="M207.75,0,277,127,207.75,254H69.25L0,127,69.25,0Z" transform="translate(206 2250.725)" fill="#fff" opacity="0.3"/>
    <path id="Polygon_81" data-name="Polygon 81" d="M207.75,0,277,127,207.75,254H69.25L0,127,69.25,0Z" transform="translate(202.67 1697.725)" fill="#fc8701"/>
    <path id="Polygon_83" data-name="Polygon 83" d="M207.75,0,277,127,207.75,254H69.25L0,127,69.25,0Z" transform="translate(660.67 1694.725)" fill="#fff" opacity="0.3"/>
    <path id="Polygon_85" data-name="Polygon 85" d="M207.75,0,277,127,207.75,254H69.25L0,127,69.25,0Z" transform="translate(661 1972.725)" fill="#fff" opacity="0.3"/>
    <text id="Durability_Analysis" data-name="Durability Analysis" transform="translate(472.67 1654.725)" fill="#fff" font-size="25" font-family="SegoeUI, Segoe UI"><tspan x="-53.259" y="27">Durability </tspan><tspan x="-44.208" y="60">Analysis</tspan></text>
    <text id="Crash_Safety_Analysis" data-name="Crash &amp; Safety Analysis" transform="translate(472.67 1929.725)" fill="#fff" font-size="25" font-family="SegoeUI, Segoe UI"><tspan x="-81.409" y="27">Crash &amp; Safety </tspan><tspan x="-44.208" y="60">Analysis</tspan></text>
    <text id="Vibrations" transform="translate(465.67 2226.225)" fill="#fff" font-size="25" font-family="SegoeUI, Segoe UI"><tspan x="-55.811" y="27">Vibrations</tspan></text>
    <text id="Manufacturing_Solutions" data-name="Manufacturing Solutions" transform="translate(246.17 2070.725)" fill="#fff" font-size="25" font-family="SegoeUI, Segoe UI"><tspan x="-80.896" y="27">Manufacturing </tspan><tspan x="-51.031" y="60">Solutions</tspan></text>
    <text id="Computational_Fluid_Dynamics_CFD_" data-name="Computational Fluid Dynamics (CFD)" transform="translate(693.17 2331.948)" fill="#fff" font-size="25" font-family="SegoeUI, Segoe UI"><tspan x="-81.897" y="27">Computational </tspan><tspan x="-83.136" y="60">Fluid Dynamics </tspan><tspan x="-30.151" y="93">(CFD)</tspan></text>
    <text id="Battery_Thermal_Simulation" data-name="Battery Thermal Simulation" transform="translate(238 2346.725)" fill="#fff" font-size="25" font-family="SegoeUI, Segoe UI"><tspan x="-87.012" y="27">Battery Thermal </tspan><tspan x="-58.557" y="60">Simulation</tspan></text>
    <text id="Structural_Analysis" data-name="Structural Analysis" transform="translate(240.67 1793.725)" fill="#fff" font-size="25" font-family="SegoeUI, Segoe UI"><tspan x="-52.71" y="27">Structural </tspan><tspan x="-44.208" y="60">Analysis</tspan></text>
    <text id="Structural_Analysis-2" data-name="Structural Analysis" transform="translate(1074 1616.725)" fill="#fff" font-size="30" font-family="SegoeUI, Segoe UI"><tspan x="0" y="32">Structural Analysis</tspan></text>
    <text id="Multi_Body_Dynamics" data-name="Multi Body Dynamics" transform="translate(699.67 1796.725)" fill="#fff" font-size="25" font-family="SegoeUI, Segoe UI"><tspan x="-59.912" y="27">Multi Body </tspan><tspan x="-53.119" y="60">Dynamics</tspan></text>
    <text id="Optimization" transform="translate(700 2083.725)" fill="#fff" font-size="25" font-family="SegoeUI, Segoe UI"><tspan x="-71.503" y="27">Optimization</tspan></text>
    <path id="Path_4180" data-name="Path 4180" d="M3.824,6.558,30.918,55.679l40.246,72.967" transform="translate(416.176 1688.167)" fill="none" stroke="#fc8701" stroke-linecap="round" stroke-width="5"/>
    <path id="Path_4181" data-name="Path 4181" d="M3.824,6.558,30.918,55.679l40.246,72.967" transform="translate(191.176 1824.167)" fill="none" stroke="#fc8701" stroke-linecap="round" stroke-width="5"/>
  </g>
</svg>
