<svg xmlns="http://www.w3.org/2000/svg" width="54.947" height="53.893" viewBox="0 0 54.947 53.893">
  <g id="Group_1863" data-name="Group 1863" transform="translate(-88.87 -74.344)">
    <path id="Path_4250" data-name="Path 4250" d="M126.482,107.584a.725.725,0,0,0-.281-.057h-3.644a3.239,3.239,0,0,0,.309-1.346,3.274,3.274,0,1,0-6.254,1.346h-4.928c.011-1.78.036-6.248.036-6.282a.722.722,0,0,0-1.3-.43,1.812,1.812,0,0,1-1.469.747,1.83,1.83,0,0,1,0-3.661,1.811,1.811,0,0,1,1.483.765.721.721,0,0,0,1.307-.421V92.739a2.269,2.269,0,0,0-2.266-2.267h-3.861a3.244,3.244,0,0,0,.294-1.344,3.275,3.275,0,1,0-6.549,0,3.244,3.244,0,0,0,.294,1.344H96.024a2.269,2.269,0,0,0-2.266,2.267v13.989a2.22,2.22,0,0,0,.516,1.382,2.236,2.236,0,0,0-.786,1.683v3.861a3.244,3.244,0,0,0-1.344-.294,3.275,3.275,0,0,0,0,6.55,3.244,3.244,0,0,0,1.344-.295v3.627a2.268,2.268,0,0,0,2.265,2.266h13.616a2.223,2.223,0,0,0,1.4-.53c.016.018.023.043.041.061a2.107,2.107,0,0,0,1.5.62h0l4.3-.009a3.235,3.235,0,0,0-.292,1.342,3.274,3.274,0,1,0,6.548,0,3.244,3.244,0,0,0-.294-1.344H126.2a2.268,2.268,0,0,0,2.265-2.266v-13.59A2.243,2.243,0,0,0,126.482,107.584ZM95.2,92.739a.822.822,0,0,1,.821-.822h5.123a.722.722,0,0,0,.421-1.308,1.808,1.808,0,0,1-.764-1.481,1.83,1.83,0,1,1,3.66,0,1.81,1.81,0,0,1-.764,1.481.722.722,0,0,0,.421,1.308h5.355a.822.822,0,0,1,.821.822v4.013a3.272,3.272,0,1,0-.026,5.978c-.009,1.485-.023,3.7-.028,4.818H104.12a.721.721,0,0,0-.421,1.307,1.813,1.813,0,0,1,.764,1.483,1.83,1.83,0,1,1-3.66,0,1.813,1.813,0,0,1,.764-1.483.721.721,0,0,0-.421-1.307H96.024a.822.822,0,0,1-.821-.821Zm15.488,24.7a.724.724,0,0,0-.5.687v5.121a.822.822,0,0,1-.821.821H95.754a.822.822,0,0,1-.821-.821v-5.121a.721.721,0,0,0-1.307-.421,1.811,1.811,0,0,1-1.482.764,1.83,1.83,0,1,1,0-3.66,1.813,1.813,0,0,1,1.482.764.721.721,0,0,0,1.307-.421v-5.355a.822.822,0,0,1,.821-.821.694.694,0,0,0,.082-.016c.065.006.12.038.187.038h3.629a3.275,3.275,0,1,0,5.961,0h4.617l-.04,6.15a.719.719,0,0,0,.5.69.71.71,0,0,0,.809-.264,1.811,1.811,0,0,1,1.482-.764,1.83,1.83,0,0,1,0,3.661,1.809,1.809,0,0,1-1.482-.765A.725.725,0,0,0,110.69,117.435Zm16.332,5.949a.822.822,0,0,1-.821.821H121.08a.721.721,0,0,0-.421,1.307,1.827,1.827,0,0,1-1.066,3.312,1.831,1.831,0,0,1-1.83-1.83,1.812,1.812,0,0,1,.763-1.482.721.721,0,0,0-.421-1.307h0l-5.792.011h0a.673.673,0,0,1-.675-.675.694.694,0,0,0-.03-.149c0-.052.03-.1.03-.149v-3.627a3.24,3.24,0,0,0,1.343.294,3.275,3.275,0,1,0-1.335-6.26l.032-4.677h6.43a.722.722,0,0,0,.423-1.307,1.829,1.829,0,1,1,2.13,0c-.016.012-.023.028-.037.04a.744.744,0,0,0-.1.112.772.772,0,0,0-.07.1.684.684,0,0,0-.049.136.715.715,0,0,0-.027.133c0,.021-.012.038-.012.059a.563.563,0,0,0,.017.082.627.627,0,0,0,.027.134.662.662,0,0,0,.062.137.745.745,0,0,0,.031.069c.01.014.026.018.036.031a.708.708,0,0,0,.173.147.715.715,0,0,0,.073.049.706.706,0,0,0,.3.072H126.2a.822.822,0,0,1,.821.821Z" transform="translate(0 -2.03)" fill="#fff"/>
    <path id="Path_4251" data-name="Path 4251" d="M148.539,74.344h-3.887a.724.724,0,0,0-.722.722v.665H133.084a.724.724,0,0,0-.551.255L129.386,79.7h-7.4a2.169,2.169,0,0,0-2.167,2.164l-.09,13.194a2.034,2.034,0,0,0,2.034,2.047h5.371a.722.722,0,0,0,.421-1.309,1.643,1.643,0,0,1-.7-1.347A1.667,1.667,0,1,1,129.5,95.8c-.016.012-.023.029-.038.041a.63.63,0,0,0-.1.109.69.69,0,0,0-.074.11.735.735,0,0,0-.047.128.75.75,0,0,0-.029.141c0,.02-.012.037-.012.057a.641.641,0,0,0,.016.079.667.667,0,0,0,.028.138.676.676,0,0,0,.062.136.655.655,0,0,0,.031.07c.01.013.026.018.036.03a.708.708,0,0,0,.173.147.545.545,0,0,0,.376.121h.3a.627.627,0,0,0,.1.021h4.756a2.17,2.17,0,0,0,2.169-2.167V88.008h.009a6.246,6.246,0,0,0,4.659-1.913h2.006v.385a.723.723,0,0,0,.722.722h3.887a.723.723,0,0,0,.722-.722V75.066A.724.724,0,0,0,148.539,74.344ZM135.811,94.963a.724.724,0,0,1-.724.722h-.265a.636.636,0,0,0-.1-.021h-3.343a3.071,3.071,0,0,0,.269-1.212,3.112,3.112,0,1,0-6.224,0,3.079,3.079,0,0,0,.25,1.212h-3.9a.589.589,0,0,1-.418-.172.583.583,0,0,1-.172-.422l.09-13.2a.723.723,0,0,1,.722-.724h10.842L129.9,84.226a.723.723,0,0,0-.125.815,3.074,3.074,0,0,0,2.163,1.609,2.579,2.579,0,0,0,.374.027,4.761,4.761,0,0,0,3.241-1.734c.07.016.175.029.256.045v9.975Zm8.119-10.312H141.59a.727.727,0,0,0-.585.3,4.705,4.705,0,0,1-3.749,1.593V85.1a4.249,4.249,0,0,0,1.888-.5,4.141,4.141,0,0,0,1.969-2.912.72.72,0,0,0-.551-.857.709.709,0,0,0-.858.551,2.777,2.777,0,0,1-1.258,1.955,4.069,4.069,0,0,1-2.88.114.726.726,0,0,0-.773.2c-1.016,1.123-1.926,1.638-2.64,1.576a1.366,1.366,0,0,1-.792-.435l5.436-5.711a.721.721,0,1,0-1.046-.994L134.208,79.7h-2.929l2.141-2.529H143.93v7.476Zm3.887,1.108h-2.442v-9.97h2.442Z" transform="translate(-5.445)" fill="#f6770d"/>
  </g>
</svg>
