<svg xmlns="http://www.w3.org/2000/svg" width="62" height="62" viewBox="0 0 62 62">
  <g id="Group_1862" data-name="Group 1862" transform="translate(-92.999 -80.85)">
    <path id="Path_4245" data-name="Path 4245" d="M133,94.85h-2v-8h-4v-6h-6v4h-4v10h-2v2h18Zm-12,0h-2v-8h2Zm4-8v8h-2v-12h2Zm4,8h-2v-6h2Z" fill="#f6770d"/>
    <path id="Path_4246" data-name="Path 4246" d="M93.725,102.3l3.82,3.82,1.273-.6.48,1.321h5.4l.48-1.321,1.273.6,3.82-3.82-.6-1.273,1.322-.48v-5.4l-1.321-.48.6-1.273-3.82-3.82-1.273.595-.48-1.322H99.3l-.48,1.321-1.273-.6-3.82,3.82.6,1.273L93,95.149v5.4l1.321.48ZM95,96.551l.823-.3.448-.214.422-1.019-.561-1.2,1.837-1.837,1.2.562,1.077-.447.453-1.246h2.6l.3.823.212.447,1.019.423,1.2-.562,1.837,1.837-.561,1.2.447,1.079,1.245.453v2.6l-.823.3-.448.214-.422,1.019.561,1.2-1.837,1.837-1.2-.561-1.079.447-.452,1.244h-2.6l-.3-.823-.214-.448-1.019-.422-1.2.561-1.837-1.837.561-1.2L96.244,99.6,95,99.149Z" fill="#f6770d"/>
    <path id="Path_4247" data-name="Path 4247" d="M102,102.85a5,5,0,1,0-5-5A5.006,5.006,0,0,0,102,102.85Zm0-8a3,3,0,1,1-3,3A3,3,0,0,1,102,94.85Z" fill="#f6770d"/>
    <path id="Path_4248" data-name="Path 4248" d="M152,90.85H138a3,3,0,0,0-3,3v8a3,3,0,0,0,3,3h3v1.586a2.414,2.414,0,0,0,4.121,1.707l3.293-3.293H152a3,3,0,0,0,3-3v-8A3,3,0,0,0,152,90.85Zm1,11a1,1,0,0,1-1,1h-4.414l-3.879,3.879a.43.43,0,0,1-.707-.293V102.85h-5a1,1,0,0,1-1-1v-8a1,1,0,0,1,1-1h14a1,1,0,0,1,1,1Z" fill="#f6770d"/>
    <rect id="Rectangle_191" data-name="Rectangle 191" width="2" height="2" transform="translate(138.999 94.85)" fill="#f6770d"/>
    <rect id="Rectangle_192" data-name="Rectangle 192" width="8" height="2" transform="translate(142.999 94.85)" fill="#f6770d"/>
    <rect id="Rectangle_193" data-name="Rectangle 193" width="12" height="2" transform="translate(138.999 98.85)" fill="#f6770d"/>
    <path id="Path_4249" data-name="Path 4249" d="M140.161,115.85l-3.475-1.158A13,13,0,1,0,111,111.85a12.925,12.925,0,0,0,.639,4h-5.557L93,113.669V130.03l12.813-2.136,4.223,2.413a3.031,3.031,0,0,0-.036.467A3.084,3.084,0,0,0,113,133.837a3.081,3.081,0,0,0,3,3,3.081,3.081,0,0,0,3,3,3.077,3.077,0,0,0,3.07,3.013h.14a3.073,3.073,0,0,0,2.035-.769l.875-.772a3.111,3.111,0,0,0,4.863-2.47,3.113,3.113,0,0,0,3-3,3.113,3.113,0,0,0,3-3,3.113,3.113,0,0,0,3-3.017L142.2,127.9l12.8,2.134V113.669l-13.083,2.181ZM105,126l-10,1.666V116.031l10,1.666Zm28.786-19.153a10.919,10.919,0,0,1,1.164,4h-4.971a27.423,27.423,0,0,0-.409-4Zm1.164,6a11.055,11.055,0,0,1-.177,1.2l-2.005-.668a10.452,10.452,0,0,0-2.8-.513v-.022h4.985Zm-2.471-8H129.1a13.86,13.86,0,0,0-1.391-3.341A11.037,11.037,0,0,1,132.478,104.85Zm-8.479-4c1.075,0,2.22,1.527,3.009,4H120.99C121.779,102.377,122.924,100.85,124,100.85Zm3.519,6a24.8,24.8,0,0,1,.46,4H120.02a24.91,24.91,0,0,1,.46-4Zm.445,6c0,.038,0,.076,0,.113a10.268,10.268,0,0,0-1.665.382l-4.722,1.51a7.415,7.415,0,0,0-1.172.071l-.2.029q-.12-1.032-.159-2.105Zm-7.678-11.341a13.86,13.86,0,0,0-1.391,3.341H115.52A11.038,11.038,0,0,1,120.285,101.509Zm-6.072,5.341h4.217a27.288,27.288,0,0,0-.409,4H113.05A10.9,10.9,0,0,1,114.213,106.85Zm4,8.388-4.288.612h-.163a10.835,10.835,0,0,1-.711-3h4.983Q118.078,114.068,118.216,115.238Zm-7.251,13.3L107,126.269V117.85h7l6.683-.945a5.571,5.571,0,0,1,3.245.527l5.326,2.663A1.342,1.342,0,0,1,130,121.3v.2a1.349,1.349,0,0,1-2.043,1.157l-3.723-2.234a4.107,4.107,0,0,0-4.766.46l-8.45,7.6Zm11.961,12.045a1.073,1.073,0,0,1-.712.269h-.14A1.092,1.092,0,0,1,121,139.71a1.051,1.051,0,0,1,.283-.73l.939-.86a3.127,3.127,0,0,0,.692,1.059l.751.751Zm3.952-.731a1.117,1.117,0,0,1-.793-.328l-1.758-1.758a1.121,1.121,0,0,1,1.586-1.586l1.758,1.758a1.121,1.121,0,0,1-.793,1.914Zm3-3a1.117,1.117,0,0,1-.793-.328l-1.758-1.758a1.121,1.121,0,0,1,1.586-1.586l1.758,1.758a1.121,1.121,0,0,1-.793,1.914Zm3-3a1.117,1.117,0,0,1-.793-.328l-1.758-1.758a1.121,1.121,0,0,1,1.586-1.586l1.758,1.758a1.121,1.121,0,0,1-.793,1.914Zm3-3a1.117,1.117,0,0,1-.793-.328l-1.758-1.758a1.121,1.121,0,0,1,1.586-1.586l1.758,1.758a1.121,1.121,0,0,1-.793,1.914ZM141,126.284l-2.633,1.58a3.131,3.131,0,0,0-.281-.342l-1.758-1.758a3.115,3.115,0,0,0-5.317,2.1,3.113,3.113,0,0,0-3,3,3.113,3.113,0,0,0-3,3,3.107,3.107,0,0,0-2.135.951l0,0-2.973,2.725a1.113,1.113,0,0,1-.825.315A1.092,1.092,0,0,1,118,136.71a1.069,1.069,0,0,1,.315-.761l2.392-2.392-1.414-1.414-2.392,2.392a1.113,1.113,0,0,1-.825.315A1.092,1.092,0,0,1,115,133.71a1.069,1.069,0,0,1,.315-.761l2.392-2.392-1.414-1.414-2.392,2.392a1.113,1.113,0,0,1-.825.315,1.076,1.076,0,0,1-.72-1.875l8.45-7.605a2.065,2.065,0,0,1,2.4-.231l3.723,2.234A3.35,3.35,0,0,0,132,121.5v-.2a3.33,3.33,0,0,0-1.852-3l-4.993-2.5,1.749-.559a8.452,8.452,0,0,1,5.23.032l7.7,2.568H141Zm2-8.587,10-1.666V127.67L143,126Z" fill="#fff"/>
  </g>
</svg>
