<svg xmlns="http://www.w3.org/2000/svg" width="67.663" height="43.835" viewBox="0 0 67.663 43.835">
  <g id="Group_1867" data-name="Group 1867" transform="translate(-187.792 -337.785)">
    <path id="Path_4281" data-name="Path 4281" d="M199.862,381.9c-2.661-2.636-5.348-4.96-8.991-5.84-.512-.123-1.206-.12-1.14-.8.084-.859.857-.7,1.427-.589a16.54,16.54,0,0,1,8.572,5.095c1.443,1.462,2.527,1.462,4.208.52,3.134-1.756,6.407-3.264,9.62-4.881a20.276,20.276,0,0,1,8.251-1.961c.565-.028,1.251-.188,1.354.733.1.883-.326,1.2-1.148,1.251-5.614.35-10.083,3.615-14.936,5.9-.618.291-1.285.64-1.014,1.5.249.788,1,.856,1.67.864,4.424.057,8.852.18,13.273.074,1.839-.044,2.279.575,2.2,2.293-.129,3-.07,6-.017,9,.02,1.131-.312,1.606-1.521,1.584q-5.174-.095-10.35,0c-1.066.018-1.351-.427-1.58-1.388-1.035-4.341-4.194-6.988-8.182-6.995a8.3,8.3,0,0,0-8.2,6.949c-.322,1.52-1.072,1.587-2.213,1.277a3.141,3.141,0,0,1-2.579-2.267,14.488,14.488,0,0,1,.618-8.229c1.414-3.513,3.7-3.431,6.482-3.308.809.036,1.623-.105,2.436-.138A2.494,2.494,0,0,0,199.862,381.9Zm-9.474,7.288a6.352,6.352,0,0,0,3.852-3.093c.474-.937-.211-1.258-1.018-.991a6.653,6.653,0,0,0-3.645,2.819C189.109,388.675,189.284,389.211,190.388,389.187Z" transform="translate(0 -23.101)" fill="none" stroke="#f6770d" stroke-width="1"/>
    <path id="Path_4282" data-name="Path 4282" d="M292.64,367.613c0-4.873-.034-9.746.016-14.618a5.152,5.152,0,0,1,4.258-5.3c.585-.091,1.437-.474,1.549.638.076.754.1,1.385-1.011,1.574-1.944.332-2.611,1.745-2.607,3.624.019,9.446,0,18.891.018,28.337.006,2.749,1.051,3.788,3.839,3.8q9.218.048,18.436,0c2.626-.015,3.725-1.088,3.734-3.692.032-9.445,0-18.891.019-28.337,0-1.952-.668-3.418-2.733-3.773-1.006-.173-.947-.791-.9-1.459.069-1.086.879-.815,1.508-.724a5.069,5.069,0,0,1,4.306,5.037q.1,14.955.008,29.911a5.037,5.037,0,0,1-5.3,5.249q-9.891.139-19.785.006c-3.362-.048-5.315-2.215-5.343-5.66C292.609,377.359,292.639,372.486,292.64,367.613Z" transform="translate(-67.666 -6.339)" fill="#fff"/>
    <path id="Path_4283" data-name="Path 4283" d="M215.073,422.625a5.941,5.941,0,1,1-5.888,6.028A5.844,5.844,0,0,1,215.073,422.625Zm3.573,6.014a3.654,3.654,0,0,0-3.522-3.61,3.542,3.542,0,1,0,3.522,3.61Z" transform="translate(-13.568 -55.004)" fill="#f6770d"/>
    <path id="Path_4284" data-name="Path 4284" d="M315.888,341.63c0,.594.048,1.192-.01,1.78a1.968,1.968,0,0,1-3.908.09,23.673,23.673,0,0,1-.066-3.558,2.016,2.016,0,1,1,4.016.128c-.006.52,0,1.04,0,1.559Z" transform="translate(-80.141 -0.029)" fill="#fff"/>
    <path id="Path_4285" data-name="Path 4285" d="M348.483,341.435c0-.52-.018-1.04,0-1.559a1.912,1.912,0,0,1,1.889-2.07,1.962,1.962,0,0,1,2.136,2.071c.075.96.045,1.93.023,2.894-.03,1.344-.556,2.393-2.045,2.4s-2.007-1.034-2.008-2.4Q348.482,342.1,348.483,341.435Z" transform="translate(-103.874 -0.012)" fill="#fff"/>
    <path id="Path_4286" data-name="Path 4286" d="M330.072,340.9a6.762,6.762,0,0,1,.085-1.445,1.9,1.9,0,0,1,2.05-1.67,1.821,1.821,0,0,1,1.881,1.821c.065,1.036.048,2.078.048,3.117,0,1.342-.466,2.412-1.979,2.427-1.487.014-2.03-1.01-2.083-2.361C330.058,342.346,330.072,341.9,330.072,340.9Z" transform="translate(-91.938)" fill="#fff"/>
    <path id="Path_4287" data-name="Path 4287" d="M313.3,397.54c1.2,0,2.393-.007,3.59,0,.52,0,1.089-.036,1.065.763-.022.719-.495.832-1.065.832q-3.814,0-7.629,0c-.626,0-.986-.253-.953-.934.031-.648.508-.655.954-.659C310.606,397.53,311.952,397.54,313.3,397.54Z" transform="translate(-77.829 -38.739)" fill="#fff"/>
    <path id="Path_4288" data-name="Path 4288" d="M309.643,375.469c.035-3.815-.319-3.3,3.37-3.323,3.725-.023,3.725,0,3.721,4.286,0,2.844,0,2.87-4.677,2.821C309.256,379.223,309.69,379.644,309.643,375.469Zm6.586.415c0-3.088-.02-2.88-3.246-3.152-2.669-.224-2.835,1.025-2.732,3.1.144,2.9.038,2.907,3.086,2.907C316.232,378.733,316.232,378.733,316.229,375.884Z" transform="translate(-78.697 -22.27)" fill="#fff"/>
    <path id="Path_4289" data-name="Path 4289" d="M340.935,373.874c-1.191,0-2.383.013-3.574-.006-.491-.008-1.092.12-1.135-.686-.038-.709.366-.9.966-.9q3.8,0,7.6,0c.588,0,1.038.136,1.033.844-.006.765-.547.753-1.088.752C343.467,373.871,342.2,373.873,340.935,373.874Z" transform="translate(-95.93 -22.364)" fill="#fff"/>
    <path id="Path_4290" data-name="Path 4290" d="M341.155,400.63c0-3.367,0-3.4,4.407-3.352,3.037.034,2.672-.719,2.68,4.437.005,3.127.28,2.6-4.327,2.61C340.5,404.331,341.243,404.568,341.155,400.63Zm3.8,3.075c1.692.342,2.922,0,2.707-2.675-.261-3.247-.063-3.152-3.175-3.3-2.081-.1-3.107.245-2.9,2.712C341.889,404.011,341.142,403.654,344.96,403.7Z" transform="translate(-99.119 -38.558)" fill="#fff"/>
    <path id="Path_4291" data-name="Path 4291" d="M339.512,422.3c1.266,0,2.532,0,3.8,0,.615,0,.981.245.929.933-.049.651-.529.629-.967.631q-3.8.012-7.595,0c-.453,0-.9-.021-.933-.661-.036-.708.383-.9.971-.906,1.266-.009,2.532,0,3.8,0Z" transform="translate(-94.969 -54.787)" fill="#fff"/>
    <path id="Path_4292" data-name="Path 4292" d="M316.717,425.568c0,3.434,0,3.47-4.1,3.421-3.427-.042-2.978.687-2.971-4.114,0-3.6-.488-2.94,4.114-2.99C316.718,421.852,316.718,421.881,316.717,425.568Zm-3.533,2.885c3.028,0,3.028,0,3.031-2.769,0-3.21-.011-3.029-3.238-3.278-2.452-.189-2.864.79-2.748,2.928C310.4,428.446,310.271,428.452,313.184,428.453Z" transform="translate(-78.683 -54.512)" fill="#fff"/>
    <path id="Path_4293" data-name="Path 4293" d="M336.452,389.632h9.427l.007.494h-9.392Z" transform="translate(-96.078 -33.614)" fill="#fff"/>
    <path id="Path_4294" data-name="Path 4294" d="M344.283,433.65H334.9l-.006-.461h9.381Z" transform="translate(-95.069 -61.853)" fill="#fff"/>
    <path id="Path_4295" data-name="Path 4295" d="M334.838,439.654h9.443l.007.485h-9.409Z" transform="translate(-95.032 -66.044)" fill="#fff"/>
    <path id="Path_4296" data-name="Path 4296" d="M345.833,383.654h-9.4l0-.485h9.412Z" transform="translate(-96.066 -29.424)" fill="#fff"/>
    <path id="Path_4297" data-name="Path 4297" d="M308.589,408.3h9.445l.007.452h-9.457Z" transform="translate(-78.011 -45.72)" fill="#fff"/>
    <path id="Path_4298" data-name="Path 4298" d="M318.018,415.326h-9.43l0-.451H318Z" transform="translate(-78.011 -49.98)" fill="#fff"/>
  </g>
</svg>
