<svg xmlns="http://www.w3.org/2000/svg" width="79.642" height="46" viewBox="0 0 79.642 46">
  <g id="Group_1866" data-name="Group 1866" transform="translate(-545.407 -293.641)">
    <path id="Path_4274" data-name="Path 4274" d="M638.143,327.239a.693.693,0,0,1,.395-.051c1.121,0,2.242-.008,3.362,0a.489.489,0,0,0,.508-.316c1.38-2.808,2.752-5.62,4.158-8.415a6.067,6.067,0,0,1,5.67-3.615c5.742-.041,11.485-.025,17.227-.005a6.079,6.079,0,0,1,4.227,1.728,6.911,6.911,0,0,1,1.442,2.051c.57,1.148,1.139,2.3,1.726,3.436.787,1.529,1.528,3.083,2.257,4.64a.754.754,0,0,0,.816.5c1.583-.025,3.166-.019,4.749-.007a6.3,6.3,0,0,1,6.2,5.1,5.67,5.67,0,0,1,.115,1.135q-.006,3.969,0,7.938c0,.453-.009.465-.463.465-2.23,0-4.46.007-6.69-.007-.349,0-.509.086-.571.458a7.282,7.282,0,0,1-1.289,3.077,8.118,8.118,0,0,1-11.013,2.154,7.977,7.977,0,0,1-3.574-5.185c-.114-.5-.111-.5-.627-.5q-14.039,0-28.078,0c-.162,0-.4.1-.469-.084-.048-.13.177-.243.288-.355,1.167-1.169,2.332-2.34,3.509-3.5.214-.21.184-.336-.013-.529-.875-.857-1.731-1.733-2.607-2.588-.206-.2-.2-.32,0-.521.86-.839,1.7-1.7,2.552-2.546.313-.314.315-.316-.012-.641q-1.879-1.87-3.759-3.739C638.163,327.306,638.16,327.28,638.143,327.239Zm5.392,12.254.06.088h.309q11.473,0,22.947.009c.363,0,.467-.138.532-.461a8.115,8.115,0,0,1,9.145-6.455,8.093,8.093,0,0,1,6.76,6.552c.048.275.159.362.43.36q2.322-.015,4.645,0c.283,0,.387-.082.385-.373-.011-1.964-.007-3.928-.009-5.893a3.351,3.351,0,0,0-.31-1.411,3.984,3.984,0,0,0-3.807-2.47c-2.068-.031-4.137-.014-6.2,0a.576.576,0,0,1-.614-.365q-2.368-4.82-4.765-9.627a3.958,3.958,0,0,0-3.77-2.361c-5.673-.006-11.346-.014-17.019,0a3.841,3.841,0,0,0-3.6,2.229c-.977,1.913-1.91,3.848-2.863,5.773-.682,1.376-1.348,2.761-2.065,4.119-.154.292-.084.4.109.58.456.424.891.869,1.341,1.3.2.2.225.34,0,.561-.893.869-1.761,1.765-2.649,2.64-.18.177-.156.281.011.445q1.278,1.255,2.537,2.528c.358.36.354.365-.01.729-.09.09-.179.181-.27.27Zm31.785,7.038a5.821,5.821,0,0,0,5.861-5.883,5.855,5.855,0,1,0-5.861,5.883Z" transform="translate(-65.944 -15.06)" fill="#fff"/>
    <path id="Path_4275" data-name="Path 4275" d="M569.231,318.3q0,9.463.007,18.926c0,.285-.1.312-.339.311-2.53-.008-5.061-.014-7.591,0-.392,0-.424-.181-.423-.484q.008-5.269,0-10.537c0-.2-.014-.394,0-.589.025-.3-.083-.409-.392-.4-.924.016-1.848,0-2.773,0H545.87c-.463,0-.463,0-.463-.476q0-6.777,0-13.553c0-.458,0-.472.449-.471,3.951.011,7.9-.032,11.854.02.97.013,1.94-.023,2.91-.016.265,0,.269-.136.269-.326q0-1.993,0-3.986,0-3.553,0-7.105c0-.747.01-.6.587-.6,2.438,0,4.876.006,7.314-.009.344,0,.45.072.45.434q-.017,9.428-.008,18.857Zm-2.251-.034q0-8.267,0-16.534c0-.466,0-.467-.454-.467h-2.912c-.48,0-.482,0-.482.47q0,5.511,0,11.022c0,.508,0,.509-.517.509H548.195c-.538,0-.539,0-.539.554q0,4.471,0,8.943c0,.514,0,.516.512.516h14.454c.51,0,.51,0,.51.52q0,5.529-.007,11.057c0,.334.1.442.433.436.97-.017,1.941-.005,2.911-.006.506,0,.509,0,.509-.523Q566.98,326.519,566.979,318.269Z" transform="translate(0 -3.817)" fill="#f6770d"/>
    <path id="Path_4276" data-name="Path 4276" d="M645.569,302.208c-.046-.016-.1-.031-.154-.054-.518-.227-1.033-.46-1.554-.678-.2-.085-.213-.195-.134-.378q1.566-3.62,3.12-7.246c.1-.225.206-.257.421-.157.481.223.968.435,1.462.629.241.094.279.2.175.439-.865,1.987-1.718,3.979-2.574,5.969-.178.413-.352.828-.532,1.241C645.756,302.074,645.728,302.2,645.569,302.208Z" transform="translate(-69.882)" fill="#fff"/>
    <path id="Path_4277" data-name="Path 4277" d="M648.985,430.881c.018.157-.089.192-.183.233-.508.22-1.021.432-1.526.66-.219.1-.328.043-.421-.174q-1.176-2.756-2.367-5.506c-.242-.562-.474-1.129-.734-1.683-.119-.255-.054-.365.195-.463.483-.191.956-.407,1.43-.621.2-.092.323-.083.425.155q1.552,3.632,3.122,7.255C648.949,430.789,648.97,430.843,648.985,430.881Z" transform="translate(-69.893 -92.18)" fill="#fff"/>
    <path id="Path_4278" data-name="Path 4278" d="M671.457,339.516h-6.69c-.334,0-.4-.1-.239-.381.617-1.046,1.105-2.156,1.649-3.238.928-1.847,1.839-3.7,2.753-5.557A2.225,2.225,0,0,1,671.09,329c2.323.008,4.645,0,6.967,0,.488,0,.491,0,.491.471,0,3.212,0,6.424.006,9.636,0,.309-.077.415-.408.412C675.916,339.508,673.686,339.516,671.457,339.516Zm.7-2.245c1.258,0,2.517,0,3.776,0,.253,0,.378-.058.376-.347q-.014-2.668,0-5.335c0-.257-.091-.343-.344-.342q-2.338.01-4.677,0a.424.424,0,0,0-.434.265q-1.337,2.718-2.692,5.428c-.14.28-.055.333.218.331C669.635,337.266,670.894,337.27,672.153,337.27Z" transform="translate(-84.645 -25.144)" fill="#fff"/>
    <path id="Path_4279" data-name="Path 4279" d="M726.946,339.517c-2.218,0-4.435-.006-6.652.008-.314,0-.39-.1-.389-.395.009-3.222.006-6.445.007-9.667,0-.454.005-.458.469-.458,2.333,0,4.666.005,7,0a2.205,2.205,0,0,1,2.137,1.315q2.191,4.423,4.379,8.848c.169.342.164.351-.229.351Zm-.65-2.245c1.258,0,2.517-.006,3.775,0,.313,0,.353-.077.216-.352q-1.348-2.693-2.673-5.4a.446.446,0,0,0-.463-.275c-1.547.006-3.094.008-4.641,0-.277,0-.355.1-.354.367q.012,2.632,0,5.264c0,.305.1.4.4.4C723.8,337.264,725.049,337.272,726.3,337.272Z" transform="translate(-124.084 -25.145)" fill="#fff"/>
    <path id="Path_4280" data-name="Path 4280" d="M752.554,394.214a4.137,4.137,0,0,1,4.117-4.136,4.124,4.124,0,0,1,.026,8.248A4.134,4.134,0,0,1,752.554,394.214Zm4.108,1.866a1.9,1.9,0,0,0,1.911-1.88,1.929,1.929,0,0,0-1.917-1.886,1.883,1.883,0,0,0,.006,3.766Z" transform="translate(-147.3 -68.575)" fill="#fff"/>
  </g>
</svg>
