<svg xmlns="http://www.w3.org/2000/svg" width="69.116" height="50.95" viewBox="0 0 69.116 50.95">
  <g id="Group_1865" data-name="Group 1865" transform="translate(-95.227 -76.462)">
    <path id="Path_4252" data-name="Path 4252" d="M146.417,92.818a3.564,3.564,0,0,1-.118-.969c-.061.056-.121.114-.186.165V89.569a4.746,4.746,0,0,0-4.74-4.74h-3.805a4.928,4.928,0,0,1-.928.085,5.568,5.568,0,0,1-1.139-.17c-.011.029-.026.057-.036.086H131.4l0-.022c-.062,0-.117.019-.182.019a3.2,3.2,0,0,1-1.094-.2c-.189.008-.38.02-.566.021h-.008l-.031.179h-3.847a13.19,13.19,0,0,0-24.547,0H99.967a4.746,4.746,0,0,0-4.74,4.74v25.186a4.745,4.745,0,0,0,4.74,4.74h13.627l-1.11,6.068h-2.8v1.849h21.972v-1.849h-2.8l-1.109-6.068h13.628a4.745,4.745,0,0,0,4.74-4.74V100.376l.151-.055a6.011,6.011,0,0,1-.135-1.841c0-.02.008-.054.013-.082l-.028.01V94.223c.088-.047.167-.108.254-.159.008-.059.006-.114.018-.173l.037-.207A3.515,3.515,0,0,1,146.417,92.818Zm-5.044-6.141a2.9,2.9,0,0,1,2.892,2.892V90.4H126.573a13.188,13.188,0,0,0-.07-2.341,12.984,12.984,0,0,0-.25-1.382Zm-16.108,15.542-.841-.685,2.909-3.561.813.665Zm4.313-2.415,7.373,6.016a2.65,2.65,0,0,1,.782,3.609,2.068,2.068,0,0,1-1.65.718,3.255,3.255,0,0,1-2.041-.767l-7.345-5.992Zm-5.83-.366-.778-.635,1.563-1.912.777.635Zm-21.289-12.76c.086-.313.188-.619.3-.924s.247-.622.39-.925a11.289,11.289,0,0,1,8.885-6.433,11.62,11.62,0,0,1,1.389-.085,11.336,11.336,0,0,1,10.239,6.518q.212.451.385.925c.11.3.209.61.294.924a10.827,10.827,0,0,1,.383,3.722,11.336,11.336,0,0,1-9.943,10.517,11.407,11.407,0,0,1-1.388.086h0a11.414,11.414,0,0,1-11.245-9.973c-.026-.211-.032-.419-.046-.63A11.324,11.324,0,0,1,102.459,86.678Zm-5.384,2.891a2.9,2.9,0,0,1,2.892-2.892h.6a13.16,13.16,0,0,0-.314,3.723H97.075Zm17.289,35.994,1.11-6.068h10.392l1.11,6.068Zm27.01-7.917H99.966a2.888,2.888,0,0,1-2.849-2.466h47.107A2.889,2.889,0,0,1,141.374,117.646Zm2.895-4.314H97.075V92.248h3.408a13.192,13.192,0,0,0,12.911,10.6h0a13.216,13.216,0,0,0,8.154-2.824l1.032.843-.756.926,11.051,9.016A5.107,5.107,0,0,0,136.084,112a3.937,3.937,0,0,0,3.082-1.4c1.445-1.771.978-4.555-1.045-6.208l-11.05-9.016-.589.723-1.108-.905a13.045,13.045,0,0,0,.965-2.942h17.928Z" fill="#fff"/>
    <path id="Path_4253" data-name="Path 4253" d="M103.5,90.723a9.788,9.788,0,0,0,9.629,8.537h0a9.924,9.924,0,0,0,1.185-.072,9.7,9.7,0,0,0,8.511-8.9,9.755,9.755,0,0,0-.443-3.723,9.475,9.475,0,0,0-.354-.924,9.85,9.85,0,0,0-.472-.925,9.7,9.7,0,0,0-8.4-4.885,9.973,9.973,0,0,0-1.188.071A9.648,9.648,0,0,0,105.5,83.56a10.364,10.364,0,0,0-1.238,2.083,9.623,9.623,0,0,0-.787,4.647C103.482,90.436,103.484,90.578,103.5,90.723Zm5.652-4.637h-1.848l.005,8.667,11.719-.008a7.8,7.8,0,0,1-4.935,2.608,7.93,7.93,0,0,1-.962.059h0a7.9,7.9,0,0,1-7.794-6.913c-.009-.069-.009-.138-.015-.209a7.8,7.8,0,0,1,.546-3.722,7.692,7.692,0,0,1,.457-.925,8,8,0,0,1,.611-.925l.014-.019a7.811,7.811,0,0,1,5.242-2.959,7.841,7.841,0,0,1,7.156,2.978,8.4,8.4,0,0,1,1.07,1.849,7.788,7.788,0,0,1,.549,3.723,7.789,7.789,0,0,1-.406,1.848,7.878,7.878,0,0,1-.31.758L109.16,92.9Z" transform="translate(0.265 0.109)" fill="#f6770d"/>
    <path id="Path_4254" data-name="Path 4254" d="M112.114,90.273l1.438,1.08,1.073-1.271.627-.743.676.743,1.036,1.138.7-1.138,1.736-2.8-1.485-.919-.086-.053-.034.053-1.117,1.8L115.2,86.536l-1.934,2.291-1.456-1.094-1.931,2.349-.369.449,1.428,1.174Z" transform="translate(0.461 0.318)" fill="#f6770d"/>
    <circle id="Ellipse_14" data-name="Ellipse 14" cx="0.708" cy="0.708" r="0.708" transform="translate(119.962 115.787)" fill="#f6770d"/>
    <rect id="Rectangle_194" data-name="Rectangle 194" width="1.848" height="3.644" transform="translate(99.864 108.008)" fill="#f6770d"/>
    <rect id="Rectangle_195" data-name="Rectangle 195" width="1.848" height="5.24" transform="translate(102.985 106.412)" fill="#f6770d"/>
    <rect id="Rectangle_196" data-name="Rectangle 196" width="1.848" height="5.24" transform="translate(112.353 106.412)" fill="#f6770d"/>
    <rect id="Rectangle_197" data-name="Rectangle 197" width="1.848" height="6.565" transform="translate(106.108 105.087)" fill="#f6770d"/>
    <rect id="Rectangle_198" data-name="Rectangle 198" width="1.848" height="6.565" transform="translate(109.23 105.087)" fill="#f6770d"/>
    <path id="Path_4255" data-name="Path 4255" d="M138.349,94.028v1.386h1.907v-1.85h-1.907Z" transform="translate(1.392 0.552)" fill="#f6770d"/>
    <path id="Path_4256" data-name="Path 4256" d="M134.768,93.564v1.85h1.907v-1.85h-1.907Z" transform="translate(1.277 0.552)" fill="#f6770d"/>
    <path id="Path_4257" data-name="Path 4257" d="M138.349,96.906v1.85h1.907v-1.85h-1.907Z" transform="translate(1.392 0.66)" fill="#f6770d"/>
    <rect id="Rectangle_199" data-name="Rectangle 199" width="1.907" height="1.849" transform="translate(139.742 101.015)" fill="#f6770d"/>
    <path id="Path_4258" data-name="Path 4258" d="M134.768,96.906v1.85h1.907v-1.85h-1.907Z" transform="translate(1.277 0.66)" fill="#f6770d"/>
    <path id="Path_4259" data-name="Path 4259" d="M131.966,93.564h-.779v1.85h1.907v-1.85h-1.128Z" transform="translate(1.161 0.552)" fill="#f6770d"/>
    <g id="Group_1864" data-name="Group 1864" transform="translate(147.802 92.856)">
      <path id="Path_4260" data-name="Path 4260" d="M154.436,112.638a8.27,8.27,0,1,1,5.84-2.422A8.27,8.27,0,0,1,154.436,112.638Zm0-15.9a7.63,7.63,0,1,0,5.395,2.225h0A7.581,7.581,0,0,0,154.436,96.74Zm0,13.982a6.354,6.354,0,1,1,6.351-6.357v.011A6.358,6.358,0,0,1,154.436,110.722Zm0-12.066a5.715,5.715,0,1,0,5.712,5.721A5.715,5.715,0,0,0,154.436,98.656Z" transform="translate(-146.157 -92.222)" fill="#f6770d"/>
      <path id="Path_4261" data-name="Path 4261" d="M154.2,104.752a.623.623,0,1,1,.619-.626v.011A.62.62,0,0,1,154.2,104.752Zm-.02-.614a.017.017,0,0,0,.02,0Z" transform="translate(-145.918 -91.983)" fill="#f6770d"/>
      <path id="Path_4262" data-name="Path 4262" d="M157.971,104.445h-3.784a.32.32,0,0,1,0-.64h3.784a.32.32,0,0,1,0,.64Z" transform="translate(-145.908 -91.973)" fill="#f6770d"/>
      <path id="Path_4263" data-name="Path 4263" d="M153.786,104.276l-.015-2.095c0-.1.141-.178.318-.179s.32.076.321.174l.017,2.093c0,.1-.141.178-.318.18s-.321-.076-.322-.174Z" transform="translate(-145.911 -92.031)" fill="#f6770d"/>
      <path id="Path_4264" data-name="Path 4264" d="M155.939,95.779h-3.376a.8.8,0,0,1-.793-.795v-1.85a.794.794,0,0,1,.793-.792h3.376a.8.8,0,0,1,.8.792v1.85a.8.8,0,0,1-.8.795Z" transform="translate(-145.976 -92.343)" fill="#f6770d"/>
      <path id="Path_4265" data-name="Path 4265" d="M152.544,92.962a.155.155,0,0,0-.156.153v1.85a.158.158,0,0,0,.156.156h3.376a.156.156,0,0,0,.156-.156h0v-1.85a.156.156,0,0,0-.156-.153Z" transform="translate(-145.956 -92.323)" fill="#f6770d"/>
      <path id="Path_4266" data-name="Path 4266" d="M160.106,98.264a.624.624,0,0,1-.44-.181l-1.524-1.525a.625.625,0,0,1,0-.882l.834-.834a.627.627,0,0,1,.882,0l1.524,1.515a.638.638,0,0,1,0,.89l-.834.835A.631.631,0,0,1,160.106,98.264Z" transform="translate(-145.776 -92.268)" fill="#f6770d"/>
      <path id="Path_4267" data-name="Path 4267" d="M160.039,97.536" transform="translate(-145.709 -92.175)" fill="#f6770d"/>
      <path id="Path_4268" data-name="Path 4268" d="M159.372,95.276l-.812.834,1.516,1.491.834-.834Z" transform="translate(-145.757 -92.248)" fill="#f6770d"/>
      <line id="Line_5" data-name="Line 5" y1="0.609" x2="0.609" transform="translate(12.745 4.827)" fill="#f6770d"/>
      <path id="Path_4269" data-name="Path 4269" d="M158.513,97.961a.323.323,0,0,1-.225-.095.316.316,0,0,1,0-.448l0,0,.609-.612a.317.317,0,0,1,.448,0l0,0a.32.32,0,0,1,0,.452h0l-.609.609A.323.323,0,0,1,158.513,97.961Z" transform="translate(-145.768 -92.202)" fill="#f6770d"/>
      <path id="Path_4270" data-name="Path 4270" d="M148.519,98.264a.624.624,0,0,1-.439-.181l-.834-.835a.62.62,0,0,1-.005-.876l.005-.005,1.524-1.524a.623.623,0,0,1,.878,0l.834.834a.621.621,0,0,1,.005.877l-.005,0-1.524,1.525A.624.624,0,0,1,148.519,98.264Z" transform="translate(-146.128 -92.268)" fill="#f6770d"/>
      <path id="Path_4271" data-name="Path 4271" d="M149.167,95.276l-1.5,1.524.834.8,1.513-1.513Z" transform="translate(-146.108 -92.248)" fill="#f6770d"/>
      <line id="Line_6" data-name="Line 6" x1="0.609" y1="0.609" transform="translate(3.367 4.827)" fill="#f6770d"/>
      <path id="Path_4272" data-name="Path 4272" d="M150.038,97.961a.323.323,0,0,1-.225-.095l-.609-.609a.32.32,0,0,1,0-.452h0a.317.317,0,0,1,.448,0l0,0,.612.612a.323.323,0,0,1,0,.45A.331.331,0,0,1,150.038,97.961Z" transform="translate(-146.062 -92.202)" fill="#f6770d"/>
      <path id="Path_4273" data-name="Path 4273" d="M154.187,96.508a.32.32,0,0,1-.32-.32h0v-.816a.319.319,0,1,1,.639,0h0v.816a.317.317,0,0,1-.314.32Z" transform="translate(-145.908 -92.256)" fill="#f6770d"/>
      <line id="Line_7" data-name="Line 7" x1="0.431" y1="0.248" transform="translate(3.776 9.563)" fill="#f6770d"/>
      <line id="Line_8" data-name="Line 8" x1="0.431" y1="0.25" transform="translate(12.347 14.51)" fill="#f6770d"/>
      <line id="Line_9" data-name="Line 9" y1="0.431" x2="0.25" transform="translate(10.626 7.661)" fill="#f6770d"/>
      <line id="Line_10" data-name="Line 10" y1="0.431" x2="0.248" transform="translate(5.678 16.232)" fill="#f6770d"/>
      <line id="Line_11" data-name="Line 11" x1="0.248" y1="0.431" transform="translate(5.678 7.661)" fill="#f6770d"/>
      <line id="Line_12" data-name="Line 12" x1="0.25" y1="0.431" transform="translate(10.626 16.232)" fill="#f6770d"/>
      <line id="Line_13" data-name="Line 13" y1="0.248" x2="0.431" transform="translate(12.347 9.563)" fill="#f6770d"/>
      <line id="Line_14" data-name="Line 14" y1="0.25" x2="0.431" transform="translate(3.776 14.51)" fill="#f6770d"/>
      <line id="Line_15" data-name="Line 15" y1="0.498" transform="translate(8.276 16.86)" fill="#f6770d"/>
    </g>
  </g>
</svg>
