<?xml version="1.0" encoding="utf-8"?>
<!-- Generator: Adobe Illustrator 23.0.2, SVG Export Plug-In . SVG Version: 6.00 Build 0)  -->
<svg version="1.1" id="Layer_1" xmlns="http://www.w3.org/2000/svg" xmlns:xlink="http://www.w3.org/1999/xlink" x="0px" y="0px"
	 viewBox="0 0 756.2 1511.6" style="enable-background:new 0 0 756.2 1511.6;" xml:space="preserve">
<style type="text/css">
	.st0{fill:#FC8701;}
	.st1{opacity:0.3;fill:#FFFFFF;enable-background:new    ;}
</style>
<g>
	<path class="st0" d="M753.7,819.1c-0.9,0-1.7-0.5-2.2-1.3l-67.3-122.1c-0.7-1.2-0.2-2.7,1-3.4s2.7-0.2,3.4,1l67.3,122.1
		c0.7,1.2,0.2,2.7-1,3.4C754.5,819,754.1,819.1,753.7,819.1z"/>
	<path class="st0" d="M528.7,955.1c-0.9,0-1.7-0.5-2.2-1.3l-67.3-122.1c-0.7-1.2-0.2-2.7,1-3.4s2.7-0.2,3.4,1l67.3,122.1
		c0.7,1.2,0.2,2.7-1,3.4C529.5,955,529.1,955.1,528.7,955.1z"/>
	<path id="Polygon_90" class="st1" d="M676.8,696.5l69.3,127l-69.3,127H538.3l-69.3-127l69.3-127H676.8z"/>
</g>
<g>
	<path class="st0" d="M524.2,683.1c-0.9,0-1.7-0.5-2.2-1.3l-67.3-122.1c-0.7-1.2-0.2-2.7,1-3.4s2.7-0.2,3.4,1l67.3,122.1
		c0.7,1.2,0.2,2.7-1,3.4C525,683,524.6,683.1,524.2,683.1z"/>
	<path class="st0" d="M299.2,819.1c-0.9,0-1.7-0.5-2.2-1.3l-67.3-122.1c-0.7-1.2-0.2-2.7,1-3.4s2.7-0.2,3.4,1l67.3,122.1
		c0.7,1.2,0.2,2.7-1,3.4C300,819,299.6,819.1,299.2,819.1z"/>
	<path id="Polygon_87" class="st1" d="M447.3,560.5l69.3,127l-69.3,127H308.8l-69.3-127l69.3-127H447.3z"/>
</g>
<g>
	<path class="st0" d="M298.2,819.1c-0.9,0-1.7-0.5-2.2-1.3l-67.3-122.1c-0.7-1.2-0.2-2.7,1-3.4s2.7-0.2,3.4,1l67.3,122.1
		c0.7,1.2,0.2,2.7-1,3.4C299,819,298.6,819.1,298.2,819.1z"/>
	<path class="st0" d="M73.2,955.1c-0.9,0-1.7-0.5-2.2-1.3L3.6,831.7c-0.7-1.2-0.2-2.7,1-3.4s2.7-0.2,3.4,1l67.3,122.1
		c0.7,1.2,0.2,2.7-1,3.4C74,955,73.6,955.1,73.2,955.1z"/>
	<path id="Polygon_91" class="st1" d="M221.3,696.5l69.3,127l-69.3,127H82.8l-69.3-127l69.3-127H221.3z"/>
</g>
<g>
	<path class="st0" d="M753.7,541.1c-0.9,0-1.7-0.5-2.2-1.3l-67.3-122.1c-0.7-1.2-0.2-2.7,1-3.4c1.2-0.7,2.7-0.2,3.4,1l67.3,122.1
		c0.7,1.2,0.2,2.7-1,3.4C754.5,541,754.1,541.1,753.7,541.1z"/>
	<path class="st0" d="M528.7,677.1c-0.9,0-1.7-0.5-2.2-1.3l-67.3-122.1c-0.7-1.2-0.2-2.7,1-3.4s2.7-0.2,3.4,1l67.3,122.1
		c0.7,1.2,0.2,2.7-1,3.4C529.5,677,529.1,677.1,528.7,677.1z"/>
	<path id="Polygon_85" class="st1" d="M676.3,418.5l69.3,127l-69.3,127H537.8l-69.3-127l69.3-127H676.3z"/>
</g>
<g>
	<path class="st0" d="M524.2,402.1c-0.9,0-1.7-0.5-2.2-1.3l-67.3-122.1c-0.7-1.2-0.2-2.7,1-3.4c1.2-0.7,2.7-0.2,3.4,1l67.3,122.1
		c0.7,1.2,0.2,2.7-1,3.4C525,402,524.6,402.1,524.2,402.1z"/>
	<path class="st0" d="M299.2,538.1c-0.9,0-1.7-0.5-2.2-1.3l-67.3-122.1c-0.7-1.2-0.2-2.7,1-3.4c1.2-0.7,2.7-0.2,3.4,1l67.3,122.1
		c0.7,1.2,0.2,2.7-1,3.4C300,538,299.6,538.1,299.2,538.1z"/>
	<path id="Polygon_86" class="st1" d="M447.3,279.5l69.3,127l-69.3,127H308.8l-69.3-127l69.3-127H447.3z"/>
</g>
<g>
	<path class="st0" d="M298.2,541.1c-0.9,0-1.7-0.5-2.2-1.3l-67.3-122.1c-0.7-1.2-0.2-2.7,1-3.4c1.2-0.7,2.7-0.2,3.4,1l67.3,122.1
		c0.7,1.2,0.2,2.7-1,3.4C299,541,298.6,541.1,298.2,541.1z"/>
	<path class="st0" d="M73.2,677.1c-0.9,0-1.7-0.5-2.2-1.3L3.6,553.7c-0.7-1.2-0.2-2.7,1-3.4s2.7-0.2,3.4,1l67.3,122.1
		c0.7,1.2,0.2,2.7-1,3.4C74,677,73.6,677.1,73.2,677.1z"/>
	<path id="Polygon_84" class="st1" d="M221.3,420.5l69.3,127l-69.3,127H82.8l-69.3-127l69.3-127H221.3z"/>
</g>
<g>
	<path class="st0" d="M751.6,1375.6c-0.9,0-1.7-0.5-2.2-1.3l-67.3-122.1c-0.7-1.2-0.2-2.7,1-3.4c1.2-0.7,2.7-0.2,3.4,1l67.3,122.1
		c0.7,1.2,0.2,2.7-1,3.4C752.4,1375.5,752,1375.6,751.6,1375.6z"/>
	<path class="st0" d="M526.6,1511.6c-0.9,0-1.7-0.5-2.2-1.3l-67.3-122.1c-0.7-1.2-0.2-2.7,1-3.4c1.2-0.7,2.7-0.2,3.4,1l67.3,122.1
		c0.7,1.2,0.2,2.7-1,3.4C527.4,1511.5,527,1511.6,526.6,1511.6z"/>
	<path id="Polygon_90_1_" class="st1" d="M674.7,1253l69.3,127l-69.3,127H536.2l-69.3-127l69.3-127H674.7z"/>
</g>
<g>
	<path class="st0" d="M522.1,1239.6c-0.9,0-1.7-0.5-2.2-1.3l-67.3-122.1c-0.7-1.2-0.2-2.7,1-3.4c1.2-0.7,2.7-0.2,3.4,1l67.3,122.1
		c0.7,1.2,0.2,2.7-1,3.4C522.9,1239.5,522.5,1239.6,522.1,1239.6z"/>
	<path class="st0" d="M297.1,1375.6c-0.9,0-1.7-0.5-2.2-1.3l-67.3-122.1c-0.7-1.2-0.2-2.7,1-3.4c1.2-0.7,2.7-0.2,3.4,1l67.3,122.1
		c0.7,1.2,0.2,2.7-1,3.4C297.9,1375.5,297.5,1375.6,297.1,1375.6z"/>
	<path id="Polygon_87_1_" class="st1" d="M445.2,1117l69.3,127l-69.3,127H306.7l-69.3-127l69.3-127H445.2z"/>
</g>
<g>
	<path class="st0" d="M296.1,1375.6c-0.9,0-1.7-0.5-2.2-1.3l-67.3-122.1c-0.7-1.2-0.2-2.7,1-3.4c1.2-0.7,2.7-0.2,3.4,1l67.3,122.1
		c0.7,1.2,0.2,2.7-1,3.4C296.9,1375.5,296.5,1375.6,296.1,1375.6z"/>
	<path class="st0" d="M71.1,1511.6c-0.9,0-1.7-0.5-2.2-1.3L1.5,1388.2c-0.7-1.2-0.2-2.7,1-3.4c1.2-0.7,2.7-0.2,3.4,1l67.3,122.1
		c0.7,1.2,0.2,2.7-1,3.4C71.9,1511.5,71.5,1511.6,71.1,1511.6z"/>
	<path id="Polygon_91_1_" class="st1" d="M219.2,1253l69.3,127l-69.3,127H80.7l-69.3-127l69.3-127H219.2z"/>
</g>
<g>
	<path class="st0" d="M751.6,1097.6c-0.9,0-1.7-0.5-2.2-1.3l-67.3-122.1c-0.7-1.2-0.2-2.7,1-3.4s2.7-0.2,3.4,1l67.3,122.1
		c0.7,1.2,0.2,2.7-1,3.4C752.4,1097.5,752,1097.6,751.6,1097.6z"/>
	<path class="st0" d="M526.6,1233.6c-0.9,0-1.7-0.5-2.2-1.3l-67.3-122.1c-0.7-1.2-0.2-2.7,1-3.4c1.2-0.7,2.7-0.2,3.4,1l67.3,122.1
		c0.7,1.2,0.2,2.7-1,3.4C527.4,1233.5,527,1233.6,526.6,1233.6z"/>
	<path id="Polygon_85_1_" class="st1" d="M674.2,975l69.3,127l-69.3,127H535.7l-69.3-127l69.3-127H674.2z"/>
</g>
<g>
	<path class="st0" d="M522.1,958.6c-0.9,0-1.7-0.5-2.2-1.3l-67.3-122.1c-0.7-1.2-0.2-2.7,1-3.4c1.2-0.7,2.7-0.2,3.4,1l67.3,122.1
		c0.7,1.2,0.2,2.7-1,3.4C522.9,958.5,522.5,958.6,522.1,958.6z"/>
	<path class="st0" d="M297.1,1094.6c-0.9,0-1.7-0.5-2.2-1.3l-67.3-122.1c-0.7-1.2-0.2-2.7,1-3.4s2.7-0.2,3.4,1l67.3,122.1
		c0.7,1.2,0.2,2.7-1,3.4C297.9,1094.5,297.5,1094.6,297.1,1094.6z"/>
	<path id="Polygon_86_1_" class="st1" d="M445.2,836l69.3,127l-69.3,127H306.7l-69.3-127l69.3-127H445.2z"/>
</g>
<g>
	<path class="st0" d="M296.1,1097.6c-0.9,0-1.7-0.5-2.2-1.3l-67.3-122.1c-0.7-1.2-0.2-2.7,1-3.4s2.7-0.2,3.4,1l67.3,122.1
		c0.7,1.2,0.2,2.7-1,3.4C296.9,1097.5,296.5,1097.6,296.1,1097.6z"/>
	<path class="st0" d="M71.1,1233.6c-0.9,0-1.7-0.5-2.2-1.3L1.5,1110.2c-0.7-1.2-0.2-2.7,1-3.4c1.2-0.7,2.7-0.2,3.4,1l67.3,122.1
		c0.7,1.2,0.2,2.7-1,3.4C71.9,1233.5,71.5,1233.6,71.1,1233.6z"/>
	<path id="Polygon_84_1_" class="st1" d="M219.2,977l69.3,127l-69.3,127H80.7l-69.3-127l69.3-127H219.2z"/>
</g>
<g>
	<path class="st0" d="M753.7,263.1c-0.9,0-1.7-0.5-2.2-1.3l-67.3-122.1c-0.7-1.2-0.2-2.7,1-3.4s2.7-0.2,3.4,1l67.3,122.1
		c0.7,1.2,0.2,2.7-1,3.4C754.5,263,754.1,263.1,753.7,263.1z"/>
	<path class="st0" d="M528.7,399.1c-0.9,0-1.7-0.5-2.2-1.3l-67.3-122.1c-0.7-1.2-0.2-2.7,1-3.4c1.2-0.7,2.7-0.2,3.4,1l67.3,122.1
		c0.7,1.2,0.2,2.7-1,3.4C529.5,399,529.1,399.1,528.7,399.1z"/>
	<path id="Polygon_83" class="st1" d="M675.9,140.5l69.3,127l-69.3,127H537.4l-69.3-127l69.3-127H675.9z"/>
</g>
<g>
	<path class="st0" d="M523.2,127.1c-0.9,0-1.7-0.5-2.2-1.3L453.6,3.7c-0.7-1.2-0.2-2.7,1-3.4s2.7-0.2,3.4,1l67.3,122.1
		c0.7,1.2,0.2,2.7-1,3.4C524,127,523.6,127.1,523.2,127.1z"/>
	<path class="st0" d="M298.2,263.1c-0.9,0-1.7-0.5-2.2-1.3l-67.3-122.1c-0.7-1.2-0.2-2.7,1-3.4s2.7-0.2,3.4,1l67.3,122.1
		c0.7,1.2,0.2,2.7-1,3.4C299,263,298.6,263.1,298.2,263.1z"/>
	<path id="Polygon_82" class="st1" d="M447.3,4.5l69.3,127l-69.3,127H308.8l-69.3-127l69.3-127H447.3z"/>
</g>
<g>
	<path class="st0" d="M294.8,265.1c-0.9,0-1.7-0.5-2.2-1.3l-67.3-122.1c-0.7-1.2-0.2-2.7,1-3.4s2.7-0.2,3.4,1L297,261.4
		c0.7,1.2,0.2,2.7-1,3.4C295.7,265,295.3,265.1,294.8,265.1z"/>
	<path class="st0" d="M69.8,401.1c-0.9,0-1.7-0.5-2.2-1.3l-67.3-122c-0.7-1.2-0.2-2.7,1-3.4c1.2-0.7,2.7-0.2,3.4,1l67.3,122
		c0.7,1.2,0.2,2.7-1,3.4C70.7,401,70.3,401.1,69.8,401.1z"/>
	<path id="Polygon_81" class="st0" d="M217.9,143.5l69.3,127l-69.3,127H79.4l-69.3-127l69.3-127H217.9z"/>
</g>
</svg>
