<?xml version="1.0" encoding="utf-8"?>
<!-- Generator: Adobe Illustrator 23.0.2, SVG Export Plug-In . SVG Version: 6.00 Build 0)  -->
<svg version="1.1" id="Layer_1" xmlns="http://www.w3.org/2000/svg" xmlns:xlink="http://www.w3.org/1999/xlink" x="0px" y="0px"
	 viewBox="0 0 756.2 955.1" style="enable-background:new 0 0 756.2 955.1;" xml:space="preserve">
<style type="text/css">
	.st0{fill:#FC8701;}
	.st1{opacity:0.3;fill:#FFFFFF;enable-background:new    ;}
</style>
<g>
	<path class="st0" d="M753.7,819.1c-0.9,0-1.7-0.5-2.2-1.3l-67.3-122.1c-0.7-1.2-0.2-2.7,1-3.4c1.2-0.7,2.7-0.2,3.4,1l67.3,122.1
		c0.7,1.2,0.2,2.7-1,3.4C754.5,819,754.1,819.1,753.7,819.1z"/>
	<path class="st0" d="M528.7,955.1c-0.9,0-1.7-0.5-2.2-1.3l-67.3-122.1c-0.7-1.2-0.2-2.7,1-3.4c1.2-0.7,2.7-0.2,3.4,1l67.3,122.1
		c0.7,1.2,0.2,2.7-1,3.4C529.5,955,529.1,955.1,528.7,955.1z"/>
	<path id="Polygon_90" class="st1" d="M676.8,696.5l69.3,127l-69.3,127H538.3l-69.3-127l69.3-127H676.8z"/>
</g>
<g>
	<path class="st0" d="M524.2,683.1c-0.9,0-1.7-0.5-2.2-1.3l-67.3-122.1c-0.7-1.2-0.2-2.7,1-3.4c1.2-0.7,2.7-0.2,3.4,1l67.3,122.1
		c0.7,1.2,0.2,2.7-1,3.4C525,683,524.6,683.1,524.2,683.1z"/>
	<path class="st0" d="M299.2,819.1c-0.9,0-1.7-0.5-2.2-1.3l-67.3-122.1c-0.7-1.2-0.2-2.7,1-3.4c1.2-0.7,2.7-0.2,3.4,1l67.3,122.1
		c0.7,1.2,0.2,2.7-1,3.4C300,819,299.6,819.1,299.2,819.1z"/>
	<path id="Polygon_87" class="st1" d="M447.3,560.5l69.3,127l-69.3,127H308.8l-69.3-127l69.3-127H447.3z"/>
</g>
<g>
	<path class="st0" d="M298.2,819.1c-0.9,0-1.7-0.5-2.2-1.3l-67.3-122.1c-0.7-1.2-0.2-2.7,1-3.4c1.2-0.7,2.7-0.2,3.4,1l67.3,122.1
		c0.7,1.2,0.2,2.7-1,3.4C299,819,298.6,819.1,298.2,819.1z"/>
	<path class="st0" d="M73.2,955.1c-0.9,0-1.7-0.5-2.2-1.3L3.6,831.7c-0.7-1.2-0.2-2.7,1-3.4c1.2-0.7,2.7-0.2,3.4,1l67.3,122.1
		c0.7,1.2,0.2,2.7-1,3.4C74,955,73.6,955.1,73.2,955.1z"/>
	<path id="Polygon_91" class="st1" d="M221.3,696.5l69.3,127l-69.3,127H82.8l-69.3-127l69.3-127H221.3z"/>
</g>
<g>
	<path class="st0" d="M753.7,541.1c-0.9,0-1.7-0.5-2.2-1.3l-67.3-122.1c-0.7-1.2-0.2-2.7,1-3.4c1.2-0.7,2.7-0.2,3.4,1l67.3,122.1
		c0.7,1.2,0.2,2.7-1,3.4C754.5,541,754.1,541.1,753.7,541.1z"/>
	<path class="st0" d="M528.7,677.1c-0.9,0-1.7-0.5-2.2-1.3l-67.3-122.1c-0.7-1.2-0.2-2.7,1-3.4c1.2-0.7,2.7-0.2,3.4,1l67.3,122.1
		c0.7,1.2,0.2,2.7-1,3.4C529.5,677,529.1,677.1,528.7,677.1z"/>
	<path id="Polygon_85" class="st1" d="M676.3,418.5l69.3,127l-69.3,127H537.8l-69.3-127l69.3-127H676.3z"/>
</g>
<g>
	<path class="st0" d="M524.2,402.1c-0.9,0-1.7-0.5-2.2-1.3l-67.3-122.1c-0.7-1.2-0.2-2.7,1-3.4c1.2-0.7,2.7-0.2,3.4,1l67.3,122.1
		c0.7,1.2,0.2,2.7-1,3.4C525,402,524.6,402.1,524.2,402.1z"/>
	<path class="st0" d="M299.2,538.1c-0.9,0-1.7-0.5-2.2-1.3l-67.3-122.1c-0.7-1.2-0.2-2.7,1-3.4c1.2-0.7,2.7-0.2,3.4,1l67.3,122.1
		c0.7,1.2,0.2,2.7-1,3.4C300,538,299.6,538.1,299.2,538.1z"/>
	<path id="Polygon_86" class="st1" d="M447.3,279.5l69.3,127l-69.3,127H308.8l-69.3-127l69.3-127H447.3z"/>
</g>
<g>
	<path class="st0" d="M298.2,541.1c-0.9,0-1.7-0.5-2.2-1.3l-67.3-122.1c-0.7-1.2-0.2-2.7,1-3.4c1.2-0.7,2.7-0.2,3.4,1l67.3,122.1
		c0.7,1.2,0.2,2.7-1,3.4C299,541,298.6,541.1,298.2,541.1z"/>
	<path class="st0" d="M73.2,677.1c-0.9,0-1.7-0.5-2.2-1.3L3.6,553.7c-0.7-1.2-0.2-2.7,1-3.4c1.2-0.7,2.7-0.2,3.4,1l67.3,122.1
		c0.7,1.2,0.2,2.7-1,3.4C74,677,73.6,677.1,73.2,677.1z"/>
	<path id="Polygon_84" class="st1" d="M221.3,420.5l69.3,127l-69.3,127H82.8l-69.3-127l69.3-127H221.3z"/>
</g>
<g>
	<path class="st0" d="M753.7,263.1c-0.9,0-1.7-0.5-2.2-1.3l-67.3-122.1c-0.7-1.2-0.2-2.7,1-3.4c1.2-0.7,2.7-0.2,3.4,1l67.3,122.1
		c0.7,1.2,0.2,2.7-1,3.4C754.5,263,754.1,263.1,753.7,263.1z"/>
	<path class="st0" d="M528.7,399.1c-0.9,0-1.7-0.5-2.2-1.3l-67.3-122.1c-0.7-1.2-0.2-2.7,1-3.4c1.2-0.7,2.7-0.2,3.4,1l67.3,122.1
		c0.7,1.2,0.2,2.7-1,3.4C529.5,399,529.1,399.1,528.7,399.1z"/>
	<path id="Polygon_83" class="st1" d="M675.9,140.5l69.3,127l-69.3,127H537.4l-69.3-127l69.3-127H675.9z"/>
</g>
<g>
	<path class="st0" d="M523.2,127.1c-0.9,0-1.7-0.5-2.2-1.3L453.6,3.7c-0.7-1.2-0.2-2.7,1-3.4c1.2-0.7,2.7-0.2,3.4,1l67.3,122.1
		c0.7,1.2,0.2,2.7-1,3.4C524,127,523.6,127.1,523.2,127.1z"/>
	<path class="st0" d="M298.2,263.1c-0.9,0-1.7-0.5-2.2-1.3l-67.3-122.1c-0.7-1.2-0.2-2.7,1-3.4c1.2-0.7,2.7-0.2,3.4,1l67.3,122.1
		c0.7,1.2,0.2,2.7-1,3.4C299,263,298.6,263.1,298.2,263.1z"/>
	<path id="Polygon_82" class="st1" d="M447.3,4.5l69.3,127l-69.3,127H308.8l-69.3-127l69.3-127H447.3z"/>
</g>
<g>
	<path class="st0" d="M294.8,265.1c-0.9,0-1.7-0.5-2.2-1.3l-67.3-122.1c-0.7-1.2-0.2-2.7,1-3.4c1.2-0.7,2.7-0.2,3.4,1L297,261.4
		c0.7,1.2,0.2,2.7-1,3.4C295.7,265,295.3,265.1,294.8,265.1z"/>
	<path class="st0" d="M69.8,401.1c-0.9,0-1.7-0.5-2.2-1.3L0.3,277.8c-0.7-1.2-0.2-2.7,1-3.4c1.2-0.7,2.7-0.2,3.4,1L72,397.4
		c0.7,1.2,0.2,2.7-1,3.4C70.7,401,70.3,401.1,69.8,401.1z"/>
	<path id="Polygon_81" class="st0" d="M217.9,143.5l69.3,127l-69.3,127H79.4l-69.3-127l69.3-127H217.9z"/>
</g>
</svg>
