<svg xmlns="http://www.w3.org/2000/svg" width="18.986" height="18.993" viewBox="0 0 18.986 18.993">
  <g id="Group_1" data-name="Group 1" transform="translate(-95.691 -105.64)">
    <path id="Path_1" data-name="Path 1" d="M111.975,116.779a6.976,6.976,0,0,1-1.052,3.717c-.2.294-.138.458.106.7q2.585,2.543,5.136,5.121a1.289,1.289,0,0,1,.121,1.95,1.226,1.226,0,0,1-1.793-.045q-1.783-1.785-3.557-3.577c-.5-.5-1-.982-1.491-1.487a.831.831,0,0,0-1.137-.139,7.139,7.139,0,1,1-4.59-13.29A7.2,7.2,0,0,1,111.975,116.779Zm-7.122-4.621a4.625,4.625,0,1,0,4.616,4.617A4.649,4.649,0,0,0,104.854,112.158Z" transform="translate(-2 -4)" fill="#fff"/>
  </g>
</svg>
