<svg xmlns="http://www.w3.org/2000/svg" width="59.422" height="45.799" viewBox="0 0 59.422 45.799">
  <g id="Group_1859" data-name="Group 1859" transform="translate(-83.996 -94.514)">
    <path id="Path_2104" data-name="Path 2104" d="M109.858,136.365c0,2.567-1.382,3.948-3.949,3.948H87.944c-2.564,0-3.948-1.381-3.948-3.948V117.018a8.465,8.465,0,0,1,1.383-4.933L96.04,95.895a2.392,2.392,0,0,1,2.367-1.381h8.884c1.579,0,2.172.988,1.579,2.369l-7.9,17.373h4.936c2.567,0,3.949,1.382,3.949,3.949Zm33.56,0c0,2.567-1.381,3.948-3.948,3.948H121.5c-2.564,0-3.948-1.381-3.948-3.948V117.018a8.465,8.465,0,0,1,1.383-4.933l10.66-16.19a2.394,2.394,0,0,1,2.37-1.381h8.881c1.581,0,2.172.988,1.581,2.369l-7.9,17.373h4.936c2.567,0,3.948,1.382,3.948,3.949Z" transform="translate(0 0)" fill="#fc8701"/>
  </g>
</svg>
