<svg xmlns="http://www.w3.org/2000/svg" width="64.323" height="64.799" viewBox="0 0 64.323 64.799">
  <g id="Group_1965" data-name="Group 1965" transform="translate(-539.992 -234)">
    <path id="Path_4714" data-name="Path 4714" d="M541.967,345.227c0,8.161.018,16.016-.013,23.87-.008,1.958,1.3,1.8,2.582,1.8q16.38,0,32.761.013c1.076,0,2.621-.447,2.109,1.975h-2.193q-16.5,0-33,0c-3.395,0-4.21-.8-4.215-4.124q-.017-11.553,0-23.106c.006-3.233.777-3.975,4.083-3.989,3.207-.013,6.414,0,9.989,0,0-1.27.02-2.339,0-3.407-.044-1.863.8-2.717,2.707-2.692,4.085.054,8.171,0,12.256.018,2.675.013,3.109.475,3.147,3.191.012.851,0,1.7,0,2.89,3.467,0,6.739-.012,10.01,0,3.163.015,4.072.9,4.094,4.04.016,2.379.392,4.865-1.915,7.014v-7.815c-1.5,1.3-2.59,2.2-3.641,3.153a26.86,26.86,0,0,1-11.843,6.5c-1.22.292-2,.73-1.808,2.182.264,2.008-.819,2.675-2.673,2.516a11.456,11.456,0,0,0-2.119,0c-2.2.223-3.49-.425-3.313-2.959a2.119,2.119,0,0,0-1.027-1.724,35.136,35.136,0,0,1-15.04-8.91A4.649,4.649,0,0,0,541.967,345.227Zm40-1.382H544.33C555.225,355.385,570.543,357.037,581.966,343.845ZM570.1,337.771H556.218v3.714H570.1Zm-8.49,16.974-.74.995c.5.51,1,1.434,1.513,1.439a8.415,8.415,0,0,0,2.662-.868Z" transform="translate(0 -74.289)" fill="#fff"/>
    <path id="Path_4715" data-name="Path 4715" d="M566.279,263.778V241.533c-3.418-.981-4-.588-4,2.57-.007,6.289.03,12.578-.045,18.866a6.843,6.843,0,0,1-.925,2.256c-.371-.783-1.053-1.562-1.065-2.35-.088-6.288-.054-12.577-.048-18.866,0-4.083.6-4.688,4.739-4.935a10.965,10.965,0,0,0,1.2-.211c.067-.6.14-1.132.186-1.67.177-2.049,1.255-3.181,3.342-3.183q18.27-.018,36.542,0a3.039,3.039,0,0,1,3.376,3.371c.036,7,.076,13.994-.046,20.988a5.624,5.624,0,0,1-1.817,3.441c-.038-.735-.109-1.47-.11-2.205-.009-7.075-.047-14.151.023-21.225.017-1.71-.51-2.38-2.279-2.373q-17.327.076-34.655-.005c-1.889-.01-2.433.717-2.4,2.508.089,4.558.053,9.118.022,13.677C568.29,256.207,568.959,260.348,566.279,263.778Z" transform="translate(-14.766)" fill="#fff"/>
    <path id="Path_4716" data-name="Path 4716" d="M692.749,370.252c.441-3.81,0-8.015,1.5-11.354,3.8-8.5,8.5-16.6,12.772-24.894.928-1.8,1.948-2.251,3.7-1.126a33.888,33.888,0,0,0,3.942,2.1c1.467.687,1.72,1.676,1,3.048-4.538,8.686-8.76,17.56-13.777,25.959-1.7,2.846-5.4,4.495-8.193,6.691Zm16.389-35.913-13.2,25.311,4.857,2.514,13.146-25.215Zm-13.823,32.5,4.114-3.029-4.114-2.072Z" transform="translate(-111.734 -71.875)" fill="#fff"/>
    <path id="Path_4717" data-name="Path 4717" d="M626.843,262.466c-3.846,0-7.693.045-11.537-.046-.629-.015-1.244-.631-1.865-.969.591-.355,1.18-1.014,1.774-1.019q11.655-.1,23.311-.005c.621.005,1.237.607,1.856.932-.667.369-1.326,1.04-2,1.058C634.536,262.519,630.689,262.466,626.843,262.466Z" transform="translate(-53.724 -19.295)" fill="#fff"/>
    <path id="Path_4718" data-name="Path 4718" d="M627.02,292.5c-3.925,0-7.851.045-11.774-.045-.622-.014-1.229-.635-1.843-.975.605-.345,1.207-.985,1.815-.99q11.656-.1,23.314,0c.614.005,1.223.627,1.835.962-.6.35-1.2.989-1.809,1C634.714,292.548,630.867,292.5,627.02,292.5Z" transform="translate(-53.696 -41.283)" fill="#fff"/>
    <path id="Path_4719" data-name="Path 4719" d="M626.984,320.56c3.845,0,7.691-.044,11.534.045.617.015,1.22.627,1.829.962-.616.332-1.229.949-1.848.954q-11.652.1-23.305,0c-.614-.005-1.222-.632-1.833-.97.617-.33,1.228-.933,1.852-.947C619.136,320.517,623.061,320.56,626.984,320.56Z" transform="translate(-53.666 -63.306)" fill="#fff"/>
    <path id="Path_4720" data-name="Path 4720" d="M626.882,277.544c-3.846,0-7.693.042-11.537-.045-.613-.014-1.213-.615-1.819-.944.587-.344,1.171-.983,1.761-.988q11.655-.1,23.311,0c.614.005,1.222.61,1.833.935-.671.349-1.334.983-2.013,1C634.575,277.6,630.728,277.545,626.882,277.544Z" transform="translate(-53.786 -30.366)" fill="#fff"/>
    <path id="Path_4721" data-name="Path 4721" d="M626.879,307.6c-3.843,0-7.687.042-11.527-.043-.616-.014-1.219-.595-1.828-.913.592-.336,1.181-.961,1.776-.966q11.645-.1,23.291,0c.617,0,1.228.6,1.842.917-.6.336-1.187.949-1.791.963C634.722,307.642,630.8,307.6,626.879,307.6Z" transform="translate(-53.784 -52.392)" fill="#fff"/>
    <path id="Path_4722" data-name="Path 4722" d="M666.276,335.636c3.675,0,7.352-.034,11.025.042.462.01.911.6,1.366.915-.441.339-.874.959-1.323.971-3.292.085-6.589.1-9.879-.005-.571-.019-1.119-.742-1.678-1.14Z" transform="translate(-92.013 -74.336)" fill="#fff"/>
    <path id="Path_4723" data-name="Path 4723" d="M717.051,449.175c.826-.354,1.663-1.031,2.474-1,2.073.079,2.966-.505,2.9-2.776a10.835,10.835,0,0,1,1.28-4.277c2.27,6.966.4,9.475-6.291,8.829Z" transform="translate(-129.51 -151.5)" fill="#fff"/>
    <path id="Path_4724" data-name="Path 4724" d="M568.854,420.8l-2.362-1.393a7.881,7.881,0,0,1,2.476-.952,6.424,6.424,0,0,1,2.292.891Z" transform="translate(-19.383 -134.916)" fill="#fff"/>
    <path id="Path_4725" data-name="Path 4725" d="M670.087,420.8l-2.278-1.425a7.923,7.923,0,0,1,2.5-.922,6.437,6.437,0,0,1,2.285.923Z" transform="translate(-93.492 -134.918)" fill="#fff"/>
  </g>
</svg>
