<svg xmlns="http://www.w3.org/2000/svg" width="74.509" height="61.656" viewBox="0 0 74.509 61.656">
  <g id="Group_1962" data-name="Group 1962" transform="translate(-611.623 -679.342)">
    <path id="Path_4695" data-name="Path 4695" d="M728.277,686.055c-1.381,0-2.695.047-4-.01-2.793-.121-2.61-2.136-2.6-4.1.007-1.91.932-2.624,2.768-2.6,4.034.052,8.07.058,12.1,0,1.667-.025,2.548.643,2.406,2.308-.14,1.643.851,3.876-1.942,4.323a18.477,18.477,0,0,0-2.2.151,11.064,11.064,0,0,0-2.059,1.086c.553.76.943,1.883,1.687,2.218,3.347,1.509,7.047,2.372,10.161,4.236,12.263,7.341,15.394,25.223,6.633,36.574-8.947,11.591-23.821,14.291-35.734,5.773-14.369-10.274-14.86-31.337.3-42.039,3.052-2.155,6.974-3.167,10.6-4.375C728.236,688.985,729.174,688.368,728.277,686.055Zm2.354,8.007a21.289,21.289,0,0,0-21.3,20.865,21.521,21.521,0,0,0,21.02,21.239,21.154,21.154,0,0,0,21.034-20.823A20.9,20.9,0,0,0,730.631,694.062Z" transform="translate(-70.083 0)" fill="#fff"/>
    <path id="Path_4696" data-name="Path 4696" d="M621.384,817.6c2.466,0,4.941-.119,7.393.072.733.057,1.4.975,2.1,1.5-.7.609-1.379,1.726-2.094,1.747q-7.515.227-15.039-.008c-.723-.023-1.412-1.139-2.117-1.749.706-.52,1.382-1.435,2.121-1.489C616.279,817.49,618.836,817.605,621.384,817.6Z" transform="translate(0 -104.225)" fill="#fff"/>
    <path id="Path_4697" data-name="Path 4697" d="M638.578,769.5a54.622,54.622,0,0,1,6.413.086c.764.09,1.41,1.172,2.111,1.8-.685.553-1.355,1.561-2.057,1.584-4.359.147-8.73.158-13.088-.012-.73-.029-1.416-1.165-2.122-1.789.691-.556,1.343-1.521,2.081-1.592C634.117,769.368,636.354,769.5,638.578,769.5Z" transform="translate(-13.731 -67.944)" fill="#fff"/>
    <path id="Path_4698" data-name="Path 4698" d="M639.57,868.735a50.943,50.943,0,0,1-5.911-.084c-.709-.085-1.31-1.084-1.96-1.666.679-.547,1.341-1.542,2.039-1.568,4.024-.15,8.06-.158,12.083.01.744.031,1.445,1.088,2.165,1.671-.749.547-1.456,1.476-2.257,1.565A55.176,55.176,0,0,1,639.57,868.735Z" transform="translate(-15.138 -140.219)" fill="#fff"/>
    <path id="Path_4699" data-name="Path 4699" d="M869.052,720.358c2.505-1.833,4.886-1.8,6.982.025,1.983,1.723,2.311,3.9.6,7.372a55.108,55.108,0,0,0-3.569-4.23A46.255,46.255,0,0,0,869.052,720.358Z" transform="translate(-194.107 -29.903)" fill="#fff"/>
    <path id="Path_4700" data-name="Path 4700" d="M714.026,727.1a5.023,5.023,0,0,1,1.1-6.82c1.828-1.565,4.329-1.586,6.579.056Z" transform="translate(-76.535 -29.982)" fill="#fff"/>
    <path id="Path_4701" data-name="Path 4701" d="M798.022,773.038c-.116,2.36-.314,4.557,1.933,6.421,1.575,1.306.948,4.131-.666,5.495a4.484,4.484,0,0,1-6.062-.155c-1.452-1.435-1.752-4.609-.1-5.824,1.619-1.193,1.468-2.573,1.479-4.1a28.333,28.333,0,0,1,.077-4.685c.163-.917.926-2.285,1.631-2.432,1.549-.323,1.716,1.084,1.711,2.314C798.019,771.06,798.022,772.049,798.022,773.038Z" transform="translate(-136.014 -66.631)" fill="#fff"/>
  </g>
</svg>
