<svg xmlns="http://www.w3.org/2000/svg" width="73.349" height="70.146" viewBox="0 0 73.349 70.146">
  <g id="Group_1963" data-name="Group 1963" transform="translate(-1230.123 -224.112)">
    <path id="Path_4702" data-name="Path 4702" d="M1314.325,345.51c-1.321,0-2.46.054-3.591-.012-1.819-.106-2.643-1.343-1.672-2.811a87.251,87.251,0,0,1,6.005-8.114c.376-.446,2.3-.3,2.845.236a87.873,87.873,0,0,1,6.221,6.989c1.32,1.608.625,3.256-1.462,3.08-3.286-.278-3.774,1.151-4.173,4.1a32.578,32.578,0,0,1-42.962,26.391,3.85,3.85,0,0,0-2.983.4c-3.668,2.506-7.927,2.476-11.169-.306a8.779,8.779,0,0,1,7.741-15.219,8.621,8.621,0,0,1,6.739,8.585c0,1.256.027,2.037,1.49,2.57,16.85,6.144,36.452-6.975,37.069-24.881A9.693,9.693,0,0,0,1314.325,345.51Zm-47.25,27.668a4.323,4.323,0,0,0,4.528-4.418,4.564,4.564,0,0,0-4.581-4.473,4.642,4.642,0,0,0-4.436,4.4A4.412,4.412,0,0,0,1267.075,373.177Z" transform="translate(-21.334 -83.346)" fill="#fff"/>
    <path id="Path_4703" data-name="Path 4703" d="M1340.138,313.546c1.366,1.763,2.753,3.581,4.17,5.374,1.135,1.436,1.587,3.185.439,4.527a6.385,6.385,0,0,1-3.867,1.936c-1.823.2-2.879-1.245-3.441-2.955-.688-2.094-1.435-4.168-2.142-6.208-9.852.384-15.141-2.653-17.107-9.733a13.626,13.626,0,0,1,6.638-15.517,13.78,13.78,0,0,1,16.631,3.05C1346.174,299.5,1345.783,305.757,1340.138,313.546Zm-8.885-20.918a10.375,10.375,0,0,0-10.421,10.229,10.381,10.381,0,1,0,20.76.041A10.273,10.273,0,0,0,1331.253,292.627Z" transform="translate(-66.245 -49.392)" fill="#fff"/>
    <path id="Path_4704" data-name="Path 4704" d="M1445.935,226.963c2-.489,2.79-4.452,5.285-2.124,2.774,2.588-1.33,3.63-1.907,5.493.661,1.857,4.548,2.884,2.016,5.377-2.554,2.515-3.432-1.6-5.411-2.074-1.686.615-2.661,4.31-5.079,2.014-2.591-2.458,1.305-3.522,1.88-5.368-.746-1.737-4.289-2.827-1.99-5.187C1443.094,222.665,1444.164,226.275,1445.935,226.963Z" transform="translate(-158.707 0)" fill="#fff"/>
    <path id="Path_4705" data-name="Path 4705" d="M1236.2,322.469c-1.83.719-2.923,4.276-5.272,1.931s1.23-3.436,1.9-5.209c-.589-1.839-4.429-2.956-1.782-5.394,2.344-2.159,3.273,1.358,5.275,2.085a10.208,10.208,0,0,1,2.341-2.1c.795-.379,2.445-.482,2.74-.047a3.636,3.636,0,0,1,.121,2.956c-.362.908-1.37,1.559-2.055,2.281.519,2.08,4.687,3.179,1.9,5.691C1239.131,326.668,1238.005,323.422,1236.2,322.469Z" transform="translate(0 -67.309)" fill="#fff"/>
  </g>
</svg>
