<svg xmlns="http://www.w3.org/2000/svg" width="62.872" height="62.655" viewBox="0 0 62.872 62.655">
  <g id="Group_1961" data-name="Group 1961" transform="translate(-1202.234 -659)">
    <path id="Path_4689" data-name="Path 4689" d="M1216.45,698.112v21.623c2.078,0,4.078-.06,6.07.039.548.027,1.073.526,1.607.809-.539.354-1.074,1.007-1.618,1.016-5.028.079-10.058.067-15.087.011-.463-.005-.92-.493-1.381-.756.449-.372.879-1.034,1.349-1.064,1.933-.122,3.879-.051,6.018-.051V708.585c-1.541,0-3.163,0-4.784,0-3.984,0-6.388-2.375-6.389-6.307q0-18.578,0-37.156a5.7,5.7,0,0,1,6.1-6.081c17.565,0,35.13.022,52.694-.04,1.6-.006,3.132.37,3.506,1.741a6.108,6.108,0,0,1-.43,4.44c-2.627,4.044-5.616,7.854-8.478,11.745a2.234,2.234,0,0,0-.07,3.038c2.984,3.975,5.937,7.976,8.792,12.044a3.815,3.815,0,0,1-2.779,6.077,16.737,16.737,0,0,1-2.025.026h-43.1Zm-12.3-1.7c2.816-.282,5.3-.735,7.782-.745,15.984-.065,31.968-.023,47.952-.063a9.652,9.652,0,0,0,2.448-.671,8.945,8.945,0,0,0-.791-2.606c-2.841-4.1-5.846-8.092-8.644-12.222a3.168,3.168,0,0,1-.234-2.823c2.813-4.187,5.863-8.215,8.746-12.357.555-.8,1.264-2.252.933-2.727a3.935,3.935,0,0,0-2.849-1.194c-5.476-.109-10.955-.053-16.433-.053q-16.434,0-32.868.009c-4.151.009-5.994,1.872-6.037,6.012-.027,2.626-.005,5.253-.005,7.879Zm9.342,1.72c-1.975,0-3.7-.107-5.4.027a4.11,4.11,0,0,0-3.608,4.13,3.83,3.83,0,0,0,3.582,3.879c1.764.136,3.546.028,5.431.028Z" fill="#fff"/>
    <path id="Path_4690" data-name="Path 4690" d="M1275.673,692.4c-1.459.271-2.389.5-3.333.6a16.376,16.376,0,0,0-2.46.084c-.516.14-1.215.758-1.249,1.207a1.8,1.8,0,0,0,1.01,1.417,19.733,19.733,0,0,0,3.11.31,3.97,3.97,0,0,1,3.57,3.883,4.092,4.092,0,0,1-3.849,3.689,22.227,22.227,0,0,1-3.819-.052c-.463-.063-.836-.782-1.25-1.2.428-.4.815-1.083,1.291-1.152,1.176-.17,2.419.087,3.583-.122.634-.113,1.161-.826,1.737-1.268-.547-.521-1.012-1.287-1.66-1.5a10.677,10.677,0,0,0-2.679-.1,3.648,3.648,0,0,1-3.681-3.7,3.582,3.582,0,0,1,3.584-3.773C1271.44,690.812,1273.636,689.7,1275.673,692.4Z" transform="translate(-42.927 -21.254)" fill="#fff"/>
    <path id="Path_4691" data-name="Path 4691" d="M1238.693,706.606V695.687a12.273,12.273,0,0,1-1.8,2.319c-.421.321-1.194.18-1.81.246.037-.577-.127-1.286.148-1.709,1.051-1.616,2.206-3.17,3.405-4.68.322-.406,1.135-.919,1.384-.78a2.2,2.2,0,0,1,1.021,1.5c.134,1.791.073,3.6.077,5.4.005,2.77,0,5.539,0,8.441a3.887,3.887,0,0,1,1.3.39,8.722,8.722,0,0,1,1.147,1.352c-.48.388-.931,1.059-1.446,1.112a20.687,20.687,0,0,1-4.49,0c-.575-.068-1.073-.792-1.607-1.217a14.394,14.394,0,0,1,1.516-1.3C1237.8,706.58,1238.226,706.655,1238.693,706.606Z" transform="translate(-22.103 -21.585)" fill="#fff"/>
    <path id="Path_4692" data-name="Path 4692" d="M1275.656,741.536c-2.474,0-4.955.109-7.416-.065-.745-.053-1.434-.889-2.149-1.366.685-.4,1.364-1.132,2.057-1.145q7.756-.145,15.514.01c.65.014,1.283.85,1.924,1.3-.687.421-1.355,1.164-2.063,1.2C1280.908,741.623,1278.28,741.535,1275.656,741.536Z" transform="translate(-42.992 -53.784)" fill="#fff"/>
    <path id="Path_4693" data-name="Path 4693" d="M1301.838,693.473c-1.088-.552-3.163-1.286-3.1-1.626.37-2.005,2.2-1.1,3.465-1.192a34.268,34.268,0,0,1,5.154.021c.555.044,1.064.672,1.594,1.033a5.814,5.814,0,0,1-1.526,1.227,9.891,9.891,0,0,1-2.5.157c0,2.763.086,5.432-.053,8.088a7.036,7.036,0,0,1-1.094,2.329c-.443-.823-1.213-1.624-1.268-2.472-.168-2.587-.061-5.191-.061-7.789Z" transform="translate(-64.97 -21.227)" fill="#fff"/>
    <path id="Path_4694" data-name="Path 4694" d="M1331.834,742.568c-.538-.963-1.057-1.492-1.046-2.01.007-.361.723-.957,1.154-.987.408-.028,1.266.671,1.217.832A10.706,10.706,0,0,1,1331.834,742.568Z" transform="translate(-86.548 -54.244)" fill="#fff"/>
  </g>
</svg>
