<svg xmlns="http://www.w3.org/2000/svg" width="78.116" height="78.325" viewBox="0 0 78.116 78.325">
  <g id="Group_1960" data-name="Group 1960" transform="translate(-872.004 -233.029)">
    <path id="Path_4687" data-name="Path 4687" d="M887.156,270.686c0-11.544,0-22.619,0-33.694,0-3.89.064-3.958,4.04-3.959q19.906-.008,39.811,0c3.774,0,3.9.131,3.9,3.826q.012,15.188,0,30.377v3.448c4.217,0,8.1-.08,11.976.051a12.014,12.014,0,0,1,3.232,1.07,11.672,11.672,0,0,1-1.544,2.8c-11.747,11.838-23.577,23.595-35.3,35.458-1.691,1.712-2.737,1.722-4.422.017-11.779-11.923-23.656-23.749-35.449-35.657a10.19,10.19,0,0,1-1.4-2.8,10.529,10.529,0,0,1,2.811-.893C878.8,270.628,882.791,270.686,887.156,270.686Zm23.688,35.992,32.924-32.657c-2.908,0-5.548.005-8.188,0-3.817-.01-3.906-.083-3.909-3.794q-.015-15.192-.012-30.385c0-1.1-.107-2.192-.165-3.29H890.451v3.2c0,10.32-.058,20.64.041,30.958.024,2.48-.788,3.476-3.3,3.345-2.879-.15-5.772-.035-9.173-.035Z" fill="#fff"/>
    <g id="Group_1959" data-name="Group 1959" transform="translate(900.861 248.186)">
      <path id="Path_4688" data-name="Path 4688" d="M954.925,301.342c1.21.448,2.363.942,3.556,1.3a11.725,11.725,0,0,0,5.38.438,5.354,5.354,0,0,0,1.617-.551,2.42,2.42,0,0,0,.6-3.938,6.435,6.435,0,0,0-2.38-1.473c-1.345-.534-2.714-1.009-4.051-1.56a12.586,12.586,0,0,1-3.462-2.112c-3.356-2.9-2.939-8.273.252-10.978a10.488,10.488,0,0,1,4.578-2.192c.139-.031.278-.065.469-.11v-4.258h4.429v3.951a16.515,16.515,0,0,1,6.584,1.5l-1.342,5.064c-.43-.184-.831-.36-1.235-.528a12.7,12.7,0,0,0-6.05-.972,5.151,5.151,0,0,0-1.931.556,2.089,2.089,0,0,0-.323,3.577,11.925,11.925,0,0,0,3.494,1.809,26.69,26.69,0,0,1,4.921,2.2,7.232,7.232,0,0,1,3.5,4.749,8.129,8.129,0,0,1-5.461,9.653,15.464,15.464,0,0,1-2,.547c-.288.062-.351.172-.349.439.011,1.254,0,2.508,0,3.762v.494h-4.448v-4.234c-.664-.072-1.284-.123-1.9-.209a18.435,18.435,0,0,1-5.431-1.565c-.265-.127-.358-.241-.271-.559.417-1.535.8-3.08,1.195-4.621C954.888,301.44,954.916,301.369,954.925,301.342Z" transform="translate(-953.643 -275.909)" fill="#fff"/>
    </g>
  </g>
</svg>
