<svg xmlns="http://www.w3.org/2000/svg" width="72.918" height="92.39" viewBox="0 0 72.918 92.39">
  <g id="Group_1964" data-name="Group 1964" transform="translate(-140.413 -195.711)">
    <path id="Path_4706" data-name="Path 4706" d="M213.91,298.249c.431,6.981.782,13.864,1.315,20.731.234,3.014-.394,5.448-3.11,7.094a5.7,5.7,0,0,1-6.64-.237c-2.649-1.8-2.948-4.414-2.672-7.325.638-6.747,1.18-13.5,1.777-20.439-7.935-2.058-13.971-6.335-17.49-13.617A24.107,24.107,0,0,1,185,268.069c2.912-12.335,13.511-20.311,25.994-19.6,11.69.665,21.688,9.857,23.1,21.239C235.784,283.341,228.6,293.65,213.91,298.249Zm-6.592-1.615c-.585,7.349-1.269,15.091-1.785,22.845-.215,3.229,1.3,4.972,3.734,4.813,2.169-.142,3.6-2.234,3.406-5.015-.479-6.874-.908-13.753-1.488-20.618-.171-2.026.286-2.973,2.467-3.391a22.265,22.265,0,0,0-7.459-43.893c-9.119,1.251-16.027,7.561-18.427,16.834-2.159,8.338,1.167,18.074,8.406,23C199.426,293.42,203.3,294.72,207.318,296.634Z" transform="translate(-32.471 -38.928)" fill="#fff"/>
    <path id="Path_4707" data-name="Path 4707" d="M364.5,252.534a39.585,39.585,0,0,1-4.45-2.268c-.714-.474-1.074-1.484-1.594-2.251l2.951-.825a30.956,30.956,0,0,0-10.587-13.172c-1.355-1-2.1-1.837-.173-3.246,6.426,3.765,10.606,9.558,13.886,16.446l1.794-2.569C368.709,245.944,368.008,248.854,364.5,252.534Z" transform="translate(-154.393 -25.892)" fill="#fff"/>
    <path id="Path_4708" data-name="Path 4708" d="M236.2,205.544l1.058-3.7a33.859,33.859,0,0,0-17.891,3.367c-1.661-1.846-1.708-2.563.564-3.161,4.819-1.268,9.75-2.121,14.653-3.048a21.649,21.649,0,0,1,3.73-.031l-1.346-2.343.357-.921c.891.263,2.109.242,2.622.833,4.013,4.624,3.974,4.663-.892,8.266-.545.4-1.133.748-1.7,1.121Z" transform="translate(-57.42)" fill="#fff"/>
    <path id="Path_4709" data-name="Path 4709" d="M151.346,255.3a34.51,34.51,0,0,0-5.868,17.319c-1.872.8-2.625.3-2.46-1.707a35.489,35.489,0,0,1,5.121-15.545c.549-.915,1.108-1.824,1.8-2.967L147,252.066c-.092-.386-.314-1.209-.288-1.217,2.425-.735,4.869-1.408,7.762-2.21.243,3.186.426,5.592.609,8l-.669.655Z" transform="translate(-1.907 -39.087)" fill="#fff"/>
    <path id="Path_4710" data-name="Path 4710" d="M146.386,384.109a32.562,32.562,0,0,0,10.092,13.081c1.472,1.13,1.825,1.922-.032,3.238-5.655-3.738-9.6-8.99-12.64-15.321l-1.856,2.279c-2.422-1.035-2-3.191,1.421-7.569,5.63,1.53,7,2.766,5.722,5.27Z" transform="translate(0 -135.961)" fill="#fff"/>
    <path id="Path_4711" data-name="Path 4711" d="M369.342,369.227l2.841,2.559c2.785-3.193,4.45-7.492,5.52-12.079a19.731,19.731,0,0,1,.623-3.168c.3-.713,1.112-1.209,1.7-1.8.326.774,1.033,1.611.918,2.313a35.833,35.833,0,0,1-5.8,15.31c-.334.47-.58,1-.949,1.65,1.249.512,3.81-.467,2.74,2.362a1.746,1.746,0,0,1-.5.273c-7.2,1.248-7.2,1.247-7.891-6.553Z" transform="translate(-168.473 -117.439)" fill="#fff"/>
    <path id="Path_4712" data-name="Path 4712" d="M242.426,301.858l-4.113,4.231c-2.182-.229-3.857-.731-5.379-.437-.863.167-1.861,1.543-2.111,2.545-.415,1.664-1.324,2.108-2.75,1.881-1.682-.268-3.922,1.111-4.886-1.418-1.443-3.789-2.9-4.337-6.459-2.287-.167.1-.348.169-1.034.5l-4.326-5.09c1.034-1.484,2.571-3.162.782-5.262a6.388,6.388,0,0,0-1.435-1.268c-.852-.534-2.433-.841-2.541-1.451a20.214,20.214,0,0,1,.036-5.57c.037-.348,1.069-.686,1.69-.862,2.61-.742,3.455-3.068,2.2-5.531-.37-.725-.356-2.365.09-2.656,1.6-1.047,2-4.344,5.064-2.823,3.082,1.531,4.856.64,5.861-2.545a2.687,2.687,0,0,1,1.864-1.608c2.536-.071,5.729-1.177,6.031,3.336.037.548,2.755,1.12,4.271,1.273.69.07,1.48-.855,2.513-1.511l3.9,4.179c-.2,2.208-.682,3.955-.385,5.558.159.858,1.7,1.422,2.532,2.206.666.626,1.776,1.454,1.7,2.068-.222,1.765,1.432,4.074-1.05,5.267C240.19,296.653,239.818,297.753,242.426,301.858Zm-3.188-21.944c-1.117-.217-2.126-.759-2.807-.485-2.917,1.174-7.037-.4-8.25-3.266a2.161,2.161,0,0,0-1.336-1.214,1.827,1.827,0,0,0-1.4.978c-1.549,3.624-5.644,5.069-9.986,2.762,0,1.388-.278,2.479.055,3.332.8,2.06-1.231,6.922-3.309,7.678-.592.215-1.513,1.017-1.43,1.3a2.983,2.983,0,0,0,1.424,1.762c2.361,1.016,4.193,5.5,3.255,7.844-.308.769.069,1.814.155,3.044,4.377-2.379,7.717-1.143,10.029,2.888.327.57,1.48.665,2.315,1.006,1.021-4.581,5.664-6.506,10.344-3.915,0-1.375.269-2.4-.049-3.187-1.035-2.561.818-6.876,3.513-7.99.515-.213,1.264-.931,1.191-1.258a3.4,3.4,0,0,0-1.256-1.581c-.757-.624-1.929-.944-2.369-1.712a34.456,34.456,0,0,1-1.931-4.791Z" transform="translate(-49.907 -56.366)" fill="#fff"/>
    <path id="Path_4713" data-name="Path 4713" d="M247.5,320.521a8.533,8.533,0,0,1,8.347-8.559,8.992,8.992,0,0,1,8.8,8.584A8.705,8.705,0,0,1,256,329.184,8.4,8.4,0,0,1,247.5,320.521Zm14.351.15a5.736,5.736,0,0,0-5.993-5.886,5.869,5.869,0,0,0-5.84,5.8,6.269,6.269,0,0,0,6.079,6.015A6.044,6.044,0,0,0,261.847,320.671Z" transform="translate(-79.079 -85.85)" fill="#fff"/>
  </g>
</svg>
