<?xml version="1.0" encoding="utf-8"?>
<!-- Generator: Adobe Illustrator 23.0.2, SVG Export Plug-In . SVG Version: 6.00 Build 0)  -->
<svg version="1.1" id="Layer_1" xmlns="http://www.w3.org/2000/svg" xmlns:xlink="http://www.w3.org/1999/xlink" x="0px" y="0px"
	 viewBox="0 0 830 813.4" style="enable-background:new 0 0 830 813.4;" xml:space="preserve">
<style type="text/css">
	.st0{fill:#818182;}
	.st1{fill:#FFFFFF;}
	.st2{fill:red;}
	.st3{fill:red;}
	.st4{fill:red;}
	.st5{fill:#494949;}
	.st6{fill:#4C4C4C;}
</style>
<g id="Our_values_define_us" transform="translate(-21737.001 -5106.44)">
	<path id="Path_38848" class="st0" d="M22065.9,5193.6l2.4,28.7l13.2-15.6L22065.9,5193.6z"/>
	<path class="st1" d="M22547.3,5664.9c-13.1-76.1-44.5-131.8-93.4-165.5c-38.2-26.3-80-33.9-108.4-35.6c-30.7-1.9-52.8,2.5-53,2.6
		l0.6,2.9c0.9-0.2,87.1-17,159.1,32.6c48.2,33.2,79.2,88.2,92.1,163.5l-20.1,3l24.6,18.2l18.2-24.6L22547.3,5664.9z"/>
	<g>
		<path class="st1" d="M22079.6,5106.4c-41.3,0.9-74.2,13.9-97.6,38.5c-31.5,33.1-37.1,78.7-38.1,96l-19.7,0.2l21.8,21.4l21.5-21.8
			l-21.5,0.2c1-17.1,6.5-62,37.5-94.6c23-24.2,55.4-36.9,96.2-37.9L22079.6,5106.4z"/>
		<path class="st1" d="M21846.5,5338c-23,12.7-42.1,29.6-56.8,50.4c-15.3,21.6-25.7,47.4-31.2,76.9l-21.4-1.3l20.2,22.9l22.9-20.2
			l-19.2-1.2c13.3-70.9,53.7-107.1,86.6-125.2c38.7-21.3,75.6-22.9,76-23l-0.1-2.5C21923.1,5314.8,21885.6,5316.4,21846.5,5338z"/>
	</g>
	<path id="Path_38827" class="st2" d="M22204.1,5244.5v-1c-0.1-0.7-0.2-1.4-0.3-2.1c-0.3-1.5-0.5-3.1-0.5-3.1v0c0-0.1,0-0.3,0-0.4
		v0.4l-0.6-3l-0.4-2.1c0-0.3-0.1-0.7-0.3-0.9c0,0,4.6-2.7,9.1-5.6c4.5-3,8.9-6.2,8.9-6.2s-0.3-0.9-0.7-2.2l-0.7-2.2
		c-0.3-0.8-0.6-1.7-0.9-2.6c-0.6-1.7-1.3-3.6-1.8-4.7l-0.9-2.1l-3.4,0.3c-2.5,0.1-4.9,0.4-7.4,0.8c-5.4,0.6-10.8,1.6-10.8,1.6
		l-0.4-0.9l-1-1.9l-1.5-2.7v0.4c-0.1-0.2-0.3-0.5-0.4-0.7l0.3,0.3l-0.5-0.8l-1.1-1.8l-1.1-1.8l-0.5-0.8c0,0,3.4-4.1,6.6-8.4
		c1.6-2.2,3.2-4.4,4.3-6.1l1.9-2.8l-1.4-1.8c-0.8-1.1-2-2.5-3.2-3.9l-1.7-2.1l-1.6-1.7l-1.6-1.7l-3.1,1.4c-1.8,0.8-4.3,2-6.7,3.2
		c-4.8,2.4-9.4,5.1-9.4,5.1l-0.7-0.6l-1.6-1.4l-1.6-1.4l-0.7-0.6l0.2,0.3l-0.6-0.5l0.4,0.2l-2.4-1.9c-0.5-0.5-1.1-0.9-1.7-1.3
		l-0.8-0.6c0,0,1.8-5,3.3-10.2c1.5-5.2,2.8-10.4,2.8-10.4l-1.9-1.3l-4.4-2.6c-1.5-1-3.2-1.8-4.4-2.4l-2-1c0,0-4,3.6-7.7,7.7
		c-1.8,1.9-3.6,3.9-4.9,5.5l-2.2,2.6l-2.8-1.2l-2-0.8l-0.9-0.3h0.3l-0.7-0.2h0.4l-2.9-1l-2.9-0.9v-3.3c0-2.5-0.1-4.9-0.3-7.4
		c-0.3-5.4-0.9-10.8-0.9-10.8s-0.9-0.3-2.3-0.5l-4.6-0.9l-5-0.8l-1.7-0.2h-0.6c0,0-2.4,4.9-4.5,9.9c-1.1,2.4-2,5-2.8,6.9l-1.2,3.2
		h-12.5c0,0-1.8-5.1-4-10s-4.6-9.9-4.6-9.9l-2.3,0.3l-5,0.8l-4.9,1l-2.2,0.5c0,0-0.6,5.5-0.9,10.8c-0.3,5.3-0.3,10.8-0.3,10.8
		l-2.9,0.9c-0.8,0.2-1.5,0.5-2,0.7l-0.9,0.4h0.4l-0.7,0.3h0.3l-2.9,1l-2.8,1.2l-2.2-2.6c-1.3-1.5-3.1-3.6-5-5.5
		c-3.6-3.9-7.7-7.7-7.7-7.7l-0.6,0.3c-0.4,0-0.9,0.4-1.5,0.8l-4.4,2.4l-4.3,2.6c-1.2,0.7-1.9,1.3-1.9,1.3s1.3,5.3,2.9,10.5
		c0.8,2.6,1.6,5.1,2.3,7.2l1.1,3.2l-2.4,1.9l-2.3,2l0.3-0.2l-0.6,0.5l0.3-0.3l-0.8,0.6c-0.4,0.4-1,0.8-1.6,1.4l-2.3,2.1l-2.9-1.7
		c-1.8-1-4.1-2.2-6.5-3.4c-4.8-2.4-9.9-4.6-9.9-4.6l-1.5,1.7c-0.9,1-2.2,2.3-3.3,3.8l-3.2,4l-1.3,1.8c0,0,3,4.5,6.2,8.8
		c3.2,4.3,6.7,8.4,6.7,8.4l-0.5,0.8c-0.3,0.5-0.7,1.1-1.1,1.8l-1.6,2.6l0.3-0.3l-0.4,0.6v-0.3l-0.5,0.8l-1,1.9l-1,1.9l-0.4,0.9
		c0,0-5.2-0.9-10.6-1.5c-2.7-0.3-5.4-0.6-7.4-0.7l-3.4-0.2l-0.9,2.1l-0.9,2.2c-0.3,0.8-0.6,1.7-0.9,2.6c-0.6,1.7-1.3,3.6-1.6,4.8
		l-0.7,2.2l2.8,2c1.6,1.2,3.9,2.7,6.2,4.2c4.5,2.9,9.1,5.6,9.1,5.6l-0.2,0.9c-0.1,0.7-0.2,1.4-0.4,2.1l-0.4,2l-0.2,0.9l0,0
		c0,0-0.2,1.5-0.5,3.1c0,0.7-0.1,1.4-0.3,2.1v1c0,0-5.3,0.9-10.5,2.2c-2.7,0.6-5.3,1.3-7.2,1.9l-3.3,0.9v14.7c0,0,5.2,1.5,10.5,2.7
		s10.5,2.1,10.5,2.1c0,0.3,0,0.6,0,1c0.1,0.7,0.2,1.4,0.3,2.1l0.5,3.1l0,0l0.6,3c0.1,0.7,0.2,1.4,0.4,2.1c0.1,0.5,0.2,0.9,0.2,0.9
		s-4.6,2.7-9.1,5.7c-4.5,3-8.9,6.2-8.9,6.2l0.7,2.2l0.7,2.2c0.3,0.8,0.6,1.7,0.9,2.6c0.6,1.7,1.3,3.6,1.8,4.7l0.9,2.1l3.4-0.2
		c2.5-0.1,5-0.4,7.4-0.8c5.4-0.6,10.8-1.6,10.8-1.6l0.4,0.9c0.3,0.5,0.6,1.2,1,1.9c0.8,1.3,1.5,2.7,1.5,2.7v-0.4
		c0,0.3,0.3,0.5,0.4,0.7l-0.3-0.3l0.5,0.8l1.1,1.8l1.1,1.8l0.5,0.8c-2.4,2.7-4.6,5.5-6.7,8.5c-1.6,2.2-3.2,4.4-4.3,6l-1.9,2.8
		l1.4,1.8c0.8,1.1,2,2.5,3.2,3.9l1.7,2l1.6,1.7l1.5,1.7l3.1-1.4c1.8-0.9,4.3-2.1,6.7-3.3c4.9-2.4,9.4-5.1,9.4-5.1l0.7,0.6l1.6,1.4
		l1.6,1.4l0.8,0.6l-0.2-0.3l0.5,0.5l-0.3-0.2l2.4,1.9l1.7,1.3l0.8,0.6c0,0-1.8,5-3.4,10.2c-1.5,5.2-2.8,10.5-2.8,10.5l1.9,1.3
		l4.4,2.6c1.6,0.9,3.2,1.7,4.4,2.4l2.1,1c0,0,4-3.6,7.6-7.7c1.8-2,3.6-4,4.9-5.5c1.3-1.5,2.2-2.6,2.2-2.6l2.8,1.2
		c0.7,0.3,1.4,0.5,2,0.8l0.9,0.3h-0.3l0.7,0.2h-0.4l2.9,1l2.9,0.9v3.4c0,2.4,0.1,4.8,0.3,7.2c0.3,5.4,0.9,10.8,0.9,10.8
		s0.9,0.3,2.2,0.5l5,1l5,0.8l1.7,0.2h0.6c0,0,2.4-4.9,4.5-9.9c1-2.4,2-5,2.7-6.9l1.2-3.1h12.1c0,0,1.9,5.1,4,10
		c2.2,4.9,4.6,9.8,4.6,9.8c0.8,0,1.5-0.1,2.3-0.3l5-0.8l4.9-1c1.4-0.3,2.3-0.5,2.3-0.5s0.6-5.5,0.9-10.8c0.3-5.3,0.3-10.8,0.3-10.8
		l2.9-0.9l2-0.7l0.9-0.4h-0.4l0.8-0.3h-0.3l2.9-1l2.8-1.2l2.2,2.6c1.3,1.5,3.1,3.6,5,5.5c3.6,3.9,7.7,7.7,7.7,7.7l0.6-0.3l1.5-0.8
		l4.4-2.4l4.3-2.6c1.2-0.7,1.9-1.3,1.9-1.3s-1.3-5.3-2.9-10.5c-0.8-2.6-1.6-5.1-2.3-7.2c-0.7-2.1-1.1-3.2-1.1-3.2l2.4-1.9l2.4-1.9
		l-0.3,0.2l0.5-0.5l-0.2,0.3l0.7-0.6c0.4-0.4,1-0.8,1.6-1.4l2.3-2.1l2.9,1.6c1.8,1,4.1,2.2,6.5,3.4c4.8,2.4,9.9,4.6,9.9,4.6l1.5-1.7
		c0.9-1,2.2-2.4,3.3-3.8l3.2-3.9l1.4-1.9c0,0-3-4.5-6.3-8.8c-3.2-4.3-6.7-8.4-6.7-8.4l0.5-0.8c0.3-0.5,0.8-1.1,1.1-1.8l1.6-2.7
		l-0.3,0.3l0.4-0.6v0.3l0.5-0.8l1-1.9l1-1.9l0.4-0.9c0,0,5.3,0.9,10.8,1.5c2.7,0.3,5.4,0.6,7.4,0.7l3.3,0.3l0.9-2.1l0.9-2.2
		c0.3-0.8,0.6-1.7,0.9-2.5c0.6-1.8,1.3-3.6,1.6-4.8l0.7-2.2l-2.7-2c-1.7-1.2-3.9-2.7-6.2-4.2c-4.5-2.9-9.1-5.6-9.1-5.6
		c0-0.3,0.1-0.6,0.2-0.9c0.2-0.7,0.3-1.4,0.4-2l0.4-2.1c0.1-0.3,0.1-0.6,0.2-0.9l0,0c0,0,0.3-1.5,0.5-3.1c0.1-0.7,0.2-1.4,0.3-2.1
		v-1c0,0,5.3-0.9,10.5-2.2c2.6-0.6,5.3-1.3,7.2-1.9l3.2-0.9v-14.7c0,0-5.2-1.5-10.5-2.7
		C22209.3,5245.3,22204.1,5244.5,22204.1,5244.5z M22084.8,5176.9c10.6-1.9,20.8,5.1,22.7,15.8c1.9,10.6-5.2,20.8-15.8,22.7
		c-10.6,1.9-20.8-5.1-22.7-15.8c0,0,0,0,0,0C22067.1,5189,22074.2,5178.8,22084.8,5176.9z M22035.3,5268c16.5,0,29.9-13.5,29.9-30
		c-0.1-16.5-13.5-29.9-30-29.9c-16.5,0-29.9,13.5-29.9,30c0,16.5,13.4,29.8,29.9,29.9H22035.3z M22089.9,5321.3
		c8.1,0,14.6-6.6,14.5-14.7c0-8.1-6.6-14.6-14.7-14.5c-8.1,0-14.6,6.6-14.5,14.7c0.1,8,6.5,14.5,14.5,14.5H22089.9z M22102.1,5273.1
		c6.4,0,11.6-5.3,11.6-11.7c0-6.4-5.3-11.6-11.7-11.6c-6.4,0-11.6,5.3-11.6,11.7c0,6.4,5.2,11.5,11.6,11.6H22102.1z M22157.9,5313.4
		c4.4,0,8-3.7,7.9-8.1c0-4.4-3.7-8-8.1-7.9s-8,3.7-7.9,8.1c0,4.4,3.6,7.9,7.9,7.9H22157.9z M22163,5245.1c5.4,0,9.7-4.4,9.6-9.8
		c0-5.4-4.4-9.7-9.8-9.6c-5.4,0-9.7,4.4-9.6,9.8c0,5.3,4.3,9.6,9.6,9.6H22163z"/>
	<path id="Path_38826" class="st3" d="M22518,5706.7c-2.9-1.1-6.3-2.2-9.5-3.2c-3.2-1-6.6-2.1-9.5-3.2l-1.1-0.4v-1.2
		c-0.3-5.8-0.8-11-1.5-15.9l-0.2-1.2l1-0.6c2.8-1.7,5.8-3.6,8.9-5.2s5.9-3.3,8.5-4.9c-0.7-3.8-1.4-7.2-2.3-10.8
		c-3.1-0.4-6.6-0.7-10-1c-3.4-0.3-6.9-0.6-10-1h-1.2l-0.3-1.2c-1.4-4.9-3.2-10-5.2-15.1l-0.4-1.1l0.8-0.8c2.3-2.3,4.9-4.7,7.5-7.2
		c2.6-2.5,5-4.6,7.2-6.7c-1.5-3.3-3-6.7-4.6-9.9c-3.1,0.3-6.6,0.8-9.9,1.2s-6.9,1-10,1.3h-1.2l-0.6-1c-2.7-4.8-5.5-9.4-8.4-13.7
		l-0.6-1l0.6-1c1.7-2.7,3.6-5.6,5.8-8.5c2.2-2.9,3.8-5.6,5.5-8.2c-2-2.7-4.2-5.4-6.8-8.6c-2.9,1-6.2,2.2-9.3,3.4s-6.6,2.5-9.6,3.6
		l-1.1,0.4l-0.8-0.9c-3.6-4-7.2-7.8-11.2-11.5l-0.9-0.8l0.4-1.1c1.1-3,2.4-6.3,3.6-9.5c1.2-3.2,2.6-6.3,3.6-9.2
		c-3.1-2.7-5.8-4.9-8.5-7c-2.6,1.6-5.5,3.6-8.3,5.4c-2.8,1.8-5.9,3.9-8.6,5.5l-1,0.6l-1-0.7c-4.2-3-8.8-5.9-13.5-8.6l-1-0.6v-1.2
		c0.4-3.2,0.9-6.6,1.5-10.1c0.6-3.5,1.1-6.8,1.4-9.9c-3.2-1.7-6.5-3.3-9.8-4.9c-2.2,2.2-4.5,4.6-6.8,7.2c-2.3,2.5-4.7,4.9-7.2,7.2
		l-0.9,0.8l-1.1-0.4c-5.1-2.1-10.2-4-15-5.5l-1.2-0.4v-1.2c-0.4-3.1-0.6-6.6-0.8-10c-0.3-3.5-0.5-6.9-0.8-10
		c-3.3-0.9-6.8-1.7-10.8-2.5c-1.7,2.6-3.4,5.5-5.1,8.3c-1.7,2.8-3.6,6.1-5.4,8.8l-0.6,1h-1.2c-4.9-0.8-10.1-1.4-15.9-1.9h-1.2
		l-0.4-1.1c-1-3-2-6.3-3-9.6c-1-3.3-2-6.6-3-9.6l0,0c-3.6,0-7.2-0.2-10.8,0l0,0c-1.1,2.9-2.2,6.3-3.2,9.6s-2.1,6.5-3.2,9.5l-0.4,1.1
		h-1.2c-5.8,0.3-11,0.8-16,1.5h-1.2l-0.6-1c-1.7-2.8-3.6-5.9-5.2-9c-1.6-3.1-3.3-5.8-4.9-8.4c-3.8,0.7-7.2,1.5-10.8,2.3
		c-0.4,3.1-0.7,6.6-1,10c-0.3,3.4-0.6,6.9-1,10.1v1.2l-1.2,0.3c-4.9,1.4-10,3.2-15.2,5.2l-1.1,0.4l-0.8-0.8
		c-2.3-2.3-4.7-4.9-7.2-7.6c-2.5-2.6-4.6-4.9-6.7-7.2c-3.3,1.4-6.7,3-9.9,4.6c0.3,3.1,0.8,6.5,1.3,9.9c0.5,3.3,0.9,6.9,1.3,10.1v1.2
		l-1,0.6c-4.8,2.7-9.4,5.5-13.7,8.4l-1,0.6l-1-0.6c-2.7-1.7-5.6-3.6-8.5-5.7c-2.9-2.1-5.6-3.9-8.2-5.5c-2.7,2-5.4,4.2-8.6,6.8
		c1,2.9,2.2,6.2,3.4,9.3c1.2,3.1,2.4,6.5,3.6,9.6l0.4,1.2l-0.9,0.8c-4,3.5-7.8,7.3-11.4,11.2l-0.8,0.9l-1.1-0.4
		c-3-1.1-6.2-2.4-9.5-3.6c-3.2-1.2-6.3-2.5-9.3-3.6c-2.7,3.1-4.9,5.8-6.9,8.5c1.6,2.7,3.6,5.5,5.4,8.3s3.9,5.9,5.5,8.6l0.6,1l-0.7,1
		c-3,4.2-5.9,8.7-8.7,13.5l-0.6,1h-1.2c-3.1-0.4-6.5-0.9-10-1.5c-3.5-0.5-6.8-1.1-9.9-1.5c-1.7,3.2-3.3,6.5-4.9,9.8
		c2.1,2.2,4.6,4.6,7,6.9c2.4,2.3,5.1,4.9,7.4,7.2l0.8,0.9l-0.5,1.1c-2.1,5.1-4,10.2-5.5,15.1l-0.3,1.1l-1.2-6.7
		c-3.1,0.3-6.6,0.6-10.1,0.8c-3.5,0.2-6.9,0.5-10,0.8c-0.9,3.4-1.7,13.7-2.5,17.5c2.6,1.7,5.5,3.4,8.3,5.1c2.8,1.7,6.1,3.6,8.8,5.4
		l1,0.6l-0.2,1.2c-0.8,5-1.4,10.1-1.9,15.9v1.2l-1.1,0.4c-3,1-6.3,2-9.6,3s-6.6,2-9.6,3v0.3c0,1.7,0,3.5-0.2,5.2
		c-0.1,1.7-0.1,3.5,0,5.2v0.3c3,1.1,6.3,2.2,9.6,3.2c3.2,1,6.6,2.1,9.5,3.2l1.1,0.4v1.2c0.4,5.8,0.9,10.8,1.6,15.9v1.2l-1,0.6
		c-2.7,1.7-5.8,3.6-8.9,5.2s-5.9,3.3-8.5,4.9c0.7,3.6,1.5,7.2,2.3,10.8c3.1,0.4,6.6,0.7,9.9,1c3.3,0.3,6.9,0.6,10.1,1h1.2l0.3,1.1
		c1.4,4.9,3.2,10,5.1,15.2l0.4,1.1l-0.8,0.8c-2.3,2.3-4.9,4.7-7.6,7.2c-2.6,2.5-5,4.6-7.2,6.7c1.5,3.4,3,6.7,4.6,9.9
		c3.1-0.3,6.6-0.8,10-1.3c3.4-0.5,6.9-0.9,10-1.2h1.2l0.6,1c2.7,4.8,5.5,9.4,8.3,13.7l0.7,1l-0.6,1c-1.7,2.7-3.6,5.6-5.7,8.5
		s-3.9,5.6-5.5,8.2c2,2.7,4.2,5.4,6.8,8.6c2.9-1,6.2-2.2,9.3-3.4c3.1-1.2,6.6-2.5,9.6-3.6l1.1-0.4l0.8,0.9c3.6,4,7.2,7.8,11.2,11.5
		l0.9,0.8l-0.4,1.1c-1.1,3-2.4,6.3-3.6,9.5c-1.2,3.2-2.6,6.3-3.6,9.2c3.1,2.7,5.8,4.9,8.4,7c2.7-1.6,5.5-3.6,8.3-5.4
		c2.8-1.8,5.9-3.9,8.6-5.5l1-0.6l1,0.7c4.3,3,8.8,5.9,13.5,8.7l1,0.6v1.2c-0.4,3.2-0.9,6.6-1.5,10.1c-0.5,3.5-1.1,6.7-1.5,9.8
		c3.2,1.7,6.5,3.3,9.8,4.9c2.2-2.2,4.6-4.6,6.9-7.2c2.3-2.6,4.9-5.1,7.2-7.2l0.9-0.8l1.1,0.4c5.1,2.1,10.2,4,15,5.5l1.2,0.4v1.2
		c0.3,3.2,0.6,6.6,0.8,10.1c0.2,3.5,0.5,6.9,0.8,10c3.3,0.9,6.8,1.7,10.8,2.5c1.7-2.6,3.4-5.5,5.1-8.3c1.7-2.8,3.6-6.1,5.4-8.8
		l0.6-1l1.2,0.2c4.9,0.8,10.1,1.4,15.9,1.9h1.2l0.4,1.2c1,2.9,2,6.3,3,9.6c1,3.3,2,6.6,3,9.6l0,0c3.6,0,7.2,0.2,10.8,0l0,0
		c1.1-3,2.2-6.3,3.2-9.6c1-3.3,2.2-6.5,3.2-9.5l0.4-1.1h1.2c5.8-0.3,11-0.9,15.9-1.5h1.2l0.6,1c1.7,2.7,3.6,5.8,5.2,8.9
		c1.6,3.1,3.3,5.8,4.9,8.5c3.8-0.7,7.2-1.5,10.8-2.3c0.4-3.1,0.7-6.6,1-9.9c0.3-3.3,0.6-6.9,1-10.1v-1.1l1.2-0.4
		c4.9-1.4,10-3.2,15.2-5.1l1.1-0.4l0.9,0.9c2.3,2.3,4.6,4.9,7.2,7.5s4.5,5,6.7,7.2c3.3-1.5,6.7-3,9.9-4.6c-0.3-3.1-0.8-6.5-1.2-9.9
		c-0.5-3.3-0.9-6.9-1.3-10.1v-1.2l1-0.6c4.8-2.7,9.4-5.5,13.6-8.4l1-0.6l1,0.6c2.7,1.7,5.6,3.6,8.6,5.8c2.9,2.2,5.6,3.8,8.2,5.5
		c2.7-2,5.4-4.2,8.6-6.8c-1-2.9-2.2-6.2-3.4-9.4c-1.2-3.2-2.5-6.5-3.6-9.5l-0.4-1.1l0.9-0.8c3.9-3.6,7.8-7.2,11.5-11.2l0.8-0.9
		l1.1,0.4c3,1.1,6.2,2.4,9.5,3.6c3.3,1.2,6.3,2.5,9.2,3.6c2.7-3.1,4.9-5.8,7-8.5c-1.6-2.7-3.6-5.5-5.3-8.3s-3.9-5.9-5.6-8.7l-0.6-1
		l0.7-1c3-4.2,5.9-8.8,8.7-13.5l0.6-1h1.2c3.2,0.4,6.6,0.9,10,1.5c3.5,0.5,6.8,1.1,9.9,1.5c1.7-3.2,3.3-6.5,4.9-9.8
		c-2.2-2.2-4.6-4.6-7-6.9c-2.4-2.3-5.1-4.9-7.4-7.2l-0.8-0.9l0.5-1.1c2.1-5.1,4-10.2,5.5-15.1l0.4-1.2h1.2c3.2-0.3,6.6-0.6,10.1-0.8
		c3.5-0.2,6.9-0.5,10-0.8c0.9-3.4,1.7-6.9,2.5-10.8c-2.6-1.7-5.5-3.4-8.3-5.1c-2.8-1.7-6.1-3.6-8.8-5.4l-1-0.6l0.2-1.2
		c0.8-4.9,1.4-10.1,1.9-15.9v-1.2l1.1-0.4c3-1,6.3-2,9.6-3c3.3-1,6.6-2,9.6-3v-0.3c0-1.8,0.2-3.6,0.2-5.3v-5.3L22518,5706.7z
		 M22320.4,5653.5c2.3-23.7,6.9-47.2,13.7-70l0.5-1.6l1.7,0.4c16.2,3.5,31.6,10.2,45.4,19.5l1.4,0.9l-0.8,1.4
		c-11.3,21-25.2,40.6-41.3,58.3l-1,1.1l-1.3-0.8c-5.2-3.3-10.8-5.7-16.8-7.2l-1.5-0.4L22320.4,5653.5z M22237.7,5599.8
		c14-9,29.5-15.2,45.9-18.3l1.6-0.3l0.5,1.6c6.8,22.9,10.9,46.5,12,70.4v1.5l-1.5,0.3c-6,1.3-11.7,3.6-16.9,6.7l-1.4,0.8l-1-1.2
		c-15.2-18.4-28.6-38.2-39.9-59.1l-0.8-1.5L22237.7,5599.8z M22180.5,5681.9c3.5-16.2,10.2-31.6,19.5-45.4l0.9-1.4l1.4,0.8
		c21,11.3,40.6,25.2,58.3,41.3l1.2,1l-0.8,1.3c-3.3,5.2-5.7,10.9-7.2,16.8l-0.4,1.5h-1.5c-23.7-2.3-47.2-6.9-70.1-13.7l-1.6-0.5
		L22180.5,5681.9z M22200.5,5781l-1.5,0.8l-0.9-1.4c-9-14-15.2-29.6-18.3-45.9l-0.3-1.6l1.5-0.4c22.9-6.9,46.5-10.9,70.4-12.1h1.5
		l0.3,1.5c1.3,6,3.6,11.7,6.7,16.9l0.8,1.3l-1.2,1C22241.3,5756.3,22221.5,5769.7,22200.5,5781L22200.5,5781z M22296,5766.3
		c-2.3,23.7-6.9,47.2-13.7,70.1l-0.5,1.6l-1.7-0.4c-16.2-3.6-31.6-10.2-45.4-19.5l-1.3-0.9l0.8-1.4c11.3-21,25.2-40.6,41.2-58.3
		l1-1.1l1.3,0.8c5.2,3.3,10.8,5.7,16.8,7.2l1.5,0.4L22296,5766.3z M22307.7,5750.4c-22.9,0-41.5-18.6-41.5-41.6
		c0-22.9,18.6-41.5,41.6-41.5c22.9,0,41.5,18.6,41.5,41.6C22349.3,5731.8,22330.7,5750.4,22307.7,5750.4L22307.7,5750.4z
		 M22378.7,5820c-14,9-29.5,15.2-45.9,18.3l-1.6,0.3l-0.5-1.5c-6.9-22.9-10.9-46.5-12-70.4v-1.5l1.5-0.3c6-1.3,11.7-3.6,16.9-6.7
		l1.3-0.8l1,1.2c15.2,18.4,28.5,38.2,39.9,59.1l0.8,1.5L22378.7,5820z M22435.9,5737.9c-3.5,16.2-10.2,31.6-19.5,45.4l-0.9,1.4
		l-1.5-0.8c-21-11.3-40.6-25.2-58.3-41.3l-1.1-1l0.8-1.3c3.3-5.2,5.7-10.9,7.2-16.8l0.4-1.5h1.5c23.7,2.3,47.2,6.9,70,13.7l1.6,0.5
		L22435.9,5737.9z M22435.3,5687.4c-22.9,6.9-46.5,10.9-70.4,12.1h-1.5l-0.3-1.5c-1.3-6-3.5-11.7-6.7-16.9l-0.8-1.3l1.2-1
		c18.4-15.2,38.2-28.6,59.1-39.9l1.5-0.8l0.9,1.4c9,14,15.2,29.5,18.3,45.9l0.3,1.6L22435.3,5687.4z"/>
	<path id="Path_38828" class="st4" d="M22180.2,5523.3c-2.8-1-6-2-9.1-2.9c-3.1-1-6.3-1.9-9.1-2.9l-1-0.4v-1.2
		c-0.4-5.5-0.9-10.4-1.7-15.1v-1.1l0.9-0.6c2.6-1.6,5.5-3.3,8.3-5s5.5-3.2,8-4.7c-0.7-3.6-1.5-6.9-2.3-10.1c-3-0.4-6.3-0.6-9.5-0.9
		c-3.2-0.3-6.5-0.5-9.5-0.9h-1.1l-0.3-1.1c-1.4-4.7-3.1-9.5-5-14.4l-0.4-1l0.8-0.8c2.2-2.2,4.6-4.5,7.2-6.7c2.6-2.3,4.7-4.4,6.7-6.4
		c-1.4-3.2-2.9-6.3-4.5-9.3c-2.9,0.3-6.2,0.8-9.4,1.3c-3.2,0.5-6.5,1-9.5,1.3h-1.1l-0.5-1c-2.6-4.5-5.3-8.8-8.1-12.8l-0.6-0.9l0.6-1
		c1.6-2.6,3.6-5.3,5.4-8.1s3.6-5.3,5.1-7.8c-1.9-2.5-4-5.1-6.5-8.1c-2.7,0.9-5.8,2.1-8.7,3.3c-2.9,1.2-6.2,2.4-9.1,3.4l-1.1,0.4
		l-0.8-0.8c-3.4-3.6-7-7.2-10.8-10.8l-0.8-0.8l0.4-1c1-2.9,2.2-6,3.6-9.1c1.4-3.1,2.3-6,3.3-8.7c-2.9-2.5-5.5-4.6-8.1-6.5
		c-2.5,1.5-5.2,3.4-7.8,5.1c-2.6,1.8-5.5,3.6-8.1,5.4l-0.9,0.6l-0.9-0.6c-4-2.8-8.3-5.5-12.8-8.1l-1-0.6v-1.1c0.4-3,0.8-6.3,1.3-9.5
		s0.9-6.4,1.3-9.3c-3.1-1.6-6.2-3.1-9.3-4.5c-2.1,2-4.3,4.4-6.4,6.7c-2.1,2.3-4.6,4.9-6.8,7.2l-0.8,0.8l-1-0.4
		c-4.9-1.9-9.6-3.6-14.4-5l-1.1-0.3v-1.1c-0.3-2.9-0.6-6.2-0.9-9.5c-0.2-2.8-0.4-5.5-0.7-8.4c0-0.1-0.1-0.6-0.1-1
		c-3.2-0.8-6.5-1.5-10.1-2.3c-1.5,2.4-3.2,5.2-4.7,7.9c-1.5,2.7-3.4,5.8-5,8.4l-0.6,0.9h-1.1c-4.6-0.7-9.6-1.3-15.1-1.6h-1.1l-0.4-1
		c-1-2.8-1.9-5.9-2.9-9.1c-1-3.1-2-6.2-3-9l0,0c-3.4-0.1-6.8-0.1-10.3,0l0,0c-1,2.8-2,6-3,9.1c-1,3.1-1.9,6.2-2.9,9l-0.4,1h-1.1
		c-5.5,0.4-10.4,0.9-15.1,1.6h-1.1l-0.6-0.9c-1.7-2.6-3.3-5.5-5-8.4s-3.2-5.5-4.7-7.9c-3.6,0.7-6.9,1.4-10.1,2.3
		c-0.4,2.9-0.6,6.2-0.9,9.4c-0.3,3.2-0.5,6.6-0.9,9.5v1.1l-1,0.3c-4.6,1.4-9.5,3.1-14.4,5l-1,0.4l-0.8-0.8c-2.2-2.2-4.5-4.6-6.8-7.2
		c-2.3-2.6-4.4-4.6-6.4-6.7c-3.2,1.4-6.3,2.9-9.4,4.5c0.3,2.9,0.8,6.2,1.3,9.3c0.5,3.2,1,6.5,1.3,9.5v1.1l-1,0.6
		c-4.5,2.6-8.8,5.3-12.8,8.1l-0.9,0.6l-1-0.6c-2.6-1.6-5.3-3.6-8.1-5.3c-2.7-1.7-5.4-3.6-7.9-5.2c-2.5,1.9-5.1,4-8.1,6.5
		c1,2.8,2.2,5.8,3.3,8.8c1.2,2.9,2.4,6.2,3.4,9l0.4,1.1l-0.8,0.8l-10.8,10.8l-0.8,0.8l-1.1-0.4c-2.8-1-5.9-2.2-9-3.4s-6-2.3-8.8-3.3
		c-2.5,3-4.6,5.6-6.5,8.1c1.5,2.5,3.4,5.2,5.2,7.8c1.8,2.6,3.6,5.5,5.3,8.1l0.6,1l-0.6,0.9c-2.8,4-5.5,8.3-8.1,12.8l-0.6,1h-1.1
		c-3-0.3-6.2-0.8-9.5-1.3c-3.3-0.5-6.4-0.9-9.4-1.3c-1.5,3.1-3.1,6.1-4.5,9.3c2.1,2,4.4,4.3,6.7,6.4c2.3,2.2,4.9,4.6,7.2,6.7
		l0.8,0.8l-0.4,1c-1.9,4.9-3.6,9.6-5,14.4l-0.3,1.1h-1.1c-2.9,0.4-6.2,0.6-9.5,0.9s-6.5,0.5-9.5,0.9c-0.8,3.2-1.6,6.5-2.3,10.1
		c2.4,1.5,5.2,3.2,7.9,4.7c2.7,1.6,5.8,3.3,8.4,5l1,0.6l-0.2,1.1c-0.7,4.7-1.3,9.6-1.7,15.1v1.1l-1,0.4c-2.8,1-5.9,2-9.1,2.9
		c-3.1,1-6.2,1.9-9.1,2.9v10.5c2.8,1,6,2,9.1,2.9c3.1,1,6.2,1.9,9,2.9l1,0.4v1.1c0.4,5.5,0.9,10.4,1.7,15.1l0.2,1.1l-1,0.6
		c-2.6,1.6-5.5,3.3-8.3,5s-5.5,3.2-7.9,4.7c0.7,3.6,1.4,6.9,2.3,10.1c2.9,0.3,6.2,0.6,9.4,0.8c3.2,0.3,6.6,0.5,9.6,0.9h1.1l0.3,1.1
		c1.4,4.6,3.1,9.5,5,14.4l0.4,1l-0.8,0.8c-2.2,2.2-4.6,4.5-7.2,6.7c-2.6,2.3-4.7,4.4-6.7,6.4c1.4,3.2,2.9,6.3,4.5,9.3
		c2.9-0.3,6.2-0.8,9.4-1.3c3.2-0.5,6.5-0.9,9.5-1.3h1.1l0.5,1c2.6,4.5,5.3,8.8,8.1,12.8l0.6,0.9l-0.6,0.9c-1.6,2.6-3.6,5.4-5.4,8.1
		c-1.8,2.7-3.6,5.4-5.1,7.8c1.9,2.5,4,5.1,6.5,8.1c2.8-1,5.8-2.2,8.7-3.3c2.9-1.2,6.2-2.4,9-3.4l1.1-0.4l0.8,0.8
		c3.4,3.6,7,7.2,10.8,10.8l0.8,0.8l-0.4,1.1c-1,2.8-2.2,5.9-3.4,9c-1.2,3.1-2.3,6-3.3,8.8c3,2.5,5.6,4.6,8.1,6.5
		c2.5-1.5,5.2-3.4,7.8-5.1c2.6-1.8,5.5-3.6,8.1-5.3l0.9-0.6l0.9,0.6c4.1,2.8,8.4,5.5,12.8,8.1l1,0.5v1.1c-0.3,3-0.8,6.3-1.3,9.6
		c-0.5,3.3-1,6.4-1.3,9.3c3,1.5,6.2,3.1,9.4,4.5c2.1-2,4.2-4.4,6.4-6.7c2.2-2.3,4.6-4.9,6.8-7.2l0.8-0.8l1,0.4
		c4.9,1.9,9.7,3.6,14.4,5l1.1,0.3v1.1c0.3,3,0.6,6.3,0.9,9.5s0.5,6.5,0.9,9.5c3.2,0.8,6.5,1.5,10.1,2.3c1.5-2.4,3.2-5.3,4.7-7.9
		c1.5-2.7,3.4-5.8,5-8.4l0.6-0.9h1.1c4.7,0.8,9.6,1.3,15.1,1.7h1.1l0.4,1.1c1,2.8,1.9,5.9,2.9,9s1.9,6.3,2.9,9.1h10.3
		c1-2.8,2-6,3-9.1c1-3.1,1.9-6.2,2.9-9l0.4-1.1h1.1c5.5-0.4,10.4-0.9,15.1-1.7h1.1l0.6,0.9c1.6,2.6,3.3,5.5,5,8.4s3.2,5.5,4.7,7.9
		c3.6-0.7,6.9-1.5,10.1-2.3c0.4-2.9,0.6-6.3,0.9-9.4c0.3-3.2,0.5-6.6,0.9-9.6v-1.1l1.1-0.3c4.6-1.4,9.4-3.1,14.4-5l1-0.4l0.8,0.8
		c2.2,2.1,4.5,4.6,6.8,7.2c2.3,2.6,4.4,4.6,6.4,6.7c3.2-1.4,6.3-2.9,9.4-4.5c-0.3-2.9-0.8-6.2-1.3-9.3s-1-6.6-1.3-9.6v-1.1l1-0.6
		c4.5-2.6,8.8-5.3,12.8-8.1l0.9-0.6l1,0.6c2.6,1.6,5.4,3.6,8.1,5.4c2.8,1.8,5.3,3.6,7.8,5.1c2.5-1.9,5.1-4,8.1-6.5
		c-1-2.8-2.2-5.8-3.3-8.8c-1.2-2.9-2.4-6.2-3.4-9l-0.4-1l0.8-0.8c3.6-3.4,7.2-7.2,10.8-10.8l0.8-0.8l1.1,0.4c2.8,1,5.9,2.2,9,3.6
		c3.1,1.4,6,2.3,8.8,3.3c2.5-2.9,4.6-5.5,6.5-8.1c-1.5-2.5-3.4-5.2-5.1-7.8c-1.8-2.6-3.6-5.6-5.4-8.2l-0.6-0.9l0.6-0.9
		c2.8-4,5.5-8.3,8.1-12.8l0.5-1h1.1c3,0.3,6.3,0.8,9.5,1.3c3.2,0.5,6.4,0.9,9.4,1.3c1.5-3,3.1-6.1,4.5-9.3c-2-2.1-4.4-4.3-6.7-6.4
		c-2.3-2.2-4.9-4.6-7-6.7l-0.8-0.8l0.4-1c1.9-4.9,3.6-9.7,5-14.4l0.3-1.1h1.1c3-0.3,6.3-0.6,9.6-0.9c3.3-0.3,6.5-0.5,9.4-0.8
		c0.8-3.2,1.5-6.5,2.3-10.1c-2.4-1.5-5.3-3.1-7.9-4.7c-2.7-1.6-5.8-3.4-8.4-5l-0.9-0.6v-1.1c0.7-4.7,1.3-9.6,1.7-15.1v-1.1l1-0.4
		c2.8-1,5.9-2,9.1-2.9c3.1-1,6.3-2,9.1-2.9v-10.3L22180.2,5523.3z M21992.7,5475c1.9-22.5,6-44.7,12.2-66.4l0.4-1.5l1.6,0.3
		c15.4,3.2,30.1,9.3,43.2,18l1.3,0.9l-0.7,1.4c-10.5,20-23.4,38.7-38.4,55.6l-1,1.1l-1.2-0.8c-4.9-3.1-10.3-5.3-16-6.7l-1.4-0.4
		L21992.7,5475z M21914,5425.1c13.1-8.6,27.8-14.7,43.2-17.8l1.5-0.3l0.5,1.5c6.7,21.6,10.8,43.9,12.2,66.5v1.4l-1.4,0.3
		c-5.6,1.3-11,3.5-16,6.5l-1.3,0.8l-0.9-1.2c-14.5-17.2-27.4-35.8-38.3-55.5l-0.8-1.4L21914,5425.1z M21860.7,5503.3
		c3.2-15.4,9.3-30.1,18-43.2l0.9-1.3l1.4,0.7c20,10.5,38.7,23.4,55.6,38.4l1.1,1l-0.8,1.2c-3.1,4.9-5.4,10.3-6.7,16l-0.4,1.4h-1.5
		c-22.5-1.9-44.7-6-66.4-12.2l-1.5-0.4L21860.7,5503.3z M21880.6,5596.9l-1.4,0.8l-0.9-1.3c-8.6-13.1-14.7-27.8-17.8-43.2l-0.3-1.5
		l1.5-0.5c21.6-6.7,43.9-10.8,66.5-12.1h1.4l0.3,1.4c1.3,5.6,3.5,11,6.5,15.9l0.8,1.3l-1.1,1
		C21918.9,5573.1,21900.3,5585.9,21880.6,5596.9L21880.6,5596.9z M21970.8,5582c-1.9,22.5-6,44.7-12.2,66.4l-0.4,1.5l-1.5-0.3
		c-15.4-3.2-30.1-9.3-43.2-18l-1.3-0.9l0.7-1.4c10.5-20,23.4-38.7,38.4-55.6l1-1.1l1.2,0.8c4.9,3.1,10.3,5.4,16,6.7l1.4,0.3
		L21970.8,5582z M21981.8,5566.8c0-8.8,7.1-15.9,15.9-15.9s15.9,7.1,15.9,15.9s-7.1,15.9-15.9,15.9
		C21988.9,5582.7,21981.8,5575.6,21981.8,5566.8L21981.8,5566.8z M22049.6,5631.9c-13.1,8.7-27.8,14.8-43.2,18l-1.5,0.3l-0.5-1.5
		c-6.7-21.6-10.8-43.9-12.2-66.5v-1.4l1.4-0.3c5.6-1.3,11-3.5,16-6.5l1.3-0.8l0.9,1.1c14.6,17.2,27.4,35.8,38.4,55.5l0.8,1.4
		L22049.6,5631.9z M22102.8,5553.7c-3.2,15.4-9.3,30.1-18,43.2l-0.9,1.3l-1.4-0.7c-19.9-10.5-38.5-23.4-55.3-38.4l-1.1-1l0.8-1.2
		c3.1-4.9,5.4-10.3,6.7-16l0.3-1.4h1.5c22.5,1.9,44.7,6,66.4,12.2l1.5,0.4L22102.8,5553.7z M22101.7,5505.9
		c-21.6,6.7-43.9,10.8-66.5,12.2h-1.4l-0.3-1.4c-1.3-5.6-3.5-11-6.5-16l-0.8-1.2l1.1-1c17.2-14.6,35.8-27.4,55.5-38.4l1.4-0.8
		l0.9,1.3c8.6,13.1,14.7,27.8,17.8,43.2l0.3,1.5L22101.7,5505.9z"/>
	<ellipse id="Ellipse_610" class="st1" cx="22099" cy="5257.1" rx="87" ry="87"/>
	<ellipse id="Ellipse_611" class="st1" cx="21981.8" cy="5528.5" rx="139.2" ry="139.2"/>
	<ellipse id="Ellipse_612" class="st1" cx="22309" cy="5709.7" rx="154.3" ry="154.3"/>
	<path id="Path_38849" class="st5" d="M21900.7,5550.4v-53h17.8c3.8-0.2,7.6,1.3,10.1,4.2c2.5,3.3,3.8,7.4,3.6,11.6
		c0.1,2.9-0.5,5.8-1.5,8.5c-0.9,2.3-2.5,4.2-4.6,5.5c-2.2,1.3-4.8,2-7.4,1.9h-10.5v21.3L21900.7,5550.4z M21907.9,5521.4h9.6
		c2.1,0.2,4.1-0.6,5.5-2.2c1.3-1.7,2-3.9,1.8-6c0.1-2.2-0.5-4.3-1.8-6c-1.4-1.5-3.4-2.3-5.5-2.2h-9.6V5521.4z"/>
	<path id="Path_38847" class="st5" d="M21938.5,5550.4v-53h17.5c3.9-0.2,7.6,1.3,10.2,4.1c2.6,3.3,3.8,7.4,3.6,11.5
		c0.1,2.9-0.5,5.7-1.6,8.3c-1,2.2-2.6,4-4.6,5.3c-2.2,1.3-4.7,1.9-7.2,1.8l0.8-1.4h1.9c1.6,0,3.1,0.6,4.2,1.7c1.5,1.4,2.5,3.1,3.1,5
		l5.9,16.6h-8.1l-5.9-17.2c-0.3-1.5-1.2-2.8-2.4-3.6c-1.2-0.6-2.5-0.9-3.9-0.8h-6.3v21.6L21938.5,5550.4z M21945.7,5521.6h9
		c2.2,0.2,4.3-0.6,5.9-2.1c1.5-1.8,2.2-4,2-6.3c0.2-2.3-0.6-4.5-2-6.2c-1.6-1.5-3.7-2.3-5.9-2.1h-9V5521.6z"/>
	<path id="Path_38838" class="st5" d="M21978.5,5550.4v-53h7.2v53H21978.5z"/>
	<path id="Path_38829" class="st5" d="M21994.6,5550.4v-53h14.7c4.1-0.1,8.1,1,11.6,3.1c3.3,2.2,5.8,5.4,7.2,9
		c3.3,9.3,3.3,19.5,0,28.8c-1.4,3.7-3.9,6.9-7.2,9.1c-3.5,2.2-7.5,3.3-11.6,3.1L21994.6,5550.4z M22001.8,5542.4h6.8
		c4.1,0.3,8.1-1.4,10.8-4.6c4.7-8.7,4.7-19.2,0-27.8c-2.7-3.1-6.7-4.8-10.8-4.5h-6.5L22001.8,5542.4z"/>
	<path id="Path_38830" class="st5" d="M22038.1,5550.4v-53h27v7.6h-20v14.7h18.6v7.7h-18.6v15.4h20v7.7L22038.1,5550.4z"/>
	<path id="Path_38831" class="st5" d="M22198.1,5732.4c-4,0.1-8-1-11.4-3.3c-3.2-2.4-5.6-5.7-6.9-9.4c-1.6-4.6-2.4-9.5-2.3-14.4
		c-0.1-4.9,0.8-9.8,2.5-14.4c1.4-3.8,3.9-7.1,7.2-9.5c3.3-2.3,7.3-3.5,11.3-3.3c2.6-0.1,5.2,0.5,7.7,1.5c2.2,1.1,4.2,2.6,5.8,4.5
		l-2.4,7.5c-1.1-1.1-2.3-2.2-3.6-3c-1-0.7-2.2-1.3-3.4-1.6c-1.3-0.3-2.7-0.5-4.1-0.5c-3.9-0.2-7.7,1.6-10,4.9
		c-2.5,4.3-3.7,9.2-3.4,14.1c-0.3,4.9,0.8,9.7,3.2,14c2.3,3.3,6.1,5.1,10.1,4.8c1.6,0,3.1-0.2,4.7-0.6c1.6-0.4,3.2-1,4.6-1.7
		l-1.4,4.1v-15.9h-9.2v-7.2h15.5v25.5c-1.3,0.8-2.8,1.5-4.2,2.1c-1.6,0.6-3.2,1.1-4.9,1.4
		C22201.6,5732.3,22199.9,5732.4,22198.1,5732.4L22198.1,5732.4z"/>
	<path id="Path_38832" class="st5" d="M22220.9,5731.6v-53h17.5c3.8-0.2,7.6,1.3,10.2,4.1c2.6,3.3,3.8,7.4,3.6,11.5
		c0.1,2.9-0.5,5.7-1.6,8.3c-1,2.2-2.6,4-4.6,5.3c-2.2,1.3-4.7,1.9-7.2,1.8l0.8-1.4h1.9c1.6,0,3.1,0.6,4.3,1.7c1.4,1.4,2.5,3.1,3.1,5
		l5.9,16.6h-8l-5.9-17.2c-0.3-1.5-1.1-2.8-2.4-3.6c-1.2-0.6-2.6-0.9-3.9-0.8h-6.2v21.6L22220.9,5731.6z M22228.1,5702.8h9
		c2.2,0.2,4.4-0.5,6-2.1c1.5-1.8,2.2-4,2-6.3c0.2-2.3-0.6-4.5-2-6.2c-1.6-1.5-3.7-2.3-5.9-2.1h-9L22228.1,5702.8z"/>
	<path id="Path_38833" class="st5" d="M22259.2,5705.1c-0.1-4.9,0.7-9.8,2.3-14.4c1.3-3.7,3.6-7,6.6-9.4c3-2.3,6.6-3.4,10.3-3.3
		c3.7-0.1,7.3,1.1,10.2,3.3c3.1,2.5,5.4,5.7,6.7,9.4c3.2,9.3,3.2,19.4,0,28.8c-1.3,3.7-3.6,7-6.7,9.5c-6.1,4.5-14.4,4.5-20.5,0
		c-3-2.5-5.3-5.8-6.6-9.5C22259.9,5714.9,22259.1,5710,22259.2,5705.1L22259.2,5705.1z M22266.9,5705.1c-0.1,3.4,0.4,6.9,1.3,10.2
		c0.7,2.5,2,4.8,3.9,6.5c1.8,1.5,4.1,2.3,6.4,2.3c3.6,0.1,6.9-1.9,8.6-5c2.2-4.3,3.3-9.1,3-14c0.1-3.5-0.4-6.9-1.3-10.3
		c-0.7-2.5-2-4.7-3.9-6.5c-4.3-3.5-10.7-2.8-14.2,1.5c-0.3,0.4-0.6,0.8-0.8,1.2C22267.6,5695.5,22266.6,5700.3,22266.9,5705.1
		L22266.9,5705.1z"/>
	<path id="Path_38834" class="st5" d="M22315.4,5731.6l-14.1-53h7.6l10.8,43.4h-2.3l11.8-43.4h5.5l10.8,43.5h-2.1l11.4-43.4h7.2
		l-14.4,53h-6.1l-10.6-40.7h1.3l-11,40.7L22315.4,5731.6z"/>
	<path id="Path_38835" class="st5" d="M22378.3,5731.6v-45h-13.3v-8h33.8v8h-13.2v45H22378.3z"/>
	<path id="Path_38836" class="st5" d="M22404,5731.6v-53h7.2v22.1h20.5v-22.1h7.2v53h-7.2v-22.8h-20.5v22.8H22404z"/>
	<path id="Path_38839" class="st6" d="M22034.9,5267.1v-25.4h13.1v4.4h-8.8v6.2h8.2v4.4h-8.2v10.5L22034.9,5267.1z"/>
	<path id="Path_38840" class="st6" d="M22046.9,5267.1l8.8-25.4h3.6l8.9,25.4h-4.3l-2.3-7.2l1.7,1.5h-11.4l1.7-1.5l-2.3,7.2H22046.9
		z M22057.5,5247.6l-3.6,11.1l-0.8-1.4h8.6l-0.6,1.4L22057.5,5247.6z"/>
	<path id="Path_38841" class="st6" d="M22069.9,5267.1v-25.4h4.2v25.4L22069.9,5267.1z"/>
	<path id="Path_38842" class="st6" d="M22078,5267.1v-25.4h8.7c1.9-0.1,3.7,0.6,5,2c1.3,1.6,1.9,3.6,1.8,5.7c0,1.4-0.2,2.8-0.8,4.1
		c-0.5,1.1-1.3,2-2.3,2.6c-1.1,0.6-2.3,1-3.6,0.9l0.3-0.8h1.4c0.8,0,1.5,0.3,2.1,0.8c0.7,0.7,1.2,1.5,1.5,2.4l2.8,7.6h-4.7l-2.9-8.2
		c-0.1-0.6-0.5-1.1-1-1.4c-0.5-0.2-1-0.3-1.6-0.3h-2.2v9.9L22078,5267.1z M22082.2,5253.1h3.6c1.9,0.1,3.6-1.4,3.7-3.3
		c0.1-1.9-1.4-3.6-3.3-3.7c-0.1,0-0.3,0-0.4,0h-3.6V5253.1z"/>
	<path id="Path_38843" class="st6" d="M22097.3,5267.1v-25.4h3.1l10.5,17.5h-0.9v-17.5h4v25.4h-3.1l-10.4-17.5h0.8v17.5
		L22097.3,5267.1z"/>
	<path id="Path_38844" class="st6" d="M22117.9,5267.1v-25.4h13.3v4.4h-9.3v5.9h8.7v4.4h-8.7v6.4h9.3v4.4H22117.9z"/>
	<path id="Path_38845" class="st6" d="M22140.9,5267.4c-1.5,0-3-0.2-4.4-0.8c-1.3-0.4-2.4-1.1-3.4-2.1l1.2-4.4
		c0.6,0.5,1.3,0.9,2,1.3c0.7,0.4,1.4,0.7,2.2,0.9c0.8,0.2,1.6,0.3,2.4,0.3c1,0.1,2-0.2,2.8-0.8c0.6-0.5,0.9-1.3,0.8-2
		c0.1-0.6-0.1-1.2-0.5-1.7c-0.6-0.5-1.3-0.8-2.1-1l-3.2-0.9c-1.6-0.4-2.9-1.2-4-2.5c-0.9-1.3-1.4-3-1.3-4.6c0-1.5,0.3-2.9,1-4.2
		c0.7-1.2,1.6-2.1,2.8-2.8c1.3-0.7,2.7-1,4.2-1c1.3,0,2.6,0.2,3.8,0.8c1.1,0.5,2.1,1.2,2.9,2.1l-1.2,4.2c-0.7-0.8-1.6-1.4-2.5-1.8
		c-1-0.4-2-0.6-3.1-0.6c-1-0.1-1.9,0.2-2.7,0.8c-0.6,0.6-1,1.4-0.9,2.3c0,0.6,0.2,1.3,0.6,1.8c0.6,0.5,1.3,0.9,2,1l3.2,0.8
		c3.3,0.6,5.6,3.6,5.3,6.9c0,1.4-0.3,2.8-1,4.1c-0.6,1.2-1.6,2.1-2.7,2.8C22143.8,5267.1,22142.4,5267.5,22140.9,5267.4
		L22140.9,5267.4z"/>
	<path id="Path_38846" class="st6" d="M22158.8,5267.4c-1.5,0-3-0.2-4.4-0.8c-1.3-0.4-2.4-1.1-3.4-2.1l1.2-4.4
		c0.6,0.5,1.3,0.9,1.9,1.3c0.7,0.4,1.4,0.7,2.2,0.9c0.8,0.2,1.6,0.3,2.4,0.3c1,0.1,2-0.2,2.8-0.8c0.6-0.5,0.9-1.2,0.9-2
		c0.1-0.6-0.2-1.2-0.6-1.7c-0.6-0.5-1.3-0.8-2-1l-3.2-0.9c-1.6-0.4-2.9-1.2-4-2.5c-0.9-1.3-1.4-3-1.3-4.6c0-1.5,0.3-2.9,1-4.2
		c0.6-1.2,1.6-2.1,2.8-2.8c1.3-0.7,2.7-1,4.2-1c1.2,0,2.5,0.3,3.6,0.8c1.1,0.5,2.1,1.2,2.9,2.1l-1.2,4.2c-0.7-0.8-1.5-1.4-2.5-1.8
		c-1-0.4-2-0.6-3.1-0.6c-1-0.1-1.9,0.2-2.7,0.8c-0.6,0.6-1,1.4-0.9,2.3c0,0.6,0.2,1.3,0.6,1.8c0.6,0.5,1.3,0.9,2,1l3.2,0.8
		c3.3,0.6,5.6,3.6,5.3,6.9c0,1.4-0.3,2.8-1,4.1c-0.6,1.2-1.6,2.1-2.7,2.8C22161.6,5267.1,22160.2,5267.4,22158.8,5267.4z"/>
</g>
</svg>
