<?xml version="1.0" encoding="utf-8"?>
<!-- Generator: Adobe Illustrator 23.0.2, SVG Export Plug-In . SVG Version: 6.00 Build 0)  -->
<svg version="1.1" id="Layer_1" xmlns="http://www.w3.org/2000/svg" xmlns:xlink="http://www.w3.org/1999/xlink" x="0px" y="0px"
	 viewBox="0 0 396.5 396.4" style="enable-background:new 0 0 396.5 396.4;" xml:space="preserve">
<style type="text/css">
	.st0{fill:#2569B3;}
</style>
<path id="Path_38828" class="st0" d="M396.1,193c-2.8-1-6-2-9.1-2.9s-6.3-1.9-9.1-2.9l-1-0.4v-1.2c-0.4-5.5-0.9-10.4-1.7-15.1v-1.1
	l0.9-0.6c2.6-1.6,5.5-3.3,8.3-5s5.5-3.2,8-4.7c-0.7-3.6-1.5-6.9-2.3-10.1c-3-0.4-6.3-0.6-9.5-0.9s-6.5-0.5-9.5-0.9h-1.1l-0.3-1.1
	c-1.4-4.7-3.1-9.5-5-14.4l-0.4-1l0.8-0.8c2.2-2.2,4.6-4.5,7.2-6.7s4.7-4.4,6.7-6.4c-1.4-3.2-2.9-6.3-4.5-9.3
	c-2.9,0.3-6.2,0.8-9.4,1.3s-6.5,1-9.5,1.3h-1.1l-0.5-1c-2.6-4.5-5.3-8.8-8.1-12.8l-0.6-0.9l0.6-1c1.6-2.6,3.6-5.3,5.4-8.1
	s3.6-5.3,5.1-7.8c-1.9-2.5-4-5.1-6.5-8.1c-2.7,0.9-5.8,2.1-8.7,3.3S335,76,332.2,77l-1.1,0.4l-0.8-0.8c-3.4-3.6-7-7.2-10.8-10.8
	l-0.8-0.8l0.4-1c1-2.9,2.2-6,3.6-9.1c1.4-3.1,2.3-6,3.3-8.7c-2.9-2.5-5.5-4.6-8.1-6.5c-2.5,1.5-5.2,3.4-7.8,5.1s-5.5,3.6-8.1,5.4
	l-0.9,0.6l-0.9-0.6c-4-2.8-8.3-5.5-12.8-8.1l-1-0.6v-1.1c0.4-3,0.8-6.3,1.3-9.5s0.9-6.4,1.3-9.3c-3.1-1.6-6.2-3.1-9.3-4.5
	c-2.1,2-4.3,4.4-6.4,6.7s-4.6,4.9-6.8,7.2l-0.8,0.8l-1-0.4c-4.9-1.9-9.6-3.6-14.4-5l-1.1-0.3v-1.1c-0.3-2.9-0.6-6.2-0.9-9.5
	c-0.2-2.8-0.4-5.5-0.7-8.4c0-0.1-0.1-0.6-0.1-1c-3.2-0.8-6.5-1.5-10.1-2.3c-1.5,2.4-3.2,5.2-4.7,7.9s-3.4,5.8-5,8.4l-0.6,0.9h-1.1
	c-4.6-0.7-9.6-1.3-15.1-1.6h-1.1l-0.4-1c-1-2.8-1.9-5.9-2.9-9.1s-2-6.2-3-9l0,0c-3.4-0.1-6.8-0.1-10.3,0l0,0c-1,2.8-2,6-3,9.1
	s-1.9,6.2-2.9,9l-0.4,1h-1.1c-5.5,0.4-10.4,0.9-15.1,1.6h-1.1l-0.6-0.9c-1.7-2.6-3.3-5.5-5-8.4s-3.2-5.5-4.7-7.9
	c-3.6,0.7-6.9,1.4-10.1,2.3c-0.4,2.9-0.6,6.2-0.9,9.4s-0.5,6.6-0.9,9.5v1.1l-1,0.3c-4.6,1.4-9.5,3.1-14.4,5l-1,0.4l-0.8-0.8
	c-2.2-2.2-4.5-4.6-6.8-7.2s-4.4-4.6-6.4-6.7c-3.2,1.4-6.3,2.9-9.4,4.5c0.3,2.9,0.8,6.2,1.3,9.3s1,6.5,1.3,9.5v1.1l-1,0.6
	c-4.5,2.6-8.8,5.3-12.8,8.1l-0.9,0.6l-1-0.6c-2.6-1.6-5.3-3.6-8.1-5.3s-5.4-3.6-7.9-5.2c-2.5,1.9-5.1,4-8.1,6.5
	c1,2.8,2.2,5.8,3.3,8.8s2.4,6.2,3.4,9l0.4,1.1l-0.8,0.8L65.9,76.6l-0.8,0.8L64.1,77c-2.8-1-5.9-2.2-9-3.4s-6-2.3-8.8-3.3
	c-2.5,3-4.6,5.6-6.5,8.1c1.5,2.5,3.4,5.2,5.2,7.8s3.6,5.5,5.3,8.1l0.6,1l-0.6,0.9c-2.8,4-5.5,8.3-8.1,12.8l-0.6,1h-1.1
	c-3-0.3-6.2-0.8-9.5-1.3s-6.4-0.9-9.4-1.3c-1.5,3.1-3.1,6.2-4.5,9.3c2.1,2.1,4.4,4.3,6.7,6.4s4.9,4.6,7.2,6.7l0.8,0.8l-0.4,1
	c-1.9,4.9-3.6,9.6-5,14.4l-0.3,1.1H25c-2.9,0.4-6.2,0.6-9.5,0.9S9,148.6,6,149c-0.8,3.2-1.6,6.5-2.3,10.1c2.4,1.5,5.2,3.2,7.9,4.7
	s5.8,3.3,8.4,5l1,0.6l-0.2,1.1c-0.7,4.7-1.3,9.6-1.7,15.1v1.1l-1,0.4c-2.8,1-5.9,2-9.1,2.9S2.8,192,0,193v10.5c2.8,1,6,2,9.1,2.9
	s6.2,1.9,9,2.9l1,0.4v1.1c0.4,5.5,0.9,10.4,1.7,15.1L21,227l-1,0.6c-2.6,1.6-5.5,3.3-8.3,5s-5.5,3.2-7.9,4.7
	c0.7,3.6,1.4,6.9,2.3,10.1c2.9,0.3,6.2,0.6,9.4,0.8s6.6,0.5,9.6,0.9h1.1l0.3,1.1c1.4,4.6,3.1,9.5,5,14.4l0.4,1l-0.8,0.8
	c-2.2,2.2-4.6,4.5-7.2,6.7s-4.7,4.4-6.7,6.4c1.4,3.2,2.9,6.3,4.5,9.3c2.9-0.3,6.2-0.8,9.4-1.3s6.5-0.9,9.5-1.3h1.1l0.5,1
	c2.6,4.5,5.3,8.8,8.1,12.8l0.6,0.9l-0.6,0.9c-1.6,2.6-3.6,5.4-5.4,8.1s-3.6,5.4-5.1,7.8c1.9,2.5,4,5.1,6.5,8.1
	c2.8-1,5.8-2.2,8.7-3.3s6.2-2.4,9-3.4l1.1-0.4l0.8,0.8c3.4,3.6,7,7.2,10.8,10.8l0.8,0.8l-0.4,1.1c-1,2.8-2.2,5.9-3.4,9
	s-2.3,6-3.3,8.8c3,2.5,5.6,4.6,8.1,6.5c2.5-1.5,5.2-3.4,7.8-5.1s5.5-3.6,8.1-5.3l0.9-0.6l0.9,0.6c4.1,2.8,8.4,5.5,12.8,8.1l1,0.5
	v1.1c-0.3,3-0.8,6.3-1.3,9.6s-1,6.4-1.3,9.3c3,1.5,6.1,3.1,9.4,4.5c2-2.1,4.2-4.4,6.4-6.7s4.6-4.9,6.8-7.2l0.8-0.8l1,0.4
	c4.9,1.9,9.7,3.6,14.4,5l1.1,0.3v1.1c0.3,3,0.6,6.3,0.9,9.5s0.5,6.5,0.9,9.5c3.2,0.8,6.5,1.5,10.1,2.3c1.5-2.4,3.2-5.3,4.7-7.9
	s3.4-5.8,5-8.4l0.6-0.9h1.1c4.7,0.8,9.6,1.3,15.1,1.7h1.1l0.4,1.1c1,2.8,1.9,5.9,2.9,9s1.9,6.3,2.9,9.1h10.3c1-2.8,2-6,3-9.1
	s1.9-6.2,2.9-9l0.4-1.1h1.1c5.5-0.4,10.4-0.9,15.1-1.7h1.1l0.6,0.9c1.6,2.6,3.3,5.5,5,8.4s3.2,5.5,4.7,7.9c3.6-0.7,6.9-1.5,10.1-2.3
	c0.4-2.9,0.6-6.3,0.9-9.4s0.5-6.6,0.9-9.6v-1.1l1.1-0.3c4.6-1.4,9.4-3.1,14.4-5l1-0.4l0.8,0.8c2.2,2.1,4.5,4.6,6.8,7.2
	s4.4,4.6,6.4,6.7c3.2-1.4,6.3-2.9,9.4-4.5c-0.3-2.9-0.8-6.2-1.3-9.3s-1-6.6-1.3-9.6v-1.1l1-0.6c4.5-2.6,8.8-5.3,12.8-8.1l0.9-0.6
	l1,0.6c2.6,1.6,5.4,3.6,8.1,5.4s5.3,3.6,7.8,5.1c2.5-1.9,5.1-4,8.1-6.5c-1-2.8-2.2-5.8-3.3-8.8s-2.4-6.2-3.4-9l-0.4-1l0.8-0.8
	c3.6-3.4,7.2-7.2,10.8-10.8l0.8-0.8l1.1,0.4c2.8,1,5.9,2.2,9,3.6s6,2.3,8.8,3.3c2.5-2.9,4.6-5.5,6.5-8.1c-1.5-2.5-3.4-5.2-5.1-7.8
	s-3.6-5.6-5.4-8.2l-0.6-0.9l0.6-0.9c2.8-4,5.5-8.3,8.1-12.8l0.5-1h1.1c3,0.3,6.3,0.8,9.5,1.3s6.4,0.9,9.4,1.3c1.5-3,3.1-6.2,4.5-9.3
	c-2-2.1-4.4-4.3-6.7-6.4s-4.9-4.6-7-6.7l-0.8-0.8l0.4-1c1.9-4.9,3.6-9.7,5-14.4l0.3-1.1h1.1c3-0.3,6.3-0.6,9.6-0.9s6.5-0.5,9.4-0.8
	c0.8-3.2,1.5-6.5,2.3-10.1c-2.4-1.5-5.3-3.1-7.9-4.7s-5.8-3.4-8.4-5l-0.9-0.6v-1.1c0.7-4.7,1.3-9.6,1.7-15.1v-1.1l1-0.4
	c2.8-1,5.9-2,9.1-2.9s6.3-2,9.1-2.9v-10.3L396.1,193z M208.7,144.7c1.9-22.5,6-44.7,12.2-66.4l0.4-1.5l1.6,0.3
	c15.4,3.2,30.1,9.3,43.2,18l1.3,0.9l-0.7,1.4c-10.5,20-23.4,38.7-38.4,55.6l-1,1.1l-1.2-0.8c-4.9-3.1-10.3-5.3-16-6.7l-1.4-0.4
	L208.7,144.7z M129.9,94.8c13.1-8.6,27.8-14.7,43.2-17.8l1.5-0.3l0.5,1.5c6.7,21.6,10.8,43.9,12.2,66.5v1.4l-1.4,0.3
	c-5.6,1.3-11,3.5-16,6.5l-1.3,0.8l-0.9-1.2c-14.5-17.2-27.4-35.8-38.3-55.5l-0.8-1.4L129.9,94.8z M76.6,173
	c3.2-15.4,9.3-30.1,18-43.2l0.9-1.3l1.4,0.7c20,10.5,38.7,23.4,55.6,38.4l1.1,1l-0.8,1.2c-3.1,4.9-5.4,10.3-6.7,16l-0.4,1.4h-1.5
	c-22.5-1.9-44.7-6-66.4-12.2l-1.5-0.4L76.6,173z M96.6,266.5l-1.4,0.8l-0.9-1.3c-8.6-13.1-14.7-27.8-17.8-43.2l-0.3-1.5l1.5-0.5
	c21.6-6.7,43.9-10.8,66.5-12.1h1.4l0.3,1.4c1.3,5.6,3.5,11,6.5,15.9l0.8,1.3l-1.1,1C134.8,242.8,116.3,255.6,96.6,266.5L96.6,266.5z
	 M186.8,251.7c-1.9,22.5-6,44.7-12.2,66.4l-0.4,1.5l-1.5-0.3c-15.4-3.2-30.1-9.3-43.2-18l-1.3-0.9l0.7-1.4
	c10.5-20,23.4-38.7,38.4-55.6l1-1.1l1.2,0.8c4.9,3.1,10.3,5.4,16,6.7l1.4,0.3L186.8,251.7z M197.7,236.5c0-8.8,7.1-15.9,15.9-15.9
	c8.8,0,15.9,7.1,15.9,15.9c0,8.8-7.1,15.9-15.9,15.9C204.8,252.4,197.7,245.3,197.7,236.5L197.7,236.5z M265.5,301.6
	c-13.1,8.7-27.8,14.8-43.2,18l-1.5,0.3l-0.5-1.5c-6.7-21.6-10.8-43.9-12.2-66.5v-1.4l1.4-0.3c5.6-1.3,11-3.5,16-6.5l1.3-0.8l0.9,1.1
	c14.6,17.2,27.4,35.8,38.4,55.5l0.8,1.4L265.5,301.6z M318.7,223.4c-3.2,15.4-9.3,30.1-18,43.2l-0.9,1.3l-1.4-0.7
	c-19.9-10.5-38.5-23.4-55.3-38.4l-1.1-1l0.8-1.2c3.1-4.9,5.4-10.3,6.7-16l0.3-1.4h1.5c22.5,1.9,44.7,6,66.4,12.2l1.5,0.4
	L318.7,223.4z M317.6,175.6c-21.6,6.7-43.9,10.8-66.5,12.2h-1.4l-0.3-1.4c-1.3-5.6-3.5-11-6.5-16l-0.8-1.2l1.1-1
	c17.2-14.6,35.8-27.4,55.5-38.4l1.4-0.8l0.9,1.3c8.6,13.1,14.7,27.8,17.8,43.2l0.3,1.5L317.6,175.6z"/>
</svg>
