<?xml version="1.0" encoding="utf-8"?>
<!-- Generator: Adobe Illustrator 26.0.1, SVG Export Plug-In . SVG Version: 6.00 Build 0)  -->
<svg version="1.1" id="Layer_1" xmlns="http://www.w3.org/2000/svg" xmlns:xlink="http://www.w3.org/1999/xlink" x="0px" y="0px"
	 viewBox="0 0 830 813.4" style="enable-background:new 0 0 830 813.4;" xml:space="preserve">
<style type="text/css">
	.st0{fill:#818182;}
	.st1{fill:#FFFFFF;}
	.st2{fill:#494949;}
	.st3{fill:#4C4C4C;}
</style>
<g id="Our_values_define_us" transform="translate(-21737.001 -5106.44)">
	<path id="Path_38848" class="st0" d="M22065.9,5193.6l2.4,28.7l13.2-15.6L22065.9,5193.6z"/>
	<path class="st1" d="M22547.3,5664.9c-13.1-76.1-44.5-131.8-93.4-165.5c-38.2-26.3-80-33.9-108.4-35.6c-30.7-1.9-52.8,2.5-53,2.6
		l0.6,2.9c0.9-0.2,87.1-17,159.1,32.6c48.2,33.2,79.2,88.2,92.1,163.5l-20.1,3l24.6,18.2l18.2-24.6L22547.3,5664.9z"/>
	<g>
		<path class="st1" d="M21930.4,5267.7c-9.9-32.8-7.8-62.2,6.2-87.2c18.8-33.6,54.5-50.1,68.3-55.5l-4.9-15.6l23,11.5l-12.2,22.7
			l-5.4-17c-13.7,5.3-48.8,21.6-67.3,54.7c-13.8,24.6-15.8,53.5-6.1,86L21930.4,5267.7z"/>
		<path class="st1" d="M21846.5,5338c-23,12.7-42.1,29.6-56.8,50.4c-15.3,21.6-25.7,47.4-31.2,76.9l-21.4-1.3l20.2,22.9l22.9-20.2
			l-19.2-1.2c13.3-70.9,53.7-107.1,86.6-125.2c38.7-21.3,75.6-22.9,76-23l-0.1-2.5C21923.1,5314.8,21885.6,5316.4,21846.5,5338z"/>
	</g>
	<ellipse id="Ellipse_610" class="st1" cx="22099" cy="5257.1" rx="87" ry="87"/>
	<ellipse id="Ellipse_611" class="st1" cx="21981.8" cy="5528.5" rx="139.2" ry="139.2"/>
	<ellipse id="Ellipse_612" class="st1" cx="22309" cy="5709.7" rx="154.3" ry="154.3"/>
	<path id="Path_38849" class="st2" d="M21900.7,5550.4v-53h17.8c3.8-0.2,7.6,1.3,10.1,4.2c2.5,3.3,3.8,7.4,3.6,11.6
		c0.1,2.9-0.5,5.8-1.5,8.5c-0.9,2.3-2.5,4.2-4.6,5.5c-2.2,1.3-4.8,2-7.4,1.9h-10.5v21.3H21900.7z M21907.9,5521.4h9.6
		c2.1,0.2,4.1-0.6,5.5-2.2c1.3-1.7,2-3.9,1.8-6c0.1-2.2-0.5-4.3-1.8-6c-1.4-1.5-3.4-2.3-5.5-2.2h-9.6V5521.4z"/>
	<path id="Path_38847" class="st2" d="M21938.5,5550.4v-53h17.5c3.9-0.2,7.6,1.3,10.2,4.1c2.6,3.3,3.8,7.4,3.6,11.5
		c0.1,2.9-0.5,5.7-1.6,8.3c-1,2.2-2.6,4-4.6,5.3c-2.2,1.3-4.7,1.9-7.2,1.8l0.8-1.4h1.9c1.6,0,3.1,0.6,4.2,1.7c1.5,1.4,2.5,3.1,3.1,5
		l5.9,16.6h-8.1l-5.9-17.2c-0.3-1.5-1.2-2.8-2.4-3.6c-1.2-0.6-2.5-0.9-3.9-0.8h-6.3v21.6L21938.5,5550.4z M21945.7,5521.6h9
		c2.2,0.2,4.3-0.6,5.9-2.1c1.5-1.8,2.2-4,2-6.3c0.2-2.3-0.6-4.5-2-6.2c-1.6-1.5-3.7-2.3-5.9-2.1h-9V5521.6z"/>
	<path id="Path_38838" class="st2" d="M21978.5,5550.4v-53h7.2v53H21978.5z"/>
	<path id="Path_38829" class="st2" d="M21994.6,5550.4v-53h14.7c4.1-0.1,8.1,1,11.6,3.1c3.3,2.2,5.8,5.4,7.2,9
		c3.3,9.3,3.3,19.5,0,28.8c-1.4,3.7-3.9,6.9-7.2,9.1c-3.5,2.2-7.5,3.3-11.6,3.1L21994.6,5550.4z M22001.8,5542.4h6.8
		c4.1,0.3,8.1-1.4,10.8-4.6c4.7-8.7,4.7-19.2,0-27.8c-2.7-3.1-6.7-4.8-10.8-4.5h-6.5L22001.8,5542.4z"/>
	<path id="Path_38830" class="st2" d="M22038.1,5550.4v-53h27v7.6h-20v14.7h18.6v7.7h-18.6v15.4h20v7.7L22038.1,5550.4z"/>
	<path id="Path_38831" class="st2" d="M22198.1,5732.4c-4,0.1-8-1-11.4-3.3c-3.2-2.4-5.6-5.7-6.9-9.4c-1.6-4.6-2.4-9.5-2.3-14.4
		c-0.1-4.9,0.8-9.8,2.5-14.4c1.4-3.8,3.9-7.1,7.2-9.5c3.3-2.3,7.3-3.5,11.3-3.3c2.6-0.1,5.2,0.5,7.7,1.5c2.2,1.1,4.2,2.6,5.8,4.5
		l-2.4,7.5c-1.1-1.1-2.3-2.2-3.6-3c-1-0.7-2.2-1.3-3.4-1.6c-1.3-0.3-2.7-0.5-4.1-0.5c-3.9-0.2-7.7,1.6-10,4.9
		c-2.5,4.3-3.7,9.2-3.4,14.1c-0.3,4.9,0.8,9.7,3.2,14c2.3,3.3,6.1,5.1,10.1,4.8c1.6,0,3.1-0.2,4.7-0.6s3.2-1,4.6-1.7l-1.4,4.1v-15.9
		h-9.2v-7.2h15.5v25.5c-1.3,0.8-2.8,1.5-4.2,2.1c-1.6,0.6-3.2,1.1-4.9,1.4C22201.6,5732.3,22199.9,5732.4,22198.1,5732.4
		L22198.1,5732.4z"/>
	<path id="Path_38832" class="st2" d="M22220.9,5731.6v-53h17.5c3.8-0.2,7.6,1.3,10.2,4.1c2.6,3.3,3.8,7.4,3.6,11.5
		c0.1,2.9-0.5,5.7-1.6,8.3c-1,2.2-2.6,4-4.6,5.3c-2.2,1.3-4.7,1.9-7.2,1.8l0.8-1.4h1.9c1.6,0,3.1,0.6,4.3,1.7c1.4,1.4,2.5,3.1,3.1,5
		l5.9,16.6h-8l-5.9-17.2c-0.3-1.5-1.1-2.8-2.4-3.6c-1.2-0.6-2.6-0.9-3.9-0.8h-6.2v21.6L22220.9,5731.6z M22228.1,5702.8h9
		c2.2,0.2,4.4-0.5,6-2.1c1.5-1.8,2.2-4,2-6.3c0.2-2.3-0.6-4.5-2-6.2c-1.6-1.5-3.7-2.3-5.9-2.1h-9L22228.1,5702.8z"/>
	<path id="Path_38833" class="st2" d="M22259.2,5705.1c-0.1-4.9,0.7-9.8,2.3-14.4c1.3-3.7,3.6-7,6.6-9.4c3-2.3,6.6-3.4,10.3-3.3
		c3.7-0.1,7.3,1.1,10.2,3.3c3.1,2.5,5.4,5.7,6.7,9.4c3.2,9.3,3.2,19.4,0,28.8c-1.3,3.7-3.6,7-6.7,9.5c-6.1,4.5-14.4,4.5-20.5,0
		c-3-2.5-5.3-5.8-6.6-9.5C22259.9,5714.9,22259.1,5710,22259.2,5705.1L22259.2,5705.1z M22266.9,5705.1c-0.1,3.4,0.4,6.9,1.3,10.2
		c0.7,2.5,2,4.8,3.9,6.5c1.8,1.5,4.1,2.3,6.4,2.3c3.6,0.1,6.9-1.9,8.6-5c2.2-4.3,3.3-9.1,3-14c0.1-3.5-0.4-6.9-1.3-10.3
		c-0.7-2.5-2-4.7-3.9-6.5c-4.3-3.5-10.7-2.8-14.2,1.5c-0.3,0.4-0.6,0.8-0.8,1.2C22267.6,5695.5,22266.6,5700.3,22266.9,5705.1
		L22266.9,5705.1z"/>
	<path id="Path_38834" class="st2" d="M22315.4,5731.6l-14.1-53h7.6l10.8,43.4h-2.3l11.8-43.4h5.5l10.8,43.5h-2.1l11.4-43.4h7.2
		l-14.4,53h-6.1l-10.6-40.7h1.3l-11,40.7L22315.4,5731.6z"/>
	<path id="Path_38835" class="st2" d="M22378.3,5731.6v-45h-13.3v-8h33.8v8h-13.2v45H22378.3z"/>
	<path id="Path_38836" class="st2" d="M22404,5731.6v-53h7.2v22.1h20.5v-22.1h7.2v53h-7.2v-22.8h-20.5v22.8H22404z"/>
	<path id="Path_38839" class="st3" d="M22034.9,5267.1v-25.4h13.1v4.4h-8.8v6.2h8.2v4.4h-8.2v10.5L22034.9,5267.1z"/>
	<path id="Path_38840" class="st3" d="M22046.9,5267.1l8.8-25.4h3.6l8.9,25.4h-4.3l-2.3-7.2l1.7,1.5h-11.4l1.7-1.5l-2.3,7.2H22046.9
		z M22057.5,5247.6l-3.6,11.1l-0.8-1.4h8.6l-0.6,1.4L22057.5,5247.6z"/>
	<path id="Path_38841" class="st3" d="M22069.9,5267.1v-25.4h4.2v25.4H22069.9z"/>
	<path id="Path_38842" class="st3" d="M22078,5267.1v-25.4h8.7c1.9-0.1,3.7,0.6,5,2c1.3,1.6,1.9,3.6,1.8,5.7c0,1.4-0.2,2.8-0.8,4.1
		c-0.5,1.1-1.3,2-2.3,2.6c-1.1,0.6-2.3,1-3.6,0.9l0.3-0.8h1.4c0.8,0,1.5,0.3,2.1,0.8c0.7,0.7,1.2,1.5,1.5,2.4l2.8,7.6h-4.7l-2.9-8.2
		c-0.1-0.6-0.5-1.1-1-1.4c-0.5-0.2-1-0.3-1.6-0.3h-2.2v9.9L22078,5267.1z M22082.2,5253.1h3.6c1.9,0.1,3.6-1.4,3.7-3.3
		s-1.4-3.6-3.3-3.7c-0.1,0-0.3,0-0.4,0h-3.6L22082.2,5253.1L22082.2,5253.1z"/>
	<path id="Path_38843" class="st3" d="M22097.3,5267.1v-25.4h3.1l10.5,17.5h-0.9v-17.5h4v25.4h-3.1l-10.4-17.5h0.8v17.5H22097.3z"/>
	<path id="Path_38844" class="st3" d="M22117.9,5267.1v-25.4h13.3v4.4h-9.3v5.9h8.7v4.4h-8.7v6.4h9.3v4.4L22117.9,5267.1
		L22117.9,5267.1z"/>
	<path id="Path_38845" class="st3" d="M22140.9,5267.4c-1.5,0-3-0.2-4.4-0.8c-1.3-0.4-2.4-1.1-3.4-2.1l1.2-4.4
		c0.6,0.5,1.3,0.9,2,1.3s1.4,0.7,2.2,0.9c0.8,0.2,1.6,0.3,2.4,0.3c1,0.1,2-0.2,2.8-0.8c0.6-0.5,0.9-1.3,0.8-2
		c0.1-0.6-0.1-1.2-0.5-1.7c-0.6-0.5-1.3-0.8-2.1-1l-3.2-0.9c-1.6-0.4-2.9-1.2-4-2.5c-0.9-1.3-1.4-3-1.3-4.6c0-1.5,0.3-2.9,1-4.2
		c0.7-1.2,1.6-2.1,2.8-2.8c1.3-0.7,2.7-1,4.2-1c1.3,0,2.6,0.2,3.8,0.8c1.1,0.5,2.1,1.2,2.9,2.1l-1.2,4.2c-0.7-0.8-1.6-1.4-2.5-1.8
		c-1-0.4-2-0.6-3.1-0.6c-1-0.1-1.9,0.2-2.7,0.8c-0.6,0.6-1,1.4-0.9,2.3c0,0.6,0.2,1.3,0.6,1.8c0.6,0.5,1.3,0.9,2,1l3.2,0.8
		c3.3,0.6,5.6,3.6,5.3,6.9c0,1.4-0.3,2.8-1,4.1c-0.6,1.2-1.6,2.1-2.7,2.8C22143.8,5267.1,22142.4,5267.5,22140.9,5267.4
		L22140.9,5267.4z"/>
	<path id="Path_38846" class="st3" d="M22158.8,5267.4c-1.5,0-3-0.2-4.4-0.8c-1.3-0.4-2.4-1.1-3.4-2.1l1.2-4.4
		c0.6,0.5,1.3,0.9,1.9,1.3c0.7,0.4,1.4,0.7,2.2,0.9c0.8,0.2,1.6,0.3,2.4,0.3c1,0.1,2-0.2,2.8-0.8c0.6-0.5,0.9-1.2,0.9-2
		c0.1-0.6-0.2-1.2-0.6-1.7c-0.6-0.5-1.3-0.8-2-1l-3.2-0.9c-1.6-0.4-2.9-1.2-4-2.5c-0.9-1.3-1.4-3-1.3-4.6c0-1.5,0.3-2.9,1-4.2
		c0.6-1.2,1.6-2.1,2.8-2.8c1.3-0.7,2.7-1,4.2-1c1.2,0,2.5,0.3,3.6,0.8s2.1,1.2,2.9,2.1l-1.2,4.2c-0.7-0.8-1.5-1.4-2.5-1.8
		s-2-0.6-3.1-0.6c-1-0.1-1.9,0.2-2.7,0.8c-0.6,0.6-1,1.4-0.9,2.3c0,0.6,0.2,1.3,0.6,1.8c0.6,0.5,1.3,0.9,2,1l3.2,0.8
		c3.3,0.6,5.6,3.6,5.3,6.9c0,1.4-0.3,2.8-1,4.1c-0.6,1.2-1.6,2.1-2.7,2.8C22161.6,5267.1,22160.2,5267.4,22158.8,5267.4z"/>
</g>
</svg>
