<?xml version="1.0" encoding="utf-8"?>
<!-- Generator: Adobe Illustrator 23.0.2, SVG Export Plug-In . SVG Version: 6.00 Build 0)  -->
<svg version="1.1" id="Layer_1" xmlns="http://www.w3.org/2000/svg" xmlns:xlink="http://www.w3.org/1999/xlink" x="0px" y="0px"
	 viewBox="0 0 252.2 251.3" style="enable-background:new 0 0 252.2 251.3;" xml:space="preserve">
<style type="text/css">
	.st0{fill:#989798;}
</style>
<path class="st0" d="M241.7,115c-5.3-1.2-10.6-2-10.6-2v-1c-0.1-0.7-0.2-1.4-0.3-2.1c-0.3-1.5-0.5-3.1-0.5-3.1v0l-0.6-3l-0.4-2.1
	c0-0.3-0.1-0.7-0.3-0.9c0,0,4.6-2.7,9.1-5.6c4.5-3,8.9-6.2,8.9-6.2s-0.3-0.9-0.7-2.2l-0.7-2.2c-0.3-0.8-0.6-1.7-0.9-2.6
	c-0.6-1.7-1.3-3.6-1.8-4.7l-0.9-2.1l-3.4,0.3c-2.5,0.1-4.9,0.4-7.4,0.8c-5.4,0.6-10.8,1.6-10.8,1.6l-0.4-0.9l-1-1.9l-1.5-2.7v0.4
	c-0.1-0.2-0.3-0.5-0.4-0.7l0.3,0.3l-0.5-0.8l-1.1-1.8l-1.1-1.8l-0.5-0.8c0,0,3.4-4.1,6.6-8.4c1.6-2.2,3.2-4.4,4.3-6.1l1.9-2.8
	l-1.4-1.8c-0.8-1.1-2-2.5-3.2-3.9l-1.7-2.1l-1.6-1.7l-1.6-1.7l-3.1,1.4c-1.8,0.8-4.3,2-6.7,3.2c-4.8,2.4-9.4,5.1-9.4,5.1l-0.7-0.6
	l-1.6-1.4l-1.6-1.4l-0.7-0.6l0.2,0.3l-0.6-0.5l0.4,0.2l-2.4-1.9c-0.5-0.5-1.1-0.9-1.7-1.3l-0.8-0.6c0,0,1.8-5,3.3-10.2
	c1.5-5.2,2.8-10.4,2.8-10.4l-1.9-1.3l-4.4-2.6c-1.5-1-3.2-1.8-4.4-2.4l-2-1c0,0-4,3.6-7.7,7.7c-1.8,1.9-3.6,3.9-4.9,5.5l-2.2,2.6
	l-2.8-1.2l-2-0.8l-0.9-0.3h0.3l-0.7-0.2h0.4l-2.9-1l-2.9-0.9v-3.3c0-2.5-0.1-4.9-0.3-7.4c-0.3-5.4-0.9-10.8-0.9-10.8
	s-0.9-0.3-2.3-0.5L147.9,1l-5-0.8L141.2,0h-0.6c0,0-2.4,4.9-4.5,9.9c-1.1,2.4-2,5-2.8,6.9l-1.2,3.2h-12.5c0,0-1.8-5.1-4-10
	C113.5,5,111,0.1,111,0.1l-2.3,0.3l-5,0.8l-4.9,1l-2.2,0.5c0,0-0.6,5.5-0.9,10.8s-0.3,10.8-0.3,10.8l-2.9,0.9
	c-0.8,0.2-1.5,0.5-2,0.7l-0.9,0.4H90l-0.7,0.3h0.3l-2.9,1l-2.8,1.2l-2.2-2.6c-1.3-1.5-3.1-3.6-5-5.5c-3.6-3.9-7.7-7.7-7.7-7.7
	l-0.6,0.3c-0.4,0-0.9,0.4-1.5,0.8l-4.4,2.4l-4.3,2.6c-1.2,0.7-1.9,1.3-1.9,1.3s1.3,5.3,2.9,10.5c0.8,2.6,1.6,5.1,2.3,7.2l1.1,3.2
	l-2.4,1.9l-2.3,2l0.3-0.2l-0.6,0.5l0.3-0.3l-0.8,0.6c-0.4,0.4-1,0.8-1.6,1.4l-2.3,2.1l-2.9-1.7c-1.8-1-4.1-2.2-6.5-3.4
	C39,41.7,34,39.5,34,39.5l-1.5,1.7c-0.9,1-2.2,2.3-3.3,3.8l-3.2,4l-1.3,1.8c0,0,3,4.5,6.2,8.8c3.2,4.3,6.7,8.4,6.7,8.4L37,68.9
	c-0.3,0.5-0.7,1.1-1.1,1.8l-1.6,2.6l0.3-0.3l-0.4,0.6v-0.3l-0.5,0.8l-1,1.9l-1,1.9l-0.4,0.9c0,0-5.2-0.9-10.6-1.5
	c-2.7-0.3-5.4-0.6-7.4-0.7l-3.4-0.2L9,78.4l-0.9,2.2c-0.3,0.8-0.6,1.7-0.9,2.6c-0.6,1.7-1.3,3.6-1.6,4.8l-0.7,2.2l2.8,2
	c1.6,1.2,3.9,2.7,6.1,4.2c4.5,2.9,9.1,5.6,9.1,5.6l-0.2,0.9c-0.1,0.7-0.2,1.4-0.4,2.1l-0.4,2.1l-0.2,0.9c0,0-0.2,1.5-0.5,3.1
	c0,0.7-0.1,1.4-0.3,2.1v1c0,0-5.3,0.9-10.5,2.2c-2.7,0.6-5.3,1.3-7.2,1.9L0,118.9v14.7c0,0,5.2,1.5,10.5,2.7s10.5,2.1,10.5,2.1
	c0,0.3,0,0.6,0,1c0.1,0.7,0.2,1.4,0.3,2.1l0.5,3.1l0.6,3c0.1,0.7,0.2,1.4,0.4,2.1c0.1,0.5,0.2,0.9,0.2,0.9s-4.6,2.7-9.1,5.7
	S5,162.5,5,162.5l0.7,2.2l0.7,2.2c0.3,0.8,0.6,1.7,0.9,2.6c0.6,1.7,1.3,3.6,1.8,4.7l0.9,2.1l3.4-0.2c2.5-0.1,5-0.4,7.4-0.8
	c5.4-0.6,10.8-1.6,10.8-1.6l0.4,0.9c0.3,0.5,0.6,1.2,1,1.9c0.8,1.3,1.5,2.7,1.5,2.7v-0.4c0,0.3,0.3,0.5,0.4,0.7l-0.3-0.3l0.5,0.8
	l1.1,1.8l1.1,1.8l0.5,0.8c-2.4,2.7-4.6,5.5-6.7,8.5c-1.6,2.2-3.2,4.4-4.3,6l-1.9,2.8l1.4,1.8c0.8,1.1,2,2.5,3.2,3.9l1.7,2.1l1.6,1.7
	l1.5,1.7l3.1-1.4c1.8-0.9,4.3-2.1,6.7-3.3c4.9-2.4,9.4-5.1,9.4-5.1l0.7,0.6l1.6,1.4l1.6,1.4l0.8,0.6l-0.2-0.3l0.5,0.5l-0.3-0.2
	l2.4,1.9l1.7,1.3l0.8,0.6c0,0-1.8,5-3.4,10.2s-2.8,10.5-2.8,10.5l1.9,1.3l4.4,2.6c1.6,0.9,3.2,1.7,4.4,2.4l2,1c0,0,4-3.6,7.6-7.7
	c1.8-2,3.6-4,4.9-5.5c1.3-1.5,2.2-2.6,2.2-2.6l2.8,1.2c0.7,0.3,1.4,0.5,2,0.8l0.9,0.3H90l0.7,0.2h-0.4l2.9,1l2.9,0.9v3.4
	c0,2.4,0.1,4.8,0.3,7.2c0.3,5.4,0.9,10.8,0.9,10.8s0.9,0.3,2.2,0.5l5,1l5,0.8l1.7,0.2h0.6c0,0,2.4-4.9,4.5-9.9c1-2.4,2-5,2.7-6.9
	l1.2-3.1h12.1c0,0,1.9,5.1,4,10c2.2,4.9,4.6,9.8,4.6,9.8c0.8,0,1.5-0.1,2.3-0.3l5-0.8l4.9-1c1.4-0.3,2.3-0.5,2.3-0.5
	s0.6-5.5,0.9-10.8c0.3-5.3,0.3-10.8,0.3-10.8l2.9-0.9l2-0.7l0.9-0.4H162l0.8-0.3h-0.3l2.9-1l2.8-1.2l2.2,2.6c1.3,1.5,3.1,3.6,5,5.5
	c3.6,3.9,7.7,7.7,7.7,7.7l0.6-0.3l1.5-0.8l4.4-2.4l4.3-2.6c1.2-0.7,1.9-1.3,1.9-1.3s-1.3-5.3-2.9-10.5c-0.8-2.6-1.6-5.1-2.3-7.2
	c-0.7-2.1-1.1-3.2-1.1-3.2l2.4-1.9l2.4-1.9l0,0l0.7-0.6c0.4-0.4,1-0.8,1.6-1.4l2.3-2.1l2.9,1.6c1.8,1,4.1,2.2,6.5,3.4
	c4.8,2.4,9.9,4.6,9.9,4.6l1.5-1.7c0.9-1,2.2-2.4,3.3-3.8l3.2-3.9l1.4-1.9c0,0-3-4.5-6.3-8.8s-6.7-8.4-6.7-8.4l0.5-0.8
	c0.3-0.5,0.8-1.1,1.1-1.8l1.6-2.7l-0.3,0.3l0.4-0.6v0.3l0.5-0.8l1-1.9l1-1.9l0.4-0.9c0,0,5.3,0.9,10.8,1.5c2.7,0.3,5.4,0.6,7.4,0.7
	l3.3,0.3l0.9-2.1l0.9-2.2c0.3-0.8,0.6-1.7,0.9-2.5c0.6-1.8,1.3-3.6,1.6-4.8l0.7-2.2l-2.7-2c-1.7-1.2-3.9-2.7-6.2-4.2
	c-4.5-2.9-9.1-5.6-9.1-5.6c0-0.3,0.1-0.6,0.2-0.9c0.2-0.7,0.3-1.4,0.4-2.1l0.4-2.1c0.1-0.3,0.1-0.6,0.2-0.9c0,0,0.3-1.5,0.5-3.1
	c0.1-0.7,0.2-1.4,0.3-2.1v-1c0,0,5.3-0.9,10.5-2.2c2.6-0.6,5.3-1.3,7.2-1.9l3.2-0.9v-14.7C252.2,117.7,247.1,116.2,241.7,115z
	 M194.2,206.3l-0.3,0.2l0.5-0.5L194.2,206.3z"/>
</svg>
