<?xml version="1.0" encoding="utf-8"?>
<!-- Generator: Adobe Illustrator 23.0.2, SVG Export Plug-In . SVG Version: 6.00 Build 0)  -->
<svg version="1.1" id="Layer_1" xmlns="http://www.w3.org/2000/svg" xmlns:xlink="http://www.w3.org/1999/xlink" x="0px" y="0px"
	 viewBox="0 0 419.5 419.5" style="enable-background:new 0 0 419.5 419.5;" xml:space="preserve">
<style type="text/css">
	.st0{fill:#F6871F;}
</style>
<path id="Path_38826" class="st0" d="M419.5,206.3c-2.9-1.1-6.3-2.2-9.5-3.2s-6.6-2.1-9.5-3.2l-1.1-0.4v-1.2
	c-0.3-5.8-0.8-11-1.5-15.9l-0.2-1.2l1-0.6c2.8-1.7,5.8-3.6,8.9-5.2s5.9-3.3,8.5-4.9c-0.7-3.8-1.4-7.2-2.3-10.8
	c-3.1-0.4-6.6-0.7-10-1s-6.9-0.6-10-1h-1.2l-0.3-1.2c-1.4-4.9-3.2-10-5.2-15.1l-0.4-1.1l0.8-0.8c2.3-2.3,4.9-4.7,7.5-7.2
	s5-4.6,7.2-6.7c-1.5-3.3-3-6.7-4.6-9.9c-3.1,0.3-6.6,0.8-9.9,1.2s-6.9,1-10,1.3h-1.2l-0.6-1c-2.7-4.8-5.5-9.4-8.4-13.7l-0.6-1l0.6-1
	c1.7-2.7,3.6-5.6,5.8-8.5s3.8-5.6,5.5-8.2c-2-2.7-4.2-5.4-6.8-8.6c-2.9,1-6.2,2.2-9.3,3.4S356,81.9,353,83l-1.1,0.4l-0.8-0.9
	c-3.6-4-7.2-7.8-11.2-11.5l-0.9-0.8l0.4-1.2c1.1-3,2.4-6.3,3.6-9.5s2.6-6.3,3.6-9.2c-3.1-2.7-5.8-4.9-8.5-7
	c-2.6,1.6-5.5,3.6-8.3,5.4s-5.9,3.9-8.6,5.5l-1,0.6l-1-0.7c-4.2-3-8.8-5.9-13.5-8.6l-1-0.6v-1.2c0.4-3.2,0.9-6.6,1.5-10.1
	s1.1-6.8,1.4-9.9c-3.2-1.7-6.5-3.3-9.8-4.9c-2.2,2.2-4.5,4.6-6.8,7.2c-2.3,2.5-4.7,4.9-7.2,7.2l-0.9,0.8l-1.1-0.4
	c-5.1-2.1-10.2-4-15-5.5l-1.2-0.4v-1.2c-0.4-3.1-0.6-6.6-0.8-10s-0.5-6.9-0.8-10c-3.3-0.9-6.8-1.7-10.8-2.5
	c-1.7,2.6-3.4,5.5-5.1,8.3s-3.6,6.1-5.4,8.8l-0.6,1H241c-4.9-0.8-10.1-1.4-15.9-1.9h-1.2l-0.4-1.1c-1-3-2-6.3-3-9.6s-2-6.6-3-9.6
	l0,0c-3.6,0-7.2-0.2-10.8,0l0,0c-1.1,2.9-2.2,6.3-3.2,9.6s-2.1,6.5-3.2,9.5l-0.4,1.1h-1.2c-5.8,0.3-11,0.8-16,1.5h-1.2l-0.6-1
	c-1.7-2.8-3.6-5.9-5.2-9s-3.3-5.8-4.9-8.4c-3.8,0.7-7.2,1.5-10.8,2.3c-0.4,3.1-0.7,6.6-1,10s-0.6,6.9-1,10.1v1.2l-1.2,0.3
	c-4.9,1.4-10,3.2-15.2,5.2l-1.1,0.4l-0.8-0.8c-2.3-2.3-4.7-4.9-7.2-7.6s-4.6-4.9-6.7-7.2c-3.3,1.4-6.7,3-9.9,4.6
	c0.3,3.1,0.8,6.5,1.3,9.9s0.9,6.9,1.3,10.1v1.2l-1,0.6c-4.8,2.7-9.4,5.5-13.7,8.4l-1,0.6l-1-0.6c-2.7-1.7-5.6-3.6-8.5-5.7
	s-5.6-3.9-8.2-5.5c-2.7,2-5.4,4.2-8.6,6.8c1,2.9,2.2,6.2,3.4,9.3s2.4,6.5,3.6,9.6l0.4,1.2l-0.9,0.8c-4,3.5-7.8,7.3-11.4,11.2
	l-0.8,0.9L69.5,80c-3-1.1-6.2-2.4-9.5-3.6s-6.3-2.5-9.3-3.6c-2.7,3.1-4.9,5.8-6.9,8.5c1.6,2.7,3.6,5.5,5.4,8.3s3.9,5.9,5.5,8.6
	l0.6,1l-0.7,1c-3,4.2-5.9,8.7-8.7,13.5l-0.6,1h-1.2c-3.1-0.4-6.5-0.9-10-1.5s-6.8-1.1-9.9-1.5c-1.7,3.2-3.3,6.5-4.9,9.8
	c2.1,2.2,4.6,4.6,7,6.9s5.1,4.9,7.4,7.2l0.8,0.9l-0.5,1.1c-2.1,5.1-4,10.2-5.5,15.1l-0.3,1.1l-1.2-6.7c-3.1,0.3-6.6,0.6-10.1,0.8
	s-6.9,0.5-10,0.8c-0.9,3.4-1.7,13.7-2.5,17.5c2.6,1.7,5.5,3.4,8.3,5.1s6.1,3.6,8.8,5.4l1,0.6l-0.2,1.2c-0.8,5-1.4,10.1-1.9,15.9v1.2
	l-1.1,0.4c-3,1-6.3,2-9.6,3s-6.6,2-9.6,3v0.3c0,1.7,0,3.5-0.2,5.2c-0.1,1.7-0.1,3.5,0,5.2v0.3c3,1.1,6.3,2.2,9.6,3.2
	s6.6,2.1,9.5,3.2l1.1,0.4v1.2c0.4,5.8,0.9,10.8,1.6,15.9v1.2l-1,0.6c-2.7,1.7-5.8,3.6-8.9,5.2s-5.9,3.3-8.5,4.9
	c0.7,3.6,1.5,7.2,2.3,10.8c3.1,0.4,6.6,0.7,9.9,1s6.9,0.6,10.1,1H27l0.3,1.1c1.4,4.9,3.2,10,5.1,15.2l0.4,1.1L32,280
	c-2.3,2.3-4.9,4.7-7.6,7.2s-5,4.6-7.2,6.7c1.5,3.4,3,6.7,4.6,9.9c3.1-0.3,6.6-0.8,10-1.3s6.9-0.9,10-1.2h1.2l0.6,1
	c2.7,4.8,5.5,9.4,8.3,13.7l0.7,1l-0.6,1c-1.7,2.7-3.6,5.6-5.7,8.5s-3.9,5.6-5.5,8.2c2,2.7,4.2,5.4,6.8,8.6c2.9-1,6.1-2.2,9.3-3.4
	s6.6-2.5,9.6-3.6l1.1-0.4l0.8,0.9c3.6,4,7.2,7.8,11.2,11.5l0.9,0.8l-0.4,1.1c-1.1,3-2.4,6.3-3.6,9.5s-2.6,6.3-3.6,9.2
	c3.1,2.7,5.8,4.9,8.4,7c2.7-1.6,5.5-3.6,8.3-5.4s5.9-3.9,8.6-5.5l1-0.6l1,0.7c4.3,3,8.8,5.9,13.5,8.7l1,0.6v1.2
	c-0.4,3.2-0.9,6.6-1.5,10.1s-1.1,6.7-1.5,9.8c3.2,1.7,6.5,3.3,9.8,4.9c2.2-2.2,4.6-4.6,6.9-7.2s4.9-5.1,7.2-7.2l0.9-0.8l1.1,0.4
	c5.1,2.1,10.2,4,15,5.5l1.2,0.4v1.2c0.3,3.2,0.6,6.6,0.8,10.1s0.5,6.9,0.8,10c3.3,0.9,6.8,1.7,10.8,2.5c1.7-2.6,3.4-5.5,5.1-8.3
	s3.6-6.1,5.4-8.8l0.6-1l1.2,0.2c4.9,0.8,10.1,1.4,15.9,1.9h1.2l0.4,1.2c1,2.9,2,6.3,3,9.6s2,6.6,3,9.6l0,0c3.6,0,7.2,0.2,10.8,0l0,0
	c1.1-3,2.2-6.3,3.2-9.6s2.2-6.5,3.2-9.5l0.4-1.1h1.2c5.8-0.3,11-0.9,15.9-1.5h1.2l0.6,1c1.7,2.7,3.6,5.8,5.2,8.9s3.3,5.8,4.9,8.5
	c3.8-0.7,7.2-1.5,10.8-2.3c0.4-3.1,0.7-6.6,1-9.9s0.6-6.9,1-10.1v-1.2l1.2-0.4c4.9-1.4,10-3.2,15.2-5.1l1.1-0.4l0.9,0.9
	c2.3,2.3,4.6,4.9,7.2,7.5s4.5,5,6.7,7.2c3.3-1.5,6.7-3,9.9-4.6c-0.3-3.1-0.8-6.5-1.2-9.9s-0.9-6.9-1.3-10.1v-1.2l1-0.6
	c4.8-2.7,9.4-5.5,13.6-8.4l1-0.6l1,0.6c2.7,1.7,5.6,3.6,8.6,5.8s5.6,3.8,8.2,5.5c2.7-2,5.4-4.2,8.6-6.8c-1-2.9-2.2-6.2-3.4-9.4
	s-2.5-6.5-3.6-9.5l-0.4-1.2l0.9-0.8c3.9-3.6,7.8-7.2,11.5-11.2l0.8-0.9l1.1,0.4c3,1.1,6.2,2.4,9.5,3.6s6.3,2.5,9.2,3.6
	c2.7-3.1,4.9-5.8,7-8.5c-1.6-2.7-3.6-5.5-5.3-8.3s-3.9-5.9-5.6-8.7l-0.6-1l0.7-1c3-4.2,5.9-8.8,8.7-13.5l0.6-1h1.2
	c3.2,0.4,6.6,0.9,10,1.5s6.8,1.1,9.9,1.5c1.7-3.2,3.3-6.5,4.9-9.8c-2.2-2.2-4.6-4.6-7-6.9s-5.1-4.9-7.4-7.2l-0.8-0.9l0.5-1.1
	c2.1-5.1,4-10.2,5.5-15.1l0.4-1.2h1.2c3.2-0.3,6.6-0.6,10.1-0.8s6.9-0.5,10-0.8c0.9-3.4,1.7-6.9,2.5-10.8c-2.6-1.7-5.5-3.4-8.3-5.1
	s-6.1-3.6-8.8-5.4l-1-0.6l0.2-1.2c0.8-4.9,1.4-10.1,1.9-15.9v-1.2l1.1-0.4c3-1,6.3-2,9.6-3s6.6-2,9.6-3v-0.3c0-1.8,0.2-3.6,0.2-5.3
	v-5.3L419.5,206.3z M221.9,153.1c2.3-23.7,6.9-47.2,13.7-70l0.5-1.6l1.7,0.4c16.2,3.5,31.6,10.2,45.4,19.5l1.4,0.9l-0.8,1.4
	c-11.3,21-25.2,40.6-41.3,58.3l-1,1.1l-1.3-0.8c-5.2-3.3-10.8-5.7-16.8-7.2l-1.5-0.4L221.9,153.1z M139.2,99.5
	c14-9,29.5-15.2,45.9-18.3l1.6-0.3l0.5,1.6c6.8,22.9,10.9,46.5,12,70.4v1.5l-1.5,0.3c-6,1.3-11.7,3.6-16.9,6.7l-1.4,0.8l-1-1.2
	c-15.2-18.4-28.6-38.2-39.9-59.1l-0.8-1.5L139.2,99.5z M82,181.6c3.5-16.2,10.2-31.6,19.5-45.4l0.9-1.4l1.4,0.8
	c21,11.3,40.6,25.2,58.3,41.3l1.2,1l-0.8,1.3c-3.3,5.2-5.7,10.9-7.2,16.8l-0.4,1.5h-1.5c-23.7-2.3-47.2-6.9-70.1-13.7l-1.6-0.5
	L82,181.6z M102,280.7l-1.5,0.8l-0.9-1.4c-9-14-15.2-29.6-18.3-45.9l-0.3-1.6l1.5-0.4c22.9-6.9,46.5-10.9,70.4-12.1h1.5l0.3,1.5
	c1.3,6,3.6,11.7,6.7,16.9l0.8,1.3l-1.2,1C142.8,256,123,269.3,102,280.7L102,280.7z M197.5,266c-2.3,23.7-6.9,47.2-13.7,70.1
	l-0.5,1.6l-1.7-0.4c-16.2-3.6-31.6-10.2-45.4-19.5l-1.3-0.9l0.8-1.4c11.3-21,25.2-40.6,41.2-58.3l1-1.1l1.3,0.8
	c5.2,3.3,10.9,5.7,16.8,7.2l1.5,0.4L197.5,266z M209.2,250.1c-22.9,0-41.5-18.6-41.5-41.6c0-22.9,18.6-41.5,41.6-41.5
	s41.5,18.6,41.5,41.6C250.8,231.5,232.2,250,209.2,250.1L209.2,250.1z M280.2,319.7c-14,9-29.5,15.2-45.9,18.3l-1.6,0.3l-0.5-1.5
	c-6.9-22.9-10.9-46.5-12-70.4v-1.5l1.5-0.3c6-1.3,11.7-3.6,16.9-6.7l1.3-0.8l1,1.2c15.2,18.4,28.5,38.2,39.9,59.1l0.8,1.5
	L280.2,319.7z M337.4,237.6c-3.5,16.2-10.2,31.6-19.5,45.4l-0.9,1.4l-1.5-0.8c-21-11.3-40.6-25.2-58.3-41.3l-1.1-1l0.8-1.3
	c3.3-5.2,5.7-10.9,7.2-16.8l0.4-1.5h1.5c23.7,2.3,47.2,6.9,70,13.7l1.6,0.5L337.4,237.6z M336.8,187c-22.9,6.9-46.5,10.9-70.4,12.1
	h-1.5l-0.3-1.5c-1.3-6-3.5-11.7-6.7-16.9l-0.8-1.3l1.2-1c18.4-15.2,38.2-28.6,59.1-39.9l1.5-0.8l0.9,1.4c9,14,15.2,29.5,18.3,45.9
	l0.3,1.6L336.8,187z"/>
</svg>
