<svg xmlns="http://www.w3.org/2000/svg" width="16.418" height="16.418" viewBox="0 0 16.418 16.418">
  <g id="noun-sun-2354530" transform="translate(-101.26 -31.26)">
    <path id="Path_38752" data-name="Path 38752" d="M331.964,34.79l-.637-3.53-.637,3.53Z" transform="translate(-221.858)" fill="#fff"/>
    <path id="Path_38753" data-name="Path 38753" d="M330.7,421.78l.637,3.53.637-3.53Z" transform="translate(-221.868 -377.632)" fill="#fff"/>
    <path id="Path_38754" data-name="Path 38754" d="M104.79,261.96v-1.275l-3.53.637Z" transform="translate(0 -221.854)" fill="#fff"/>
    <path id="Path_38755" data-name="Path 38755" d="M491.79,261.961l3.53-.637-3.53-.637Z" transform="translate(-377.642 -221.855)" fill="#fff"/>
    <path id="Path_38756" data-name="Path 38756" d="M177.058,106.158l-2.947-2.045,2.045,2.947Z" transform="translate(-70.447 -70.449)" fill="#fff"/>
    <path id="Path_38757" data-name="Path 38757" d="M437.5,366.6l-.9.9,2.947,2.045Z" transform="translate(-324.268 -324.273)" fill="#fff"/>
    <path id="Path_38758" data-name="Path 38758" d="M176.152,366.6l-2.046,2.947,2.947-2.045Z" transform="translate(-70.442 -324.273)" fill="#fff"/>
    <path id="Path_38759" data-name="Path 38759" d="M436.59,106.158l.9.9,2.046-2.947Z" transform="translate(-324.264 -70.449)" fill="#fff"/>
    <path id="Path_38760" data-name="Path 38760" d="M273.99,96.48l.405,1.863.626-.259Z" transform="translate(-167.03 -63.068)" fill="#fff"/>
    <path id="Path_38761" data-name="Path 38761" d="M394.78,407.318l1.031,1.6-.405-1.863Z" transform="translate(-283.833 -363.397)" fill="#fff"/>
    <path id="Path_38762" data-name="Path 38762" d="M168.093,205.009l.259-.626-1.863-.405Z" transform="translate(-63.076 -167.018)" fill="#fff"/>
    <path id="Path_38763" data-name="Path 38763" d="M477.06,325.4l1.863.405-1.6-1.031Z" transform="translate(-363.398 -283.832)" fill="#fff"/>
    <path id="Path_38764" data-name="Path 38764" d="M394.78,98.082l.626.259.405-1.863Z" transform="translate(-283.833 -63.066)" fill="#fff"/>
    <path id="Path_38765" data-name="Path 38765" d="M273.99,408.929l1.031-1.6-.626-.259Z" transform="translate(-167.03 -363.404)" fill="#fff"/>
    <path id="Path_38766" data-name="Path 38766" d="M477.07,204.384l.259.626,1.6-1.031Z" transform="translate(-363.408 -167.019)" fill="#fff"/>
    <path id="Path_38767" data-name="Path 38767" d="M166.48,325.807l1.863-.405-.26-.626Z" transform="translate(-63.068 -283.83)" fill="#fff"/>
    <path id="Path_38768" data-name="Path 38768" d="M231.587,159.433a3.988,3.988,0,1,0,5.211,2.158,3.988,3.988,0,0,0-5.211-2.158Zm1.611,1.057v.017l-.1,0a2.645,2.645,0,0,0-2.646,2.644v.1h-.018a.291.291,0,0,1-.565-.1,3.228,3.228,0,0,1,3.229-3.228.291.291,0,0,1,.1.565Z" transform="translate(-123.644 -123.648)" fill="#fff"/>
  </g>
</svg>
