<svg xmlns="http://www.w3.org/2000/svg" width="11.417" height="11.606" viewBox="0 0 11.417 11.606">
  <g id="noun-night-2325388" transform="translate(-71.093 -25.672)">
    <path id="Path_38710" data-name="Path 38710" d="M109.248,34.254a5.473,5.473,0,0,1-4.669-8.329l.155-.253-.29.061a5.835,5.835,0,1,0,6.311,8.535l.144-.259-.287.074a5.5,5.5,0,0,1-1.363.171Z" transform="translate(-28.721)" fill="#fc8801"/>
    <path id="Path_38711" data-name="Path 38711" d="M339.877,63.145l.607-1.11,1.11-.607-1.11-.607-.607-1.11-.607,1.11-1.11.607,1.11.607Z" transform="translate(-261.628 -33.262)" fill="#fc8801"/>
    <path id="Path_38712" data-name="Path 38712" d="M479.191,189.832l.492.9.492-.9.9-.492-.9-.492-.492-.9-.492.9-.9.492Z" transform="translate(-398.563 -158.575)" fill="#fc8801"/>
  </g>
</svg>
