<svg xmlns="http://www.w3.org/2000/svg" width="34.546" height="28.893" viewBox="0 0 34.546 28.893">
  <g id="Group_1845" data-name="Group 1845" transform="translate(-79.5 -290)">
    <g id="Polygon_60" data-name="Polygon 60" transform="translate(83.897 290)" fill="none">
      <path d="M22.612,0l7.537,14.446L22.612,28.893H7.537L0,14.446,7.537,0Z" stroke="none"/>
      <path d="M 8.749652862548828 1.999998092651367 L 2.255840301513672 14.44646739959717 L 8.749652862548828 26.89293670654297 L 21.39949417114258 26.89293670654297 L 27.8932991027832 14.44646739959717 L 21.39949417114258 1.999998092651367 L 8.749652862548828 1.999998092651367 M 7.537284851074219 -1.9073486328125e-06 L 22.61186408996582 -1.9073486328125e-06 L 30.14914512634277 14.44646739959717 L 22.61186408996582 28.89293670654297 L 7.537284851074219 28.89293670654297 L -5.7220458984375e-06 14.44646739959717 L 7.537284851074219 -1.9073486328125e-06 Z" stroke="none" fill="#FECB85"/>
    </g>
    <path id="Polygon_59" data-name="Polygon 59" d="M22.612,0l7.537,14.446L22.612,28.893H7.537L0,14.446,7.537,0Z" transform="translate(79.5 290)" fill="#FECB85"/>
  </g>
</svg>
