<?xml version="1.0" encoding="utf-8"?>
<!-- Generator: Adobe Illustrator 23.0.2, SVG Export Plug-In . SVG Version: 6.00 Build 0)  -->
<svg version="1.1" id="Layer_1" xmlns="http://www.w3.org/2000/svg" xmlns:xlink="http://www.w3.org/1999/xlink" x="0px" y="0px"
	 viewBox="0 0 500 500" style="enable-background:new 0 0 500 500;" xml:space="preserve">
<style type="text/css">
	.st0{fill:#074DD9;}
	.st1{fill:#FFFFFF;}
</style>
<path class="st0" d="M3.9,230.4c-0.1,0-0.3,0-0.4,0c-2.2-0.2-3.8-2.2-3.5-4.4c0.2-2.4,6.4-58.4,40.2-114.8
	c19.9-33.2,45.3-59.5,75.5-78C153.3,10,198.6-1.1,250.1,0.1c2.2,0.1,3.9,1.9,3.9,4.1c-0.1,2.2-1.8,3.9-4,3.9c0,0-0.1,0-0.1,0
	c-90.7-2.2-159,34-202.9,107.3c-32.9,54.9-39,111-39.1,111.5C7.6,228.9,5.9,230.4,3.9,230.4z"/>
<path class="st1" d="M496,269.6c0.1,0,0.3,0,0.4,0c2.2,0.2,3.8,2.2,3.5,4.4c-0.2,2.4-6.4,58.4-40.2,114.8
	c-19.9,33.2-45.3,59.5-75.5,78c-37.7,23.2-82.9,34.3-134.4,33.1c-2.2-0.1-3.9-1.9-3.9-4.1c0.1-2.2,1.8-3.9,4-3.9c0,0,0.1,0,0.1,0
	c90.7,2.2,159-34,202.9-107.3c32.9-54.9,39-111,39.1-111.5C492.2,271.1,494,269.6,496,269.6z"/>
</svg>
