<svg xmlns="http://www.w3.org/2000/svg" width="442.301" height="380.546" viewBox="0 0 442.301 380.546">
  <g id="Group_7025" data-name="Group 7025" transform="translate(-323.532 -853.413)">
    <rect id="Rectangle_169" data-name="Rectangle 169" width="6" height="70" rx="3" transform="matrix(-0.883, -0.469, 0.469, -0.883, 663.404, 1186.101)" fill="#f80"/>
    <rect id="Rectangle_168" data-name="Rectangle 168" width="6" height="19.29" rx="3" transform="matrix(-0.883, -0.469, 0.469, -0.883, 650.446, 1212.155)" fill="#f80"/>
    <rect id="Rectangle_167" data-name="Rectangle 167" width="6" height="19.29" rx="3" transform="translate(694.458 956.478) rotate(152)" fill="#f80"/>
    <rect id="Rectangle_166" data-name="Rectangle 166" width="6" height="70" rx="3" transform="translate(680.104 931.166) rotate(152)" fill="#f80"/>
    <path id="Path_4596" data-name="Path 4596" d="M2435.783,1222.356h230.9l99.7-182.175-99.7-190.87h-230.9" transform="translate(3093.89 2079.769) rotate(180)" fill="none" stroke="#b2b2b2" stroke-linecap="round" stroke-width="7" opacity="0.39"/>
    <g id="Path_4594" data-name="Path 4594" transform="translate(765.833 1233.62) rotate(180)" fill="none">
      <path d="M266.25,0,355,190.1l-88.75,190.1H88.75L0,190.1,88.75,0Z" stroke="none"/>
      <path d="M 93.20733642578125 7.000030517578125 L 7.725250244140625 190.1032409667969 L 93.20733642578125 373.2064514160156 L 261.7927551269531 373.2064514160156 L 347.2748413085938 190.1032409667969 L 261.7927551269531 7.000030517578125 L 93.20733642578125 7.000030517578125 M 88.75003051757813 3.0517578125e-05 L 266.2500610351563 3.0517578125e-05 L 355.0000915527344 190.1032409667969 L 266.2500610351563 380.2064514160156 L 88.75003051757813 380.2064514160156 L 0 190.1032409667969 L 88.75003051757813 3.0517578125e-05 Z" stroke="none" fill="#fb9600"/>
    </g>
    <path id="Path_4595" data-name="Path 4595" d="M2264.873,1009.556l-34.443,66.908,34.443,68.176" transform="translate(2964.015 2120.497) rotate(180)" fill="none" stroke="#fecb85" stroke-linecap="round" stroke-width="7"/>
  </g>
</svg>
